<svg xmlns="http://www.w3.org/2000/svg" width="1122.272" height="673.981" viewBox="0 0 1122.272 673.981">
  <g id="Group_2552" data-name="Group 2552" transform="translate(2 2)">
    <g id="Group_2560" data-name="Group 2560" transform="translate(0 0)">
      <path id="Path_1980" data-name="Path 1980" d="M1185.09,2050.753a175.426,175.426,0,0,0,75.041,46.875,176.13,176.13,0,0,1-5.91,27.375C1188.627,2105.55,1185.09,2050.753,1185.09,2050.753Z" transform="translate(-369.472 -1579.566)" fill="#e2eced"/>
      <path id="Path_1981" data-name="Path 1981" d="M1149.084,1948.391a174.7,174.7,0,0,0,15.52,72.237s-36.578-29.83-32.366-88.164a174.222,174.222,0,0,1,17.37,2.269C1149.258,1939.234,1149.084,1943.8,1149.084,1948.391Z" transform="translate(-378.164 -1598.898)" fill="#e2eced"/>
      <path id="Path_1982" data-name="Path 1982" d="M969.89,1721.963s44.14,29.446,40.243,92.644a174.16,174.16,0,0,0-27.026-5v-.977a174.508,174.508,0,0,0-18.056-77.565Q967.336,1726.436,969.89,1721.963Z" transform="translate(-405.431 -1633.299)" fill="#e2eced"/>
      <path id="Path_1983" data-name="Path 1983" d="M1255.483,1981.587a174.164,174.164,0,0,1,19.732-68.223c-49.4,26.026-51.389,65.373-51.389,65.373q7.208,0,14.287.582c-4.212,58.334,32.367,88.164,32.367,88.164a174.7,174.7,0,0,1-15.52-72.237Q1254.96,1988.353,1255.483,1981.587Zm171.5-160.506a175.37,175.37,0,1,1-127.325,295.858s3.537,54.8,69.131,74.25a175.388,175.388,0,0,1-334.461,3.967c47.468-2.187,58.555-30.575,58.555-30.575a175.264,175.264,0,0,1-49.713,7.155q-7.521,0-14.892-.628a175.332,175.332,0,0,1-160.436-174.7v-.978q-6.422-.663-12.693-1.8c-5.852-26.538-24.641-35.391-24.641-35.391a175.018,175.018,0,0,1,4,30.365c.116,2.594.174,5.189.174,7.807a175.161,175.161,0,1,1-123.451-167.522q-.175-3.874-.175-7.807a175.328,175.328,0,1,1,350.656,0v.977a174.139,174.139,0,0,1,27.026,5c3.9-63.2-40.243-92.644-40.243-92.644a175.333,175.333,0,0,1,327.748,86.664c0,2.513-.058,5.026-.175,7.516A175.157,175.157,0,0,1,1426.984,1821.081Z" transform="translate(-484.04 -1645.753)" fill="#fff"/>
      <path id="Path_1984" data-name="Path 1984" d="M1171.3,1875.773A174.174,174.174,0,0,0,1151.567,1944a174.1,174.1,0,0,0-17.37-2.269q-7.068-.576-14.287-.582S1121.9,1901.8,1171.3,1875.773Z" transform="translate(-380.124 -1608.162)" fill="#e2eced"/>
      <path id="Path_1985" data-name="Path 1985" d="M1016.435,2091.7s-11.087,28.388-58.555,30.575a172.31,172.31,0,0,1-6.05-24.048q7.365.629,14.892.628A175.272,175.272,0,0,0,1016.435,2091.7Z" transform="translate(-407.592 -1572.874)" fill="#e2eced"/>
      <path id="Path_1986" data-name="Path 1986" d="M806.481,1949.734a171.114,171.114,0,0,1-20.639-5.026,175.024,175.024,0,0,0-4-30.365S800.629,1923.2,806.481,1949.734Z" transform="translate(-435.372 -1601.859)" fill="#e2eced"/>
    </g>
    <g id="Group_2561" data-name="Group 2561" transform="translate(0 0)">
      <path id="Path_1987" data-name="Path 1987" d="M679.344,1828.888q-.174-3.874-.175-7.807a175.328,175.328,0,1,1,350.656,0v.977" transform="translate(-452.151 -1645.753)" fill="none" stroke="#005561" stroke-miterlimit="10" stroke-width="4"/>
      <path id="Path_1988" data-name="Path 1988" d="M818.612,1947.273q-6.422-.663-12.693-1.8a171.143,171.143,0,0,1-20.639-5.026" transform="translate(-434.81 -1597.594)" fill="none" stroke="#005561" stroke-miterlimit="10" stroke-width="4"/>
      <path id="Path_1989" data-name="Path 1989" d="M951.83,2098.338a172.327,172.327,0,0,0,6.05,24.048,175.3,175.3,0,0,0,340.371-31.343" transform="translate(-407.592 -1572.982)" fill="none" stroke="#005561" stroke-miterlimit="10" stroke-width="4"/>
      <path id="Path_1990" data-name="Path 1990" d="M965.05,1743.516q2.286-4.625,4.84-9.1a175.334,175.334,0,0,1,327.749,86.664c0,2.513-.058,5.026-.175,7.516" transform="translate(-405.431 -1645.753)" fill="none" stroke="#005561" stroke-miterlimit="10" stroke-width="4"/>
      <path id="Path_1991" data-name="Path 1991" d="M830.508,1933.609a175.018,175.018,0,0,1,4,30.365c.116,2.595.174,5.189.174,7.807A175.161,175.161,0,1,1,711.233,1804.26a172.789,172.789,0,0,1,25.374,10.087" transform="translate(-484.04 -1621.125)" fill="none" stroke="#005561" stroke-miterlimit="10" stroke-width="4"/>
      <path id="Path_1992" data-name="Path 1992" d="M1220.889,1822.223a175.41,175.41,0,1,1-35.8,270.089" transform="translate(-369.472 -1621.125)" fill="none" stroke="#005561" stroke-miterlimit="10" stroke-width="4"/>
      <path id="Path_1993" data-name="Path 1993" d="M881.22,1825.736a175.225,175.225,0,0,1,179.074-8.947" transform="translate(-419.131 -1621.125)" fill="none" stroke="#005561" stroke-miterlimit="10" stroke-width="4"/>
      <line id="Line_96" data-name="Line 96" x1="0.023" transform="translate(450.361 343.989)" fill="none" stroke="#005561" stroke-miterlimit="10" stroke-width="4"/>
      <path id="Path_1994" data-name="Path 1994" d="M813.93,1946.313v.977a175.332,175.332,0,0,0,160.436,174.7q7.364.629,14.892.628a175.263,175.263,0,0,0,49.713-7.155" transform="translate(-430.128 -1596.634)" fill="none" stroke="#005561" stroke-miterlimit="10" stroke-width="4"/>
      <line id="Line_97" data-name="Line 97" x1="0.012" y1="0.012" transform="translate(346.456 312.472)" fill="none" stroke="#005561" stroke-miterlimit="10" stroke-width="4"/>
      <line id="Line_98" data-name="Line 98" y1="0.012" transform="translate(851.417 201.098)" fill="none" stroke="#005561" stroke-miterlimit="10" stroke-width="4"/>
      <line id="Line_99" data-name="Line 99" y1="0.023" transform="translate(815.618 471.163)" fill="none" stroke="#005561" stroke-miterlimit="10" stroke-width="4"/>
      <path id="Path_1995" data-name="Path 1995" d="M1162.19,2029.892a174.7,174.7,0,0,1-15.52-72.237q0-6.893.524-13.659a174.174,174.174,0,0,1,19.731-68.223" transform="translate(-375.75 -1608.162)" fill="none" stroke="#005561" stroke-miterlimit="10" stroke-width="4"/>
      <path id="Path_1996" data-name="Path 1996" d="M1096.1,1934.139a176.825,176.825,0,0,1,27.7-2.176q7.207,0,14.287.582a174.148,174.148,0,0,1,17.37,2.269.043.043,0,0,0,.035.011" transform="translate(-384.015 -1598.98)" fill="none" stroke="#005561" stroke-miterlimit="10" stroke-width="4"/>
    </g>
  </g>
</svg>
