<svg xmlns="http://www.w3.org/2000/svg" width="218.758" height="3575.778" viewBox="0 0 218.758 3575.778">
  <g id="Group_2971" data-name="Group 2971" transform="translate(0 15.998)">
    <g id="Group_3251" data-name="Group 3251" transform="translate(0 -16)">
      <path id="Path_4681" data-name="Path 4681" d="M177.42,196.483v83.134c0,13.672-30.458,24.794-68.041,24.794-37.392,0-67.739-11-68.041-24.587V196.483c77.611,52.011,136.082,0,136.082,0" transform="translate(0 -66.231)" fill="none"/>
      <path id="Path_4682" data-name="Path 4682" d="M216.758,3505.112v39.775c0,15.972-48.082,28.894-107.379,28.894S2,3560.859,2,3544.887v-39.775c0,15.964,48.074,28.9,107.379,28.9s107.379-12.938,107.379-28.9" fill="none"/>
      <path id="Path_4683" data-name="Path 4683" d="M216.758,2392.04v39.775c0,9.014-15.321,17.067-39.338,22.365v-39.775c24.017-5.3,39.338-13.351,39.338-22.365" fill="none"/>
      <path id="Path_4684" data-name="Path 4684" d="M41.338,1220.22v15.821C17.321,1230.743,2,1222.7,2,1213.684v-39.775c0,15.964,48.074,28.9,107.379,28.9s107.379-12.938,107.379-28.9v39.775c0,9.014-15.321,17.059-39.338,22.357v-15.9c0,5.281-30.458,9.578-68.041,9.578-37.392,0-67.739-4.257-68.041-9.5" fill="none"/>
      <path id="Path_4685" data-name="Path 4685" d="M177.42,1151.552c24.017,5.3,39.338,13.351,39.338,22.357,0,15.964-48.074,28.9-107.379,28.9S2,1189.873,2,1173.909c0-9.006,15.313-17.06,39.338-22.357v22.365c.016,6.171,30.474,11.175,68.041,11.175s68.025-5,68.041-11.175v-22.365Z" fill="none"/>
      <path id="Path_4686" data-name="Path 4686" d="M177.42,2369.683c24.017,5.3,39.338,13.351,39.338,22.357s-15.321,17.06-39.338,22.366v-44.723Z" fill="none"/>
      <path id="Path_4687" data-name="Path 4687" d="M177.42,3482.754c24.017,5.3,39.338,13.351,39.338,22.357,0,15.964-48.074,28.9-107.379,28.9S2,3521.075,2,3505.111c0-9.006,15.313-17.06,39.338-22.357v22.365c.016,6.179,30.474,11.175,68.041,11.175s68.025-5,68.041-11.175v-22.365Z" fill="none"/>
      <path id="Path_4688" data-name="Path 4688" d="M177.42,3505.112v.008c-.016,6.179-30.474,11.175-68.041,11.175s-68.025-5-68.041-11.175v-63.157h1.247c77.024,23.446,134.835-.46,134.835-.46v63.609Z" fill="none"/>
      <path id="Path_4689" data-name="Path 4689" d="M177.42,3299.853V3441.5s-57.811,23.906-134.835.46H41.338V3299.932c.3,5.25,30.649,9.491,68.041,9.491,37.583,0,68.041-4.28,68.041-9.57" fill="none"/>
      <path id="Path_4690" data-name="Path 4690" d="M177.42,3048.1v251.753c0,5.289-30.458,9.57-68.041,9.57-37.392,0-67.739-4.241-68.041-9.491V3048.179c.3,5.25,30.649,9.5,68.041,9.5,37.583,0,68.041-4.288,68.041-9.578" fill="none"/>
      <path id="Path_4691" data-name="Path 4691" d="M177.42,2803.749V3048.1c0,5.289-30.458,9.578-68.041,9.578-37.392,0-67.739-4.249-68.041-9.5V2803.828c.3,5.242,30.649,9.491,68.041,9.491,37.583,0,68.041-4.288,68.041-9.57" fill="none"/>
      <path id="Path_4692" data-name="Path 4692" d="M177.42,2633.786V2803.75c0,5.281-30.458,9.57-68.041,9.57-37.392,0-67.739-4.249-68.041-9.491V2630.657c65.214,28.838,136.05,3.129,136.05,3.129Z" fill="none"/>
      <path id="Path_4693" data-name="Path 4693" d="M177.42,2559.8v73.982h-.032l-136.05-3.129v-70.774c.3,5.25,30.649,9.5,68.041,9.5,37.583,0,68.041-4.289,68.041-9.578" fill="none"/>
      <path id="Path_4694" data-name="Path 4694" d="M177.42,2454.18V2559.8c0,5.289-30.458,9.578-68.041,9.578-37.392,0-67.739-4.249-68.041-9.5v-105.7c18.513,4.082,42.213,6.536,68.041,6.536s49.52-2.454,68.041-6.536" fill="none"/>
      <path id="Path_4695" data-name="Path 4695" d="M177.42,2414.406v39.775c-18.521,4.082-42.221,6.536-68.041,6.536s-49.528-2.454-68.041-6.536v-39.775c18.513,4.09,42.213,6.544,68.041,6.544s49.528-2.454,68.041-6.544" fill="none"/>
      <path id="Path_4696" data-name="Path 4696" d="M177.42,2392.048v22.357c-18.513,4.091-42.213,6.545-68.041,6.545s-49.528-2.454-68.041-6.545v-22.357c.016,6.179,30.474,11.175,68.041,11.175s68.025-5,68.041-11.175" fill="none"/>
      <path id="Path_4697" data-name="Path 4697" d="M177.42,2392.04v.008c-.016,6.179-30.474,11.175-68.041,11.175s-68.025-5-68.041-11.175v-58.765c.3,5.25,30.649,9.5,68.041,9.5,37.583,0,68.041-4.289,68.041-9.578v58.836Z" fill="none"/>
      <path id="Path_4698" data-name="Path 4698" d="M177.42,2186.781V2333.2c0,5.289-30.458,9.578-68.041,9.578-37.392,0-67.739-4.249-68.041-9.5V2186.86c.3,5.25,30.649,9.491,68.041,9.491,37.583,0,68.041-4.281,68.041-9.57" fill="none"/>
      <path id="Path_4699" data-name="Path 4699" d="M177.42,1935.029v251.753c0,5.289-30.458,9.57-68.041,9.57-37.392,0-67.739-4.241-68.041-9.491V1935.116c.3,5.242,30.649,9.5,68.041,9.5,37.583,0,68.041-4.3,68.041-9.586" fill="none"/>
      <path id="Path_4700" data-name="Path 4700" d="M177.42,1690.678v244.35c0,5.29-30.458,9.587-68.041,9.587-37.392,0-67.739-4.257-68.041-9.5V1690.757c.3,5.242,30.649,9.5,68.041,9.5,37.583,0,68.041-4.3,68.041-9.578" fill="none"/>
      <path id="Path_4701" data-name="Path 4701" d="M177.42,1446.733v243.945c0,5.282-30.458,9.579-68.041,9.579-37.392,0-67.739-4.257-68.041-9.5V1446.812c.3,5.25,30.649,9.5,68.041,9.5,37.583,0,68.041-4.288,68.041-9.578" fill="none"/>
      <path id="Path_4702" data-name="Path 4702" d="M177.42,1236.041v210.691c0,5.29-30.458,9.579-68.041,9.579-37.392,0-67.739-4.249-68.041-9.5V1236.041c18.513,4.082,42.213,6.536,68.041,6.536s49.52-2.454,68.041-6.536" fill="none"/>
      <path id="Path_4703" data-name="Path 4703" d="M177.42,1220.141v15.9c-18.521,4.083-42.221,6.537-68.041,6.537s-49.528-2.454-68.041-6.537V1220.22c.3,5.242,30.649,9.5,68.041,9.5,37.583,0,68.041-4.3,68.041-9.578" fill="none"/>
      <path id="Path_4704" data-name="Path 4704" d="M177.42,1173.909v.008c-.016,6.171-30.474,11.175-68.041,11.175s-68.025-5-68.041-11.175V968.73c.3,5.249,30.649,9.491,68.041,9.491,37.583,0,68.041-4.289,68.041-9.571v205.259Z" fill="none"/>
      <path id="Path_4705" data-name="Path 4705" d="M177.42,716.9V968.651c0,5.281-30.458,9.569-68.041,9.569-37.392,0-67.739-4.241-68.041-9.491V716.978c.3,5.249,30.649,9.5,68.041,9.5,37.583,0,68.041-4.288,68.041-9.579" fill="none"/>
      <path id="Path_4706" data-name="Path 4706" d="M177.42,472.547V716.9c0,5.289-30.458,9.578-68.041,9.578-37.392,0-67.739-4.249-68.041-9.5V472.627c.3,5.241,30.649,9.491,68.041,9.491,37.583,0,68.041-4.289,68.041-9.571" fill="none"/>
      <path id="Path_4707" data-name="Path 4707" d="M177.42,374.85v97.7c0,5.282-30.458,9.571-68.041,9.571-37.392,0-67.739-4.249-68.041-9.491V373.262c57.9,26.217,136.082,1.588,136.082,1.588" fill="none"/>
      <path id="Path_4708" data-name="Path 4708" d="M177.42,228.6V374.85s-78.183,24.629-136.082-1.588V228.681c.3,5.25,30.649,9.5,68.041,9.5,37.583,0,68.041-4.3,68.041-9.578" fill="none"/>
      <path id="Path_4709" data-name="Path 4709" d="M41.338,2630.657l136.05,3.129s-70.836,25.709-136.05-3.129" fill="none"/>
      <path id="Path_4710" data-name="Path 4710" d="M41.338,2414.406v39.775C17.321,2448.883,2,2440.83,2,2431.815v-39.774c0,9.014,15.321,17.06,39.338,22.365" fill="none"/>
      <path id="Path_4711" data-name="Path 4711" d="M41.338,2392.048v22.357C17.321,2409.1,2,2401.054,2,2392.04s15.313-17.052,39.338-22.357v22.365Z" fill="none"/>
      <path id="Path_4712" data-name="Path 4712" d="M216.758,3544.886c0,15.972-48.082,28.894-107.379,28.894S2,3560.858,2,3544.886" fill="none" stroke="#005561" stroke-miterlimit="10" stroke-width="4"/>
      <path id="Path_4713" data-name="Path 4713" d="M41.338,3482.754C17.313,3488.051,2,3496.1,2,3505.111c0,15.964,48.074,28.9,107.379,28.9s107.379-12.938,107.379-28.9c0-9.006-15.321-17.06-39.338-22.357" fill="none" stroke="#005561" stroke-miterlimit="10" stroke-width="4"/>
      <line id="Line_444" data-name="Line 444" y2="39.775" transform="translate(2 3505.112)" fill="none" stroke="#005561" stroke-miterlimit="10" stroke-width="4"/>
      <line id="Line_445" data-name="Line 445" y2="39.775" transform="translate(216.758 3505.112)" fill="none" stroke="#005561" stroke-miterlimit="10" stroke-width="4"/>
      <path id="Path_4714" data-name="Path 4714" d="M41.338,3505.119c.016,6.179,30.474,11.175,68.041,11.175s68.025-5,68.041-11.175" fill="none" stroke="#005561" stroke-miterlimit="10" stroke-width="4"/>
      <path id="Path_4715" data-name="Path 4715" d="M41.338,3505.119V2454.181" fill="none" stroke="#005561" stroke-linecap="round" stroke-miterlimit="10" stroke-width="4"/>
      <path id="Path_4716" data-name="Path 4716" d="M177.42,3505.119V2454.181" fill="none" stroke="#005561" stroke-miterlimit="10" stroke-width="4"/>
      <path id="Path_4717" data-name="Path 4717" d="M177.42,2559.8c0,5.289-30.458,9.578-68.041,9.578-37.392,0-67.739-4.249-68.041-9.5a.291.291,0,0,1-.008-.079" fill="none" stroke="#005561" stroke-miterlimit="10" stroke-width="4"/>
      <path id="Path_4718" data-name="Path 4718" d="M41.338,2333.284a.242.242,0,0,1-.008-.079" fill="none" stroke="#005561" stroke-miterlimit="10" stroke-width="4"/>
      <path id="Path_4719" data-name="Path 4719" d="M177.42,3048.1c0,5.29-30.458,9.578-68.041,9.578-37.392,0-67.739-4.249-68.041-9.5a.236.236,0,0,1-.008-.079" fill="none" stroke="#005561" stroke-miterlimit="10" stroke-width="4"/>
      <path id="Path_4720" data-name="Path 4720" d="M177.42,3299.853c0,5.29-30.458,9.57-68.041,9.57-37.392,0-67.739-4.241-68.041-9.491a.289.289,0,0,1-.008-.079" fill="none" stroke="#005561" stroke-miterlimit="10" stroke-width="4"/>
      <path id="Path_4721" data-name="Path 4721" d="M177.42,2803.749c0,5.282-30.458,9.57-68.041,9.57-37.392,0-67.739-4.249-68.041-9.491a.261.261,0,0,1-.008-.079" fill="none" stroke="#005561" stroke-miterlimit="10" stroke-width="4"/>
      <path id="Path_4722" data-name="Path 4722" d="M216.758,2431.815c0,9.014-15.321,17.068-39.338,22.365-18.521,4.083-42.221,6.537-68.041,6.537s-49.528-2.454-68.041-6.537C17.321,2448.883,2,2440.829,2,2431.815" fill="none" stroke="#005561" stroke-miterlimit="10" stroke-width="4"/>
      <path id="Path_4723" data-name="Path 4723" d="M41.338,2369.683C17.313,2374.988,2,2383.034,2,2392.04s15.321,17.06,39.338,22.366c18.513,4.09,42.213,6.544,68.041,6.544s49.528-2.454,68.041-6.544c24.017-5.306,39.338-13.351,39.338-22.366s-15.321-17.052-39.338-22.357" fill="none" stroke="#005561" stroke-miterlimit="10" stroke-width="4"/>
      <line id="Line_446" data-name="Line 446" y2="39.775" transform="translate(2 2392.04)" fill="none" stroke="#005561" stroke-miterlimit="10" stroke-width="4"/>
      <line id="Line_447" data-name="Line 447" y2="39.775" transform="translate(216.758 2392.04)" fill="none" stroke="#005561" stroke-miterlimit="10" stroke-width="4"/>
      <path id="Path_4724" data-name="Path 4724" d="M41.338,2392.048c.016,6.179,30.474,11.175,68.041,11.175s68.025-5,68.041-11.175" fill="none" stroke="#005561" stroke-miterlimit="10" stroke-width="4"/>
      <path id="Path_4725" data-name="Path 4725" d="M41.338,2392.048V1236.041" fill="none" stroke="#005561" stroke-linecap="round" stroke-miterlimit="10" stroke-width="4"/>
      <path id="Path_4726" data-name="Path 4726" d="M177.42,2392.048V1236.041" fill="none" stroke="#005561" stroke-miterlimit="10" stroke-width="4"/>
      <path id="Path_4727" data-name="Path 4727" d="M177.42,1446.733c0,5.29-30.458,9.578-68.041,9.578-37.392,0-67.739-4.249-68.041-9.5a.266.266,0,0,1-.008-.079" fill="none" stroke="#005561" stroke-miterlimit="10" stroke-width="4"/>
      <path id="Path_4728" data-name="Path 4728" d="M177.42,1935.029c0,5.29-30.458,9.586-68.041,9.586-37.392,0-67.739-4.257-68.041-9.5a.317.317,0,0,1-.008-.087" fill="none" stroke="#005561" stroke-miterlimit="10" stroke-width="4"/>
      <path id="Path_4729" data-name="Path 4729" d="M177.42,2186.781c0,5.289-30.458,9.57-68.041,9.57-37.392,0-67.739-4.241-68.041-9.491a.264.264,0,0,1-.008-.079" fill="none" stroke="#005561" stroke-miterlimit="10" stroke-width="4"/>
      <path id="Path_4730" data-name="Path 4730" d="M177.42,1690.678c0,5.281-30.458,9.578-68.041,9.578-37.392,0-67.739-4.257-68.041-9.5a.237.237,0,0,1-.008-.079" fill="none" stroke="#005561" stroke-miterlimit="10" stroke-width="4"/>
      <path id="Path_4731" data-name="Path 4731" d="M216.758,1213.684c0,9.014-15.321,17.06-39.338,22.357-18.521,4.083-42.221,6.537-68.041,6.537s-49.528-2.454-68.041-6.537C17.321,1230.744,2,1222.7,2,1213.684" fill="none" stroke="#005561" stroke-miterlimit="10" stroke-width="4"/>
      <path id="Path_4732" data-name="Path 4732" d="M41.338,1151.552C17.313,1156.849,2,1164.9,2,1173.909c0,15.964,48.074,28.9,107.379,28.9s107.379-12.938,107.379-28.9c0-9.006-15.321-17.06-39.338-22.357" fill="none" stroke="#005561" stroke-miterlimit="10" stroke-width="4"/>
      <line id="Line_448" data-name="Line 448" y2="39.775" transform="translate(2 1173.909)" fill="none" stroke="#005561" stroke-miterlimit="10" stroke-width="4"/>
      <line id="Line_449" data-name="Line 449" y2="39.775" transform="translate(216.758 1173.909)" fill="none" stroke="#005561" stroke-miterlimit="10" stroke-width="4"/>
      <path id="Path_4733" data-name="Path 4733" d="M41.338,1173.917c.016,6.171,30.474,11.175,68.041,11.175s68.025-5,68.041-11.175" fill="none" stroke="#005561" stroke-miterlimit="10" stroke-width="4"/>
      <path id="Path_4734" data-name="Path 4734" d="M41.338,1173.917V2" fill="none" stroke="#005561" stroke-linecap="round" stroke-miterlimit="10" stroke-width="4"/>
      <path id="Path_4735" data-name="Path 4735" d="M177.42,1173.917V2" fill="none" stroke="#005561" stroke-miterlimit="10" stroke-width="4"/>
      <path id="Path_4736" data-name="Path 4736" d="M177.42,228.6c0,5.281-30.458,9.578-68.041,9.578-37.392,0-67.739-4.249-68.041-9.5a.29.29,0,0,1-.008-.079" fill="none" stroke="#005561" stroke-miterlimit="10" stroke-width="4"/>
      <path id="Path_4737" data-name="Path 4737" d="M177.42,2c0,5.29-30.458,9.578-68.041,9.578-37.392,0-67.739-4.249-68.041-9.5A.247.247,0,0,1,41.33,2" fill="none" stroke="#005561" stroke-miterlimit="10" stroke-width="4"/>
      <path id="Path_4738" data-name="Path 4738" d="M177.42,716.9c0,5.291-30.458,9.579-68.041,9.579-37.392,0-67.739-4.249-68.041-9.5a.25.25,0,0,1-.008-.081" fill="none" stroke="#005561" stroke-miterlimit="10" stroke-width="4"/>
      <path id="Path_4739" data-name="Path 4739" d="M177.42,968.65c0,5.282-30.458,9.571-68.041,9.571-37.392,0-67.739-4.242-68.041-9.491a.3.3,0,0,1-.008-.08" fill="none" stroke="#005561" stroke-miterlimit="10" stroke-width="4"/>
      <path id="Path_4740" data-name="Path 4740" d="M177.42,472.547c0,5.282-30.458,9.571-68.041,9.571-37.392,0-67.739-4.25-68.041-9.491a.272.272,0,0,1-.008-.08" fill="none" stroke="#005561" stroke-miterlimit="10" stroke-width="4"/>
    </g>
  </g>
</svg>
