<svg xmlns="http://www.w3.org/2000/svg" width="1088.794" height="2027.817" viewBox="0 0 1088.794 2027.817">
  <g id="Group_2755" data-name="Group 2755" transform="translate(-416.515 1562.644)">
    <g id="Group_2742" data-name="Group 2742" transform="translate(0 -1121.909)">
      <g id="Group_2741" data-name="Group 2741">
        <g id="Group_2740" data-name="Group 2740">
          <g id="Group_2739" data-name="Group 2739">
            <g id="Group_2737" data-name="Group 2737">
              <path id="Path_2626" data-name="Path 2626" d="M1012.1,1366.261v218.822H951.7V1366.261c0-6.59,13.52-11.944,30.2-11.944S1012.1,1359.671,1012.1,1366.261Z" fill="none"/>
              <path id="Path_2627" data-name="Path 2627" d="M1012.1,1149.9v216.359c0-6.59-13.52-11.944-30.2-11.944s-30.2,5.354-30.2,11.944V1131.237c0-6.59,13.52-11.945,30.2-11.945s30.2,5.355,30.2,11.945V1149.9Z" fill="none"/>
              <path id="Path_2628" data-name="Path 2628" d="M1012.1,1126.371v4.866c0-6.59-13.52-11.945-30.2-11.945s-30.2,5.355-30.2,11.945V919.494c0-6.6,13.52-11.945,30.2-11.945s30.2,5.345,30.2,11.945v206.877Z" fill="none"/>
              <path id="Path_2629" data-name="Path 2629" d="M1012.1,703.135V919.494c0-6.6-13.52-11.945-30.2-11.945s-30.2,5.345-30.2,11.945V684.47c0-6.6,13.52-11.945,30.2-11.945s30.2,5.344,30.2,11.945v18.665Z" fill="none"/>
              <path id="Path_2630" data-name="Path 2630" d="M1012.1,679.6v4.866c0-6.6-13.52-11.945-30.2-11.945s-30.2,5.344-30.2,11.945V475.718c0-6.6,13.52-11.955,30.2-11.955s30.2,5.355,30.2,11.955Z" fill="none"/>
              <path id="Path_2631" data-name="Path 2631" d="M1012.1,259.349V475.718c0-6.6-13.52-11.955-30.2-11.955s-30.2,5.355-30.2,11.955V240.694c0-6.6,13.52-11.955,30.2-11.955s30.2,5.354,30.2,11.955v18.655Z" fill="none"/>
              <path id="Path_2632" data-name="Path 2632" d="M1012.1,235.818v4.876c0-6.6-13.52-11.955-30.2-11.955s-30.2,5.354-30.2,11.955V31.932c0-6.6,13.52-11.945,30.2-11.945s30.2,5.345,30.2,11.945Z" fill="none"/>
              <path id="Path_2633" data-name="Path 2633" d="M1012.1-184.437V31.932c0-6.6-13.52-11.945-30.2-11.945s-30.2,5.345-30.2,11.945V-203.092c0-6.6,13.52-11.955,30.2-11.955s30.2,5.354,30.2,11.955v18.655Z" fill="none"/>
              <path id="Path_2634" data-name="Path 2634" d="M1012.1-207.958v4.866c0-6.6-13.52-11.955-30.2-11.955s-30.2,5.354-30.2,11.955V-426.78c0-6.6,13.52-11.954,30.2-11.954s30.2,5.354,30.2,11.954Z" fill="none"/>
            </g>
            <g id="Group_2738" data-name="Group 2738">
              <line id="Line_174" data-name="Line 174" y1="218.822" transform="translate(1012.097 -426.78)" fill="none" stroke="#005561" stroke-linecap="round" stroke-miterlimit="10" stroke-width="4"/>
              <line id="Line_175" data-name="Line 175" y1="218.822" transform="translate(951.697 -426.78)" fill="none" stroke="#005561" stroke-miterlimit="10" stroke-width="4"/>
              <path id="Path_2635" data-name="Path 2635" d="M951.7-426.78c0-6.6,13.52-11.954,30.2-11.954s30.2,5.354,30.2,11.954" fill="none" stroke="#005561" stroke-miterlimit="10" stroke-width="4"/>
              <path id="Path_2636" data-name="Path 2636" d="M951.7,919.494c0-6.6,13.52-11.945,30.2-11.945s30.2,5.345,30.2,11.945" fill="none" stroke="#005561" stroke-miterlimit="10" stroke-width="4"/>
              <path id="Path_2637" data-name="Path 2637" d="M951.7,684.47c0-6.6,13.52-11.945,30.2-11.945s30.2,5.344,30.2,11.945" fill="none" stroke="#005561" stroke-miterlimit="10" stroke-width="4"/>
              <line id="Line_176" data-name="Line 176" y2="7.089" transform="translate(1012.097 240.694)" fill="none" stroke="#005561" stroke-linecap="round" stroke-miterlimit="10" stroke-width="4"/>
              <path id="Path_2638" data-name="Path 2638" d="M1012.1,475.718V247.783" fill="none" stroke="#005561" stroke-linecap="round" stroke-miterlimit="10" stroke-width="4"/>
              <path id="Path_2639" data-name="Path 2639" d="M951.7,682.6v-441.9" fill="none" stroke="#005561" stroke-miterlimit="10" stroke-width="4"/>
              <path id="Path_2640" data-name="Path 2640" d="M951.7,475.718c0-6.6,13.52-11.955,30.2-11.955s30.2,5.355,30.2,11.955" fill="none" stroke="#005561" stroke-miterlimit="10" stroke-width="4"/>
              <path id="Path_2641" data-name="Path 2641" d="M951.7,240.694c0-6.6,13.52-11.955,30.2-11.955s30.2,5.354,30.2,11.955" fill="none" stroke="#005561" stroke-miterlimit="10" stroke-width="4"/>
              <line id="Line_177" data-name="Line 177" y2="7.089" transform="translate(1012.097 1131.237)" fill="none" stroke="#005561" stroke-linecap="round" stroke-miterlimit="10" stroke-width="4"/>
              <path id="Path_2642" data-name="Path 2642" d="M951.7,1127.927v457.156h60.4V1138.326" fill="none" stroke="#005561" stroke-linecap="round" stroke-miterlimit="10" stroke-width="4"/>
              <path id="Path_2643" data-name="Path 2643" d="M951.7,1366.261c0-6.59,13.52-11.944,30.2-11.944s30.2,5.354,30.2,11.944" fill="none" stroke="#005561" stroke-miterlimit="10" stroke-width="4"/>
              <path id="Path_2644" data-name="Path 2644" d="M951.7,1131.237c0-6.59,13.52-11.945,30.2-11.945s30.2,5.355,30.2,11.945" fill="none" stroke="#005561" stroke-miterlimit="10" stroke-width="4"/>
              <path id="Path_2645" data-name="Path 2645" d="M1012.1,475.718V684.47" fill="none" stroke="#005561" stroke-linecap="round" stroke-miterlimit="10" stroke-width="4"/>
              <line id="Line_178" data-name="Line 178" y2="7.089" transform="translate(1012.097 684.47)" fill="none" stroke="#005561" stroke-linecap="round" stroke-miterlimit="10" stroke-width="4"/>
              <line id="Line_179" data-name="Line 179" y2="2.991" transform="translate(1012.097 691.559)" fill="none" stroke="#005561" stroke-linecap="round" stroke-miterlimit="10" stroke-width="4"/>
              <path id="Path_2646" data-name="Path 2646" d="M1012.1,1131.237V694.55" fill="none" stroke="#005561" stroke-linecap="round" stroke-miterlimit="10" stroke-width="4"/>
              <path id="Path_2647" data-name="Path 2647" d="M951.7,1127.927V682.6" fill="none" stroke="#005561" stroke-miterlimit="10" stroke-width="4"/>
              <line id="Line_180" data-name="Line 180" y2="4.866" transform="translate(1012.097 -207.958)" fill="none" stroke="#005561" stroke-linecap="round" stroke-miterlimit="10" stroke-width="4"/>
              <line id="Line_181" data-name="Line 181" y2="7.089" transform="translate(1012.097 -203.092)" fill="none" stroke="#005561" stroke-linecap="round" stroke-miterlimit="10" stroke-width="4"/>
              <path id="Path_2648" data-name="Path 2648" d="M1012.1,240.694V-196" fill="none" stroke="#005561" stroke-linecap="round" stroke-miterlimit="10" stroke-width="4"/>
              <path id="Path_2649" data-name="Path 2649" d="M951.7,240.694V-207.958" fill="none" stroke="#005561" stroke-miterlimit="10" stroke-width="4"/>
              <path id="Path_2650" data-name="Path 2650" d="M951.7,31.932c0-6.6,13.52-11.945,30.2-11.945s30.2,5.345,30.2,11.945" fill="none" stroke="#005561" stroke-miterlimit="10" stroke-width="4"/>
              <path id="Path_2651" data-name="Path 2651" d="M951.7-203.092c0-6.6,13.52-11.955,30.2-11.955s30.2,5.354,30.2,11.955" fill="none" stroke="#005561" stroke-miterlimit="10" stroke-width="4"/>
            </g>
          </g>
        </g>
      </g>
    </g>
    <g id="Group_2748" data-name="Group 2748" transform="translate(0 -1121.909)">
      <g id="Group_2747" data-name="Group 2747">
        <g id="Group_2746" data-name="Group 2746">
          <g id="Group_2745" data-name="Group 2745">
            <g id="Group_2743" data-name="Group 2743">
              <path id="Path_2652" data-name="Path 2652" d="M478.915,1366.261v218.822h-60.4V1366.261c0-6.59,13.52-11.944,30.2-11.944S478.915,1359.671,478.915,1366.261Z" fill="none"/>
              <path id="Path_2653" data-name="Path 2653" d="M478.915,1149.9v216.359c0-6.59-13.52-11.944-30.2-11.944s-30.2,5.354-30.2,11.944V1131.237c0-6.59,13.52-11.945,30.2-11.945s30.2,5.355,30.2,11.945V1149.9Z" fill="none"/>
              <path id="Path_2654" data-name="Path 2654" d="M478.915,1126.371v4.866c0-6.59-13.52-11.945-30.2-11.945s-30.2,5.355-30.2,11.945V919.494c0-6.6,13.52-11.945,30.2-11.945s30.2,5.345,30.2,11.945v206.877Z" fill="none"/>
              <path id="Path_2655" data-name="Path 2655" d="M478.915,703.135V919.494c0-6.6-13.52-11.945-30.2-11.945s-30.2,5.345-30.2,11.945V684.47c0-6.6,13.52-11.945,30.2-11.945s30.2,5.344,30.2,11.945v18.665Z" fill="none"/>
              <path id="Path_2656" data-name="Path 2656" d="M478.915,679.6v4.866c0-6.6-13.52-11.945-30.2-11.945s-30.2,5.344-30.2,11.945V475.718c0-6.6,13.52-11.955,30.2-11.955s30.2,5.355,30.2,11.955Z" fill="none"/>
              <path id="Path_2657" data-name="Path 2657" d="M478.915,259.349V475.718c0-6.6-13.52-11.955-30.2-11.955s-30.2,5.355-30.2,11.955V240.694c0-6.6,13.52-11.955,30.2-11.955s30.2,5.354,30.2,11.955v18.655Z" fill="none"/>
              <path id="Path_2658" data-name="Path 2658" d="M478.915,235.818v4.876c0-6.6-13.52-11.955-30.2-11.955s-30.2,5.354-30.2,11.955V31.932c0-6.6,13.52-11.945,30.2-11.945s30.2,5.345,30.2,11.945Z" fill="none"/>
              <path id="Path_2659" data-name="Path 2659" d="M478.915-184.437V31.932c0-6.6-13.52-11.945-30.2-11.945s-30.2,5.345-30.2,11.945V-203.092c0-6.6,13.52-11.955,30.2-11.955s30.2,5.354,30.2,11.955v18.655Z" fill="none"/>
              <path id="Path_2660" data-name="Path 2660" d="M478.915-207.958v4.866c0-6.6-13.52-11.955-30.2-11.955s-30.2,5.354-30.2,11.955V-426.78c0-6.6,13.52-11.954,30.2-11.954s30.2,5.354,30.2,11.954Z" fill="none"/>
            </g>
            <g id="Group_2744" data-name="Group 2744">
              <line id="Line_182" data-name="Line 182" y1="218.822" transform="translate(478.915 -426.78)" fill="none" stroke="#005561" stroke-linecap="round" stroke-miterlimit="10" stroke-width="4"/>
              <line id="Line_183" data-name="Line 183" y1="218.822" transform="translate(418.515 -426.78)" fill="none" stroke="#005561" stroke-miterlimit="10" stroke-width="4"/>
              <path id="Path_2661" data-name="Path 2661" d="M418.515-426.78c0-6.6,13.52-11.954,30.2-11.954s30.2,5.354,30.2,11.954" fill="none" stroke="#005561" stroke-miterlimit="10" stroke-width="4"/>
              <path id="Path_2662" data-name="Path 2662" d="M418.515,919.494c0-6.6,13.52-11.945,30.2-11.945s30.2,5.345,30.2,11.945" fill="none" stroke="#005561" stroke-miterlimit="10" stroke-width="4"/>
              <path id="Path_2663" data-name="Path 2663" d="M418.515,684.47c0-6.6,13.52-11.945,30.2-11.945s30.2,5.344,30.2,11.945" fill="none" stroke="#005561" stroke-miterlimit="10" stroke-width="4"/>
              <line id="Line_184" data-name="Line 184" y2="7.089" transform="translate(478.915 240.694)" fill="none" stroke="#005561" stroke-linecap="round" stroke-miterlimit="10" stroke-width="4"/>
              <path id="Path_2664" data-name="Path 2664" d="M478.915,475.718V247.783" fill="none" stroke="#005561" stroke-linecap="round" stroke-miterlimit="10" stroke-width="4"/>
              <path id="Path_2665" data-name="Path 2665" d="M418.515,682.6v-441.9" fill="none" stroke="#005561" stroke-miterlimit="10" stroke-width="4"/>
              <path id="Path_2666" data-name="Path 2666" d="M418.515,475.718c0-6.6,13.52-11.955,30.2-11.955s30.2,5.355,30.2,11.955" fill="none" stroke="#005561" stroke-miterlimit="10" stroke-width="4"/>
              <path id="Path_2667" data-name="Path 2667" d="M418.515,240.694c0-6.6,13.52-11.955,30.2-11.955s30.2,5.354,30.2,11.955" fill="none" stroke="#005561" stroke-miterlimit="10" stroke-width="4"/>
              <line id="Line_185" data-name="Line 185" y2="7.089" transform="translate(478.915 1131.237)" fill="none" stroke="#005561" stroke-linecap="round" stroke-miterlimit="10" stroke-width="4"/>
              <path id="Path_2668" data-name="Path 2668" d="M418.515,1127.927v457.156h60.4V1138.326" fill="none" stroke="#005561" stroke-linecap="round" stroke-miterlimit="10" stroke-width="4"/>
              <path id="Path_2669" data-name="Path 2669" d="M418.515,1366.261c0-6.59,13.52-11.944,30.2-11.944s30.2,5.354,30.2,11.944" fill="none" stroke="#005561" stroke-miterlimit="10" stroke-width="4"/>
              <path id="Path_2670" data-name="Path 2670" d="M418.515,1131.237c0-6.59,13.52-11.945,30.2-11.945s30.2,5.355,30.2,11.945" fill="none" stroke="#005561" stroke-miterlimit="10" stroke-width="4"/>
              <path id="Path_2671" data-name="Path 2671" d="M478.915,475.718V684.47" fill="none" stroke="#005561" stroke-linecap="round" stroke-miterlimit="10" stroke-width="4"/>
              <line id="Line_186" data-name="Line 186" y2="7.089" transform="translate(478.915 684.47)" fill="none" stroke="#005561" stroke-linecap="round" stroke-miterlimit="10" stroke-width="4"/>
              <line id="Line_187" data-name="Line 187" y2="2.991" transform="translate(478.915 691.559)" fill="none" stroke="#005561" stroke-linecap="round" stroke-miterlimit="10" stroke-width="4"/>
              <path id="Path_2672" data-name="Path 2672" d="M478.915,1131.237V694.55" fill="none" stroke="#005561" stroke-linecap="round" stroke-miterlimit="10" stroke-width="4"/>
              <path id="Path_2673" data-name="Path 2673" d="M418.515,1127.927V682.6" fill="none" stroke="#005561" stroke-miterlimit="10" stroke-width="4"/>
              <line id="Line_188" data-name="Line 188" y2="4.866" transform="translate(478.915 -207.958)" fill="none" stroke="#005561" stroke-linecap="round" stroke-miterlimit="10" stroke-width="4"/>
              <line id="Line_189" data-name="Line 189" y2="7.089" transform="translate(478.915 -203.092)" fill="none" stroke="#005561" stroke-linecap="round" stroke-miterlimit="10" stroke-width="4"/>
              <path id="Path_2674" data-name="Path 2674" d="M478.915,240.694V-196" fill="none" stroke="#005561" stroke-linecap="round" stroke-miterlimit="10" stroke-width="4"/>
              <path id="Path_2675" data-name="Path 2675" d="M418.515,240.694V-207.958" fill="none" stroke="#005561" stroke-miterlimit="10" stroke-width="4"/>
              <path id="Path_2676" data-name="Path 2676" d="M418.515,31.932c0-6.6,13.52-11.945,30.2-11.945s30.2,5.345,30.2,11.945" fill="none" stroke="#005561" stroke-miterlimit="10" stroke-width="4"/>
              <path id="Path_2677" data-name="Path 2677" d="M418.515-203.092c0-6.6,13.52-11.955,30.2-11.955s30.2,5.354,30.2,11.955" fill="none" stroke="#005561" stroke-miterlimit="10" stroke-width="4"/>
            </g>
          </g>
        </g>
      </g>
    </g>
    <g id="Group_2754" data-name="Group 2754" transform="translate(0 -1121.909)">
      <g id="Group_2753" data-name="Group 2753">
        <g id="Group_2752" data-name="Group 2752">
          <g id="Group_2751" data-name="Group 2751">
            <g id="Group_2749" data-name="Group 2749">
              <path id="Path_2678" data-name="Path 2678" d="M1503.309,1366.261v218.822h-60.4V1366.261c0-6.59,13.52-11.944,30.2-11.944S1503.309,1359.671,1503.309,1366.261Z" fill="none"/>
              <path id="Path_2679" data-name="Path 2679" d="M1503.309,1149.9v216.359c0-6.59-13.52-11.944-30.2-11.944s-30.2,5.354-30.2,11.944V1131.237c0-6.59,13.52-11.945,30.2-11.945s30.2,5.355,30.2,11.945V1149.9Z" fill="none"/>
              <path id="Path_2680" data-name="Path 2680" d="M1503.309,1126.371v4.866c0-6.59-13.52-11.945-30.2-11.945s-30.2,5.355-30.2,11.945V919.494c0-6.6,13.52-11.945,30.2-11.945s30.2,5.345,30.2,11.945v206.877Z" fill="none"/>
              <path id="Path_2681" data-name="Path 2681" d="M1503.309,703.135V919.494c0-6.6-13.52-11.945-30.2-11.945s-30.2,5.345-30.2,11.945V684.47c0-6.6,13.52-11.945,30.2-11.945s30.2,5.344,30.2,11.945v18.665Z" fill="none"/>
              <path id="Path_2682" data-name="Path 2682" d="M1503.309,679.6v4.866c0-6.6-13.52-11.945-30.2-11.945s-30.2,5.344-30.2,11.945V475.718c0-6.6,13.52-11.955,30.2-11.955s30.2,5.355,30.2,11.955Z" fill="none"/>
              <path id="Path_2683" data-name="Path 2683" d="M1503.309,259.349V475.718c0-6.6-13.52-11.955-30.2-11.955s-30.2,5.355-30.2,11.955V240.694c0-6.6,13.52-11.955,30.2-11.955s30.2,5.354,30.2,11.955v18.655Z" fill="none"/>
              <path id="Path_2684" data-name="Path 2684" d="M1503.309,235.818v4.876c0-6.6-13.52-11.955-30.2-11.955s-30.2,5.354-30.2,11.955V31.932c0-6.6,13.52-11.945,30.2-11.945s30.2,5.345,30.2,11.945Z" fill="none"/>
              <path id="Path_2685" data-name="Path 2685" d="M1503.309-184.437V31.932c0-6.6-13.52-11.945-30.2-11.945s-30.2,5.345-30.2,11.945V-203.092c0-6.6,13.52-11.955,30.2-11.955s30.2,5.354,30.2,11.955v18.655Z" fill="none"/>
              <path id="Path_2686" data-name="Path 2686" d="M1503.309-207.958v4.866c0-6.6-13.52-11.955-30.2-11.955s-30.2,5.354-30.2,11.955V-426.78c0-6.6,13.52-11.954,30.2-11.954s30.2,5.354,30.2,11.954Z" fill="none"/>
            </g>
            <g id="Group_2750" data-name="Group 2750">
              <line id="Line_190" data-name="Line 190" y1="218.822" transform="translate(1503.309 -426.78)" fill="none" stroke="#005561" stroke-linecap="round" stroke-miterlimit="10" stroke-width="4"/>
              <line id="Line_191" data-name="Line 191" y1="218.822" transform="translate(1442.909 -426.78)" fill="none" stroke="#005561" stroke-miterlimit="10" stroke-width="4"/>
              <path id="Path_2687" data-name="Path 2687" d="M1442.909-426.78c0-6.6,13.52-11.954,30.2-11.954s30.2,5.354,30.2,11.954" fill="none" stroke="#005561" stroke-miterlimit="10" stroke-width="4"/>
              <path id="Path_2688" data-name="Path 2688" d="M1442.909,919.494c0-6.6,13.52-11.945,30.2-11.945s30.2,5.345,30.2,11.945" fill="none" stroke="#005561" stroke-miterlimit="10" stroke-width="4"/>
              <path id="Path_2689" data-name="Path 2689" d="M1442.909,684.47c0-6.6,13.52-11.945,30.2-11.945s30.2,5.344,30.2,11.945" fill="none" stroke="#005561" stroke-miterlimit="10" stroke-width="4"/>
              <line id="Line_192" data-name="Line 192" y2="7.089" transform="translate(1503.309 240.694)" fill="none" stroke="#005561" stroke-linecap="round" stroke-miterlimit="10" stroke-width="4"/>
              <path id="Path_2690" data-name="Path 2690" d="M1503.309,475.718V247.783" fill="none" stroke="#005561" stroke-linecap="round" stroke-miterlimit="10" stroke-width="4"/>
              <path id="Path_2691" data-name="Path 2691" d="M1442.909,682.6v-441.9" fill="none" stroke="#005561" stroke-miterlimit="10" stroke-width="4"/>
              <path id="Path_2692" data-name="Path 2692" d="M1442.909,475.718c0-6.6,13.52-11.955,30.2-11.955s30.2,5.355,30.2,11.955" fill="none" stroke="#005561" stroke-miterlimit="10" stroke-width="4"/>
              <path id="Path_2693" data-name="Path 2693" d="M1442.909,240.694c0-6.6,13.52-11.955,30.2-11.955s30.2,5.354,30.2,11.955" fill="none" stroke="#005561" stroke-miterlimit="10" stroke-width="4"/>
              <line id="Line_193" data-name="Line 193" y2="7.089" transform="translate(1503.309 1131.237)" fill="none" stroke="#005561" stroke-linecap="round" stroke-miterlimit="10" stroke-width="4"/>
              <path id="Path_2694" data-name="Path 2694" d="M1442.909,1127.927v457.156h60.4V1138.326" fill="none" stroke="#005561" stroke-linecap="round" stroke-miterlimit="10" stroke-width="4"/>
              <path id="Path_2695" data-name="Path 2695" d="M1442.909,1366.261c0-6.59,13.52-11.944,30.2-11.944s30.2,5.354,30.2,11.944" fill="none" stroke="#005561" stroke-miterlimit="10" stroke-width="4"/>
              <path id="Path_2696" data-name="Path 2696" d="M1442.909,1131.237c0-6.59,13.52-11.945,30.2-11.945s30.2,5.355,30.2,11.945" fill="none" stroke="#005561" stroke-miterlimit="10" stroke-width="4"/>
              <path id="Path_2697" data-name="Path 2697" d="M1503.309,475.718V684.47" fill="none" stroke="#005561" stroke-linecap="round" stroke-miterlimit="10" stroke-width="4"/>
              <line id="Line_194" data-name="Line 194" y2="7.089" transform="translate(1503.309 684.47)" fill="none" stroke="#005561" stroke-linecap="round" stroke-miterlimit="10" stroke-width="4"/>
              <line id="Line_195" data-name="Line 195" y2="2.991" transform="translate(1503.309 691.559)" fill="none" stroke="#005561" stroke-linecap="round" stroke-miterlimit="10" stroke-width="4"/>
              <path id="Path_2698" data-name="Path 2698" d="M1503.309,1131.237V694.55" fill="none" stroke="#005561" stroke-linecap="round" stroke-miterlimit="10" stroke-width="4"/>
              <path id="Path_2699" data-name="Path 2699" d="M1442.909,1127.927V682.6" fill="none" stroke="#005561" stroke-miterlimit="10" stroke-width="4"/>
              <line id="Line_196" data-name="Line 196" y2="4.866" transform="translate(1503.309 -207.958)" fill="none" stroke="#005561" stroke-linecap="round" stroke-miterlimit="10" stroke-width="4"/>
              <line id="Line_197" data-name="Line 197" y2="7.089" transform="translate(1503.309 -203.092)" fill="none" stroke="#005561" stroke-linecap="round" stroke-miterlimit="10" stroke-width="4"/>
              <path id="Path_2700" data-name="Path 2700" d="M1503.309,240.694V-196" fill="none" stroke="#005561" stroke-linecap="round" stroke-miterlimit="10" stroke-width="4"/>
              <path id="Path_2701" data-name="Path 2701" d="M1442.909,240.694V-207.958" fill="none" stroke="#005561" stroke-miterlimit="10" stroke-width="4"/>
              <path id="Path_2702" data-name="Path 2702" d="M1442.909,31.932c0-6.6,13.52-11.945,30.2-11.945s30.2,5.345,30.2,11.945" fill="none" stroke="#005561" stroke-miterlimit="10" stroke-width="4"/>
              <path id="Path_2703" data-name="Path 2703" d="M1442.909-203.092c0-6.6,13.52-11.955,30.2-11.955s30.2,5.354,30.2,11.955" fill="none" stroke="#005561" stroke-miterlimit="10" stroke-width="4"/>
            </g>
          </g>
        </g>
      </g>
    </g>
  </g>
</svg>
