<?xml version="1.0" encoding="utf-8"?>
<!-- Generator: Adobe Illustrator 24.1.0, SVG Export Plug-In . SVG Version: 6.00 Build 0)  -->
<svg version="1.1" id="Layer_1" xmlns="http://www.w3.org/2000/svg" xmlns:xlink="http://www.w3.org/1999/xlink" x="0px" y="0px"
	 viewBox="0 0 131.2 133" style="enable-background:new 0 0 131.2 133;" xml:space="preserve">
<style type="text/css">
	.st0{fill:#F990C1;}
	.st1{fill:none;stroke:#005561;stroke-width:3;stroke-linecap:round;stroke-miterlimit:10;stroke-dasharray:24,36;}
</style>
<path id="Path_1606" class="st0" d="M66.8,0c35.4-0.1,64.3,28.5,64.4,64s-28.5,64.3-64,64.4c-16.6,0.1-32.5-6.3-44.5-17.7
	C37.5,79.7,26.1,50.9,12,31.2C23.5,11.9,44.3,0,66.8,0z"/>
<path id="Path_1647" class="st1" d="M11.5,31.3C29.7,0.7,69.2-9.3,99.7,8.8c30.6,18.2,40.6,57.7,22.4,88.3
	c-18.2,30.6-57.7,40.6-88.3,22.4C14.4,107.9,2.4,86.9,2.4,64.2C2.4,52.6,5.5,41.2,11.5,31.3z"/>
</svg>
