<svg xmlns="http://www.w3.org/2000/svg" width="32.252" height="31.35" viewBox="0 0 32.252 31.35">
  <g id="Group_2519" data-name="Group 2519" transform="translate(-86.64 -710.893)">
    <path id="Path_648" data-name="Path 648" d="M107.457,730.412a9.6,9.6,0,0,1-11.676-2.919c-2.623-3.1-2.748-7.092-4.561-7.879-.867-.354-2.224.262-3.364,2.292a12.22,12.22,0,0,0-.524,9.476,15.767,15.767,0,0,0,9.977,9.988,16.335,16.335,0,0,0,21.574-15.77,15.651,15.651,0,0,0-3.968-9.9,14.612,14.612,0,0,0-8.757-4.687,13.774,13.774,0,0,0-10.765,3.147,11.713,11.713,0,0,1,10.308-1.254,10.359,10.359,0,0,1,5.747,5.223c2.1,4.3.878,10.034-3.991,12.28" fill="#00bfd6"/>
  </g>
</svg>
