<?xml version="1.0" encoding="utf-8"?>
<!-- Generator: Adobe Illustrator 26.0.1, SVG Export Plug-In . SVG Version: 6.00 Build 0)  -->
<svg version="1.1" id="Layer_1" xmlns="http://www.w3.org/2000/svg" xmlns:xlink="http://www.w3.org/1999/xlink" x="0px" y="0px"
	 viewBox="0 0 4224.87 720.97" style="enable-background:new 0 0 4224.87 720.97;" xml:space="preserve">
<style type="text/css">
	.st0{fill:#FFFFFF;}
	.st1{fill:#E7EBEB;}
	.st2{fill:none;stroke:#025661;stroke-width:4;stroke-miterlimit:10;}
	.st3{fill:none;stroke:#025661;stroke-width:4;stroke-linecap:round;stroke-miterlimit:10;}
</style>
<g id="Group_2691" transform="translate(-3490.883 -391.643)">
	<g id="Group_2689">
		<path id="Path_2413" class="st1" d="M7500.83,407.53c23.69,0,42.9,71.36,42.9,159.39s-19.21,159.4-42.9,159.4
			c-13.37,0-25.32-22.74-33.19-58.39h33.19c9.16,0,16.59-45.22,16.59-101.01s-7.43-101-16.59-101h-33.19
			C7475.51,430.27,7487.46,407.53,7500.83,407.53z"/>
		<path id="Path_2423" class="st1" d="M4625.57,407.53c23.7,0,42.91,71.36,42.91,159.39s-19.21,159.4-42.91,159.4
			c-13.37,0-25.32-22.74-33.19-58.39h33.19c9.17,0,16.6-45.22,16.6-101.01s-7.43-101-16.6-101h-33.19
			C4600.25,430.27,4612.2,407.53,4625.57,407.53z"/>
	</g>
	<g id="Group_2690">
		<path id="Path_2433" class="st2" d="M4684.61,407.53c13.45,0,25.45,22.98,33.31,58.95c6,27.41,9.59,62.38,9.59,100.45
			s-3.59,73.03-9.59,100.44c-7.85,35.97-19.85,58.96-33.31,58.96"/>
		<path id="Path_2434" class="st2" d="M4592.38,667.93c7.87,35.65,19.82,58.39,33.19,58.39c23.7,0,42.91-71.36,42.91-159.4
			s-19.21-159.39-42.91-159.39c-13.37,0-25.32,22.74-33.19,58.39"/>
		<line id="Line_143" class="st2" x1="4625.57" y1="726.33" x2="4684.61" y2="726.33"/>
		<line id="Line_144" class="st2" x1="4625.57" y1="407.52" x2="4684.61" y2="407.52"/>
		<path id="Path_2435" class="st2" d="M4625.57,667.93c9.17,0,16.6-45.22,16.6-101.01s-7.43-101-16.6-101"/>
		<path id="Path_2436" class="st2" d="M7559.86,407.53c13.38,0,25.33,22.74,33.2,58.39c6.07,27.49,9.71,62.68,9.71,101.01
			s-3.64,73.51-9.71,101c-7.86,35.64-19.81,58.39-33.19,58.4"/>
		<path id="Path_2437" class="st2" d="M7467.64,667.93c7.87,35.65,19.82,58.39,33.19,58.39c23.69,0,42.9-71.36,42.9-159.4
			s-19.21-159.39-42.9-159.39c-13.37,0-25.32,22.74-33.19,58.39"/>
		<path id="Path_2438" class="st2" d="M7500.83,726.33h59.04"/>
		<path id="Path_2439" class="st2" d="M7500.83,407.52h59.04"/>
		<path id="Path_2440" class="st2" d="M7500.83,667.93c9.16,0,16.59-45.22,16.59-101.01s-7.43-101-16.59-101"/>
		<path id="Path_2441" class="st2" d="M3710.05,931.16c0,9.16-45.23,16.58-101.01,16.58s-101.01-7.42-101.01-16.58"/>
		<path id="Path_2442" class="st3" d="M3710.05,667.93v429.39l-202.02-3.71V667.93"/>
		<line id="Line_145" class="st3" x1="4625.57" y1="667.93" x2="4611.35" y2="667.93"/>
		<path id="Path_2443" class="st3" d="M3710.05,667.93h901.3"/>
		<path id="Path_2444" class="st2" d="M3710.05,465.92h915.52"/>
		<path id="Path_2445" class="st3" d="M7500.83,667.93H4720.51"/>
		<path id="Path_2446" class="st2" d="M7593.06,667.93h102.04V465.92h-102.04"/>
		<path id="Path_2447" class="st2" d="M7500.83,465.92H4720.51"/>
		<path id="Path_2448" class="st2" d="M3944.74,465.92c6.25,0,11.56,28.61,13.47,68.39c0.49,10.23,0.76,21.2,0.76,32.61
			c0,55.79-6.37,101.01-14.23,101.01"/>
		<path id="Path_2449" class="st2" d="M3567.85,525.48c5.56-5.55,42.04,21.92,81.48,61.36c38.6,38.6,65.73,74.35,61.68,81.09
			c-0.09,0.15-0.19,0.28-0.31,0.4"/>
		<path id="Path_2450" class="st2" d="M4275.34,465.92c7.85,0,14.22,45.22,14.22,101c0,6.07-0.08,12.01-0.22,17.78
			c-1.18,47.31-7,83.23-14,83.23"/>
		<path id="Path_2451" class="st2" d="M5401.99,465.92c7.85,0,14.22,45.22,14.22,101s-6.37,101.01-14.22,101.01"/>
		<path id="Path_2452" class="st2" d="M5028.4,465.92c7.84,0,14.21,45.22,14.21,101s-6.37,101.01-14.21,101.01"/>
		<path id="Path_2453" class="st2" d="M6097.56,465.92c7.84,0,14.21,45.22,14.21,101s-6.37,101.01-14.21,101.01"/>
		<path id="Path_2454" class="st2" d="M5761.18,465.92c7.85,0,14.22,45.22,14.22,101s-6.37,101.01-14.22,101.01"/>
		<path id="Path_2455" class="st2" d="M6822.42,465.92c7.85,0,14.21,45.22,14.21,101s-6.36,101.01-14.21,101.01"/>
		<path id="Path_2456" class="st2" d="M7196.12,465.92c7.85,0,14.22,45.22,14.22,101s-6.37,101.01-14.22,101.01"/>
		<path id="Path_2457" class="st2" d="M6459.68,465.92c7.85,0,14.22,45.22,14.22,101s-6.37,101.01-14.22,101.01"/>
		<path id="Path_2458" class="st2" d="M3710.44,465.91h-0.39c-111.49,0.21-201.82,90.54-202.03,202.03v0.39"/>
	</g>
</g>
</svg>
