<svg xmlns="http://www.w3.org/2000/svg" width="532.489" height="555.042" viewBox="0 0 532.489 555.042">
  <g id="Group_2613" data-name="Group 2613" transform="translate(2 2)">
    <g id="Group_2612" data-name="Group 2612" transform="translate(0 0)">
      <g id="Group_2610" data-name="Group 2610">
        <path id="Path_2024" data-name="Path 2024" d="M1840.947,1049.813a54.853,54.853,0,0,0,26.942-17.653l-5.9-73.221a55.4,55.4,0,0,0-36.763-13.8c-30.286,0-54.839,23.934-54.839,53.446s24.553,53.457,54.839,53.457A56.1,56.1,0,0,0,1840.947,1049.813Z" transform="translate(-1770.388 -539.875)" fill="#fff"/>
        <path id="Path_2025" data-name="Path 2025" d="M1780.519,880.377c-12.988,1.668-22.131,13.277-20.42,25.938s13.621,21.584,26.608,19.916,22.131-13.288,20.42-25.949S1793.506,878.71,1780.519,880.377Z" transform="translate(-1698.172 -545.267)" fill="#fff"/>
        <path id="Path_2026" data-name="Path 2026" d="M1759.438,957.882l5.9,73.221a52.482,52.482,0,0,0-5.9-73.221Z" transform="translate(-1667.837 -538.818)" fill="#fff"/>
        <path id="Path_2027" data-name="Path 2027" d="M1684.038,1089.778h49.439q2.25-6.888,4.644-13.6l.022-.119,18.8-65.153-50.661-59.922C1697.214,993.62,1689.593,1039.852,1684.038,1089.778Z" transform="translate(-1563.506 -539.391)" fill="#cbe5c1"/>
        <path id="Path_2028" data-name="Path 2028" d="M1654.678,959.383l50.661,59.922,32.619-112.989-54.816-56.565C1672.743,883.26,1663.1,919.778,1654.678,959.383Z" transform="translate(-1511.904 -547.792)" fill="#cbe5c1"/>
        <path id="Path_2029" data-name="Path 2029" d="M1624.438,1089.222h41.018l48.662-56.532-27.431-75.008a558.3,558.3,0,0,0-28.153,49.179h-.022a575.941,575.941,0,0,0-29.408,68.64l-.022.119Q1626.7,1082.329,1624.438,1089.222Z" transform="translate(-1454.467 -538.835)" fill="#fff"/>
        <path id="Path_2030" data-name="Path 2030" d="M1625.078,858.028l54.816,56.565,32.885-113.974-47.95-50.587h-.022A1076.891,1076.891,0,0,0,1625.078,858.028Z" transform="translate(-1453.84 -556.068)" fill="#cbe5c1"/>
        <path id="Path_2031" data-name="Path 2031" d="M1693.286,1006.579l-18.8,65.153a575.926,575.926,0,0,1,29.408-68.64Z" transform="translate(-1499.851 -535.066)" fill="#fff"/>
        <path id="Path_2032" data-name="Path 2032" d="M1616.317,904.717,1583.7,1017.706l10.61-3.487h.022a558.243,558.243,0,0,1,28.153-49.179v-.011a576.258,576.258,0,0,1,65.6-83.932c1.766-1.852,3.544-3.693,5.311-5.523v-.022c.611-2.166,1.2-4.354,1.778-6.531l-78.347,36.226Z" transform="translate(-1390.263 -546.193)" fill="#cbe5c1"/>
        <path id="Path_2033" data-name="Path 2033" d="M1591.228,757.844h.022l47.95,50.587,37.607-130.295L1642.967,655.9A886.9,886.9,0,0,0,1591.228,757.844Z" transform="translate(-1380.261 -563.88)" fill="#cbe5c1"/>
        <path id="Path_2034" data-name="Path 2034" d="M1607.91,1026.942l-48.661,56.532h71.726l49.361-48.561Z" transform="translate(-1348.259 -533.087)" fill="#fff"/>
        <path id="Path_2035" data-name="Path 2035" d="M1598.463,798.979l-32.885,113.974.511.531,78.347-36.226c9.521-35.555,15.92-72.2,20.131-107.465Z" transform="translate(-1339.524 -554.428)" fill="#cbe5c1"/>
        <path id="Path_2036" data-name="Path 2036" d="M1560.768,964.1v.011l27.431,75.008,70.737-82.177-.878-.087-31.663-76.665-.022-.022A576.255,576.255,0,0,0,1560.768,964.1Z" transform="translate(-1328.548 -545.267)" fill="#fff"/>
        <path id="Path_2037" data-name="Path 2037" d="M1596.545,677.289l-37.607,130.295,66.1-29.187a1097.4,1097.4,0,0,0,7.377-112.3Z" transform="translate(-1299.999 -563.034)" fill="#cbe5c1"/>
        <path id="Path_2038" data-name="Path 2038" d="M1563.555,951.062l-70.737,82.177,72.426,7.971,10.288-10.115c24.164-25.4,45.207-49.753,63.516-72.874Z" transform="translate(-1233.168 -539.384)" fill="#fff"/>
        <path id="Path_2039" data-name="Path 2039" d="M1561.568,662.952l33.841,22.234,32.952-114.234C1627.661,571.634,1598.453,600.983,1561.568,662.952Z" transform="translate(-1298.862 -570.93)" fill="#cbe5c1"/>
        <path id="Path_2040" data-name="Path 2040" d="M1608.159,1034.3l-49.361,48.561q26.83-24.773,49.861-48.507Z" transform="translate(-1276.083 -532.476)" fill="#005561"/>
        <path id="Path_2041" data-name="Path 2041" d="M1591.74,570.954l-32.952,114.234L1594.662,674c1.011-60.94-2.911-103.068-2.911-103.068Z" transform="translate(-1262.242 -570.932)" fill="#cbe5c1"/>
        <path id="Path_2042" data-name="Path 2042" d="M1503.179,880.371c-1.766,1.83-3.544,3.671-5.311,5.523l.022.022,31.663,76.665.878.087,69.881-81.17-17.587-70.275a612.97,612.97,0,0,0-79.547,69.127Z" transform="translate(-1200.044 -550.99)" fill="#fff"/>
        <path id="Path_2043" data-name="Path 2043" d="M1512.089,876.112l-69.881,81.17,75.492,7.159a846.829,846.829,0,0,0,56.227-79.6Z" transform="translate(-1111.821 -545.604)" fill="#fff"/>
        <path id="Path_2044" data-name="Path 2044" d="M1549.988,1035.077l.5.054h.011q4.966-5.1,9.777-10.169Z" transform="translate(-1217.912 -533.251)" fill="#005561"/>
        <path id="Path_2045" data-name="Path 2045" d="M1433.318,815.4l17.587,70.275,67.037-77.856V807.8l4.677-46.915A629.641,629.641,0,0,0,1433.318,815.4Z" transform="translate(-1050.636 -555.168)" fill="#fff"/>
        <path id="Path_2046" data-name="Path 2046" d="M1470.075,804.222l-67.037,77.856,61.838,8.729c19.765-31.927,33.708-59.922,43.518-83.109Z" transform="translate(-1002.769 -551.571)" fill="#fff"/>
        <path id="Path_2047" data-name="Path 2047" d="M1382.448,809.649v.022l38.318,3.476c20-47.229,22.875-74.575,22.875-74.575l-.011.011Z" transform="translate(-915.142 -557.019)" fill="#fff"/>
        <path id="Path_2048" data-name="Path 2048" d="M1387.135,762.733l-4.677,46.915,61.182-71.066C1442.952,738.8,1420.71,745.946,1387.135,762.733Z" transform="translate(-915.152 -557.018)" fill="#fff"/>
      </g>
      <g id="Group_2611" data-name="Group 2611">
        <path id="Path_2049" data-name="Path 2049" d="M1608.659,1034.352q-23.081,23.718-49.861,48.507" transform="translate(-1276.083 -532.472)" fill="none" stroke="#005561" stroke-linejoin="round" stroke-width="4"/>
        <path id="Path_2050" data-name="Path 2050" d="M1578.361,738.572s-2.877,27.346-22.875,74.575c-9.81,23.187-23.753,51.182-43.518,83.109a846.837,846.837,0,0,1-56.227,79.6c-18.309,23.122-39.351,47.479-63.516,72.875q-4.8,5.068-9.777,10.169" transform="translate(-1049.861 -557.019)" fill="none" stroke="#005561" stroke-linejoin="round" stroke-width="4"/>
        <path id="Path_2051" data-name="Path 2051" d="M1382.458,886.378a612.968,612.968,0,0,1,79.547-69.128,629.641,629.641,0,0,1,89.3-54.518c33.574-16.786,55.816-23.934,56.505-24.151" transform="translate(-1079.323 -557.018)" fill="none" stroke="#005561" stroke-linejoin="round" stroke-width="4"/>
        <path id="Path_2052" data-name="Path 2052" d="M1585.3,964.527a576.241,576.241,0,0,1,65.6-83.932c1.766-1.852,3.544-3.693,5.311-5.523" transform="translate(-1353.078 -545.691)" fill="none" stroke="#005561" stroke-linejoin="round" stroke-width="4"/>
        <path id="Path_2053" data-name="Path 2053" d="M1649.128,1006.861a558.242,558.242,0,0,1,28.152-49.179" transform="translate(-1445.061 -538.835)" fill="none" stroke="#005561" stroke-linejoin="round" stroke-width="4"/>
        <path id="Path_2054" data-name="Path 2054" d="M1674.488,1071.732a575.926,575.926,0,0,1,29.408-68.64" transform="translate(-1499.851 -535.066)" fill="none" stroke="#005561" stroke-linejoin="round" stroke-width="4"/>
        <path id="Path_2055" data-name="Path 2055" d="M1700.978,1080.184q2.25-6.888,4.644-13.6" transform="translate(-1531.007 -529.797)" fill="none" stroke="#005561" stroke-linejoin="round" stroke-width="4"/>
        <path id="Path_2056" data-name="Path 2056" d="M1693.845,804.222l-67.037,77.856-69.881,81.17-70.737,82.178-48.661,56.532" transform="translate(-1226.538 -551.571)" fill="none" stroke="#005561" stroke-linejoin="round" stroke-width="4"/>
        <path id="Path_2057" data-name="Path 2057" d="M1443.641,738.572l-.011.011-61.182,71.066" transform="translate(-915.141 -557.019)" fill="none" stroke="#005561" stroke-linejoin="round" stroke-width="4"/>
        <path id="Path_2058" data-name="Path 2058" d="M1716.451,570.952,1683.5,685.186l-37.607,130.295-32.885,113.974-32.619,112.989-18.8,65.153-.022.119" transform="translate(-1386.952 -570.93)" fill="none" stroke="#005561" stroke-linejoin="round" stroke-width="4"/>
        <path id="Path_2059" data-name="Path 2059" d="M1628.669,666.905l-.167.043-35.874,11.187L1558.788,655.9" transform="translate(-1296.081 -563.88)" fill="none" stroke="#005561" stroke-linejoin="round" stroke-width="4"/>
        <path id="Path_2060" data-name="Path 2060" d="M1679.632,771.432l-66.1,29.187-47.95-50.587" transform="translate(-1354.588 -556.068)" fill="none" stroke="#005561" stroke-linejoin="round" stroke-width="4"/>
        <path id="Path_2061" data-name="Path 2061" d="M1717.372,870.621l-78.347,36.226-.511-.531L1583.7,849.752" transform="translate(-1412.459 -547.792)" fill="none" stroke="#005561" stroke-linejoin="round" stroke-width="4"/>
        <path id="Path_2062" data-name="Path 2062" d="M1674.468,950.982l50.661,59.922,10.61-3.487h.022" transform="translate(-1531.693 -539.391)" fill="none" stroke="#005561" stroke-linejoin="round" stroke-width="4"/>
        <path id="Path_2063" data-name="Path 2063" d="M1407.715,760.882l-4.677,46.915v.022l38.318,3.476" transform="translate(-935.731 -555.168)" fill="none" stroke="#005561" stroke-linejoin="round" stroke-width="4"/>
        <path id="Path_2064" data-name="Path 2064" d="M1521.632,890.226l-61.838-8.729-17.587-70.275" transform="translate(-1059.525 -550.99)" fill="none" stroke="#005561" stroke-linejoin="round" stroke-width="4"/>
        <path id="Path_2065" data-name="Path 2065" d="M1600.851,964.1l-75.492-7.159-.878-.087-31.663-76.665" transform="translate(-1194.971 -545.266)" fill="none" stroke="#005561" stroke-linejoin="round" stroke-width="4"/>
        <path id="Path_2066" data-name="Path 2066" d="M1659.155,1040.716h-.011l-.5-.054-72.426-7.971-27.431-75.008v-.011" transform="translate(-1326.567 -538.835)" fill="none" stroke="#005561" stroke-linejoin="round" stroke-width="4"/>
        <path id="Path_2067" data-name="Path 2067" d="M1720.971,1121.32H1558.788c5.555-49.926,13.176-96.159,22.242-138.8,8.421-39.605,18.065-76.124,28.464-109.631a1076.922,1076.922,0,0,1,39.729-108,886.918,886.918,0,0,1,51.739-101.942c36.885-61.969,66.093-91.318,66.793-92l.011-.022s3.922,42.128,2.911,103.068a1097.4,1097.4,0,0,1-7.377,112.3c-4.211,35.262-10.61,71.911-20.131,107.465-.578,2.177-1.167,4.365-1.778,6.53v.022" transform="translate(-1438.256 -570.932)" fill="none" stroke="#005561" stroke-linejoin="round" stroke-width="4"/>
        <path id="Path_2068" data-name="Path 2068" d="M1760.1,906.315c1.7,12.671,13.621,21.584,26.608,19.916s22.131-13.288,20.42-25.949-13.621-21.573-26.608-19.905S1758.388,893.655,1760.1,906.315Z" transform="translate(-1698.172 -545.267)" fill="none" stroke="#005561" stroke-linejoin="round" stroke-width="4"/>
        <line id="Line_104" data-name="Line 104" x2="4.844" y2="60.095" transform="translate(97.501 492.285)" fill="none" stroke="#005561" stroke-linejoin="round" stroke-width="4"/>
        <line id="Line_105" data-name="Line 105" x2="3.066" y2="38.1" transform="translate(88.536 380.964)" fill="none" stroke="#005561" stroke-linejoin="round" stroke-width="4"/>
        <path id="Path_2069" data-name="Path 2069" d="M1851.04,958.939a55.4,55.4,0,0,0-36.763-13.8c-30.286,0-54.839,23.934-54.839,53.446s24.553,53.457,54.839,53.457a56.1,56.1,0,0,0,15.721-2.231,54.853,54.853,0,0,0,26.942-17.653,52.482,52.482,0,0,0-5.9-73.221Z" transform="translate(-1759.438 -539.875)" fill="none" stroke="#005561" stroke-linejoin="round" stroke-width="4"/>
        <path id="Path_2070" data-name="Path 2070" d="M1781.248,1041.782v.011l14.876,42.443" transform="translate(-1710.688 -531.855)" fill="none" stroke="#005561" stroke-linejoin="round" stroke-width="4"/>
      </g>
    </g>
  </g>
</svg>
