<svg xmlns="http://www.w3.org/2000/svg" xmlns:xlink="http://www.w3.org/1999/xlink" width="393.649" height="364.438" viewBox="0 0 393.649 364.438">
  <defs>
    <clipPath id="clip-path">
      <rect id="Rectangle_2850" data-name="Rectangle 2850" width="393.649" height="364.438" transform="translate(91.792 711.008)" fill="none"/>
    </clipPath>
  </defs>
  <g id="Group_2710" data-name="Group 2710" transform="translate(-91.792 -711.008)">
    <g id="Group_2709" data-name="Group 2709" clip-path="url(#clip-path)">
      <g id="PLANTS">
        <g id="Group_2707" data-name="Group 2707">
          <path id="Path_2502" data-name="Path 2502" d="M339.45,998.685c-4.943-2.915-10.183-8.238-13.967-17.889.909-7.63,1.846-14.814,2.792-21.49,1.715-12.187,3.524-23.36,5.276-33.319a1010.309,1010.309,0,0,1,38.867-96.446c22.591-48.661,41.055-78.408,41.834-79.652,7.53-12.078,22.276-14.953,32.95-6.447s13.215,25.2,5.685,37.279c-.167.259-17.8,28.743-39.015,74.568a937.675,937.675,0,0,0-45.859,119.737c-4.823,9-9.6,18.107-14.189,27.012l-.084-.05A23.094,23.094,0,0,1,339.45,998.685Z" fill="#fff"/>
          <path id="Path_2503" data-name="Path 2503" d="M368.013,975.026c17.453-32.593,35.5-63.734,47.38-78.06,8.931-10.765,23.249-12.9,33.293-3.462s11.407,26.3,3.06,37.657c-27.756,37.756-60.882,104.435-77.52,155.314H318.565c.046-4.865.13-9.69.25-14.446h.01l.6.02c5.8-12.844,19.049-40.234,34.4-70.011C358.414,993.133,363.19,984.03,368.013,975.026Z" fill="#cbe5c1"/>
          <path id="Path_2504" data-name="Path 2504" d="M339.45,998.685a23.094,23.094,0,0,0,14.29,3.3l.084.05c-15.348,29.777-28.6,57.167-34.4,70.011l-.6-.02c.862-34.036,3.561-65.236,6.658-91.233C329.267,990.447,334.507,995.77,339.45,998.685Z" fill="#005561"/>
          <path id="Path_2505" data-name="Path 2505" d="M288.332,909.024c5.537-30.384,10.331-48.71,10.609-49.765,3.738-14.148,16.907-22.206,29.417-17.978s19.623,19.122,15.895,33.28c-.065.238-5.119,19.629-10.7,51.426-1.752,9.959-3.561,21.132-5.276,33.319-.946,6.676-1.883,13.86-2.792,21.49-3.1,26-5.8,57.2-6.658,91.233h-.01c-.12,4.756-.2,9.581-.25,14.446H267.1l-.018-.02c1.938-19.8,6.361-63.514,8.921-88.447.937-9.083,1.623-15.679,1.855-17.709,1.233-10.984,2.559-21.182,3.876-30.454C283.89,934.6,286.171,920.893,288.332,909.024Z" fill="#fff"/>
          <path id="Path_2506" data-name="Path 2506" d="M266.168,778.005l22.164,5.93V909.024c-2.161,11.869-4.442,25.579-6.6,40.821-1.317,9.272-2.643,19.47-3.876,30.454-.232,2.03-.918,8.626-1.855,17.709-3.032-6.4-5.759-12.118-8.207-17.212-3.274-6.825-6.047-12.515-8.365-17.221l-18.372-3.781V771.28Z" fill="#fff"/>
          <path id="Path_2507" data-name="Path 2507" d="M267.791,980.8l-21.432,9.522-4.924-11.73c10.711-11,17.991-15.013,17.991-15.013C261.744,968.281,264.517,973.971,267.791,980.8Z" fill="#005561"/>
          <path id="Path_2508" data-name="Path 2508" d="M241.054,959.794l18.372,3.781s-7.28,4.009-17.991,15.013a178.764,178.764,0,0,0-18,21.908c-2.216,2.706-4.535,5.641-6.89,8.8-12.724,17.123-29.556,44.861-37.439,79.792-2.726,12.088-12.343,20.137-22.888,20.127a21.486,21.486,0,0,1-5.87-.826c-12.649-3.651-20.282-18.217-17.054-32.534,13.5-59.813,49.828-102.524,69.646-123.915l27.6,5.681Z" fill="#fff"/>
          <path id="Path_2509" data-name="Path 2509" d="M241.435,978.588l4.924,11.73L223.434,1000.5A178.764,178.764,0,0,1,241.435,978.588Z" fill="#005561"/>
          <path id="Path_2510" data-name="Path 2510" d="M241.054,923.54v36.254l-10.516-2.169c-11.231-29.748-43.253-81.95-56.339-97.5l22.424-8.407C207.947,866.581,227.19,893.8,241.054,923.54Z" fill="#cbe5c1"/>
          <path id="Path_2511" data-name="Path 2511" d="M241.054,870.183V923.54c-13.864-29.738-33.107-56.959-44.431-71.822l26.338-9.87A294.335,294.335,0,0,1,241.054,870.183Z" fill="#cbe5c1"/>
          <path id="Path_2512" data-name="Path 2512" d="M241.054,771.28v67.892c-6.927.477-22.869-13.481-13.512-36.115S241.054,771.28,241.054,771.28Z" fill="#005561"/>
          <path id="Path_2513" data-name="Path 2513" d="M222.961,841.848l-26.338,9.87c-5.666-7.462-9.348-11.81-9.348-11.81h-.009c9.181-15.9,12.659-26.4,12.659-26.4,5.119,5.582,11.064,12.506,17.3,20.625v.01Q220.068,837.833,222.961,841.848Z" fill="#005561"/>
          <path id="Path_2514" data-name="Path 2514" d="M171.668,810.459l28.257,3.054s-3.478,10.5-12.659,26.4c-3.487,6.049-7.8,12.884-13.067,20.217A227.827,227.827,0,0,1,151.655,888.6c-9.562,10.048-24.52,9.421-33.414-1.4-8.875-10.825-8.328-27.738,1.243-37.787,5.6-5.929,21.58-25,27.812-41.577Z" fill="#cbe5c1"/>
          <path id="Path_2515" data-name="Path 2515" d="M196.623,851.718,174.2,860.125c5.268-7.333,9.58-14.168,13.067-20.217h.009S190.957,844.256,196.623,851.718Z" fill="#005561"/>
        </g>
        <g id="Group_2708" data-name="Group 2708">
          <path id="Path_2516" data-name="Path 2516" d="M367.948,975.205l.009-.01c.019-.06.037-.109.056-.169a937.675,937.675,0,0,1,45.859-119.737c21.218-45.825,38.848-74.309,39.015-74.568,7.53-12.078,4.98-28.762-5.685-37.279s-25.42-5.631-32.95,6.447c-.779,1.244-19.243,30.991-41.834,79.652a1010.309,1010.309,0,0,0-38.867,96.446c-.009.02-.009.03-.018.05" fill="none" stroke="#005561" stroke-linecap="round" stroke-linejoin="round" stroke-width="4"/>
          <path id="Path_2517" data-name="Path 2517" d="M319.427,1072.049c5.8-12.844,19.049-40.234,34.4-70.011,4.59-8.905,9.366-18.008,14.189-27.012,17.453-32.593,35.5-63.734,47.38-78.06,8.931-10.765,23.249-12.9,33.293-3.462s11.407,26.3,3.06,37.657c-27.756,37.756-60.882,104.435-77.52,155.314H267.1l-.018-.02-13.169-14.406c-8.727-18.684-25.262-60.789-30.474-71.553-2.216,2.706-4.535,5.641-6.89,8.8-12.724,17.123-29.556,44.861-37.439,79.792-2.726,12.088-12.343,20.137-22.888,20.127a21.486,21.486,0,0,1-5.87-.826c-12.649-3.651-20.282-18.217-17.054-32.534,13.5-59.813,49.828-102.524,69.646-123.915" fill="none" stroke="#005561" stroke-linecap="round" stroke-linejoin="round" stroke-width="4"/>
          <path id="Path_2518" data-name="Path 2518" d="M433.032,915.033c-33.627,51.039-83.919,148.36-83.919,148.36" fill="none" stroke="#005561" stroke-linecap="round" stroke-linejoin="round" stroke-width="4"/>
          <path id="Path_2519" data-name="Path 2519" d="M259.426,963.575c2.318,4.706,5.091,10.4,8.365,17.221,2.448,5.094,5.175,10.815,8.207,17.212.009,0,.009.01.009.01" fill="none" stroke="#005561" stroke-linecap="round" stroke-linejoin="round" stroke-width="4"/>
          <path id="Path_2520" data-name="Path 2520" d="M202.939,951.944l27.6,5.681,10.516,2.169,18.372,3.781s-7.28,4.009-17.991,15.013a178.764,178.764,0,0,0-18,21.908l22.925-10.178,21.432-9.522" fill="none" stroke="#005561" stroke-linecap="round" stroke-linejoin="round" stroke-width="4"/>
          <path id="Path_2521" data-name="Path 2521" d="M266.168,1095.917c.13-1.453.445-4.8.909-9.462,1.938-19.8,6.361-63.514,8.921-88.447.937-9.083,1.623-15.679,1.855-17.709,1.233-10.984,2.559-21.182,3.876-30.454,2.161-15.242,4.442-28.952,6.6-40.821,5.537-30.384,10.331-48.71,10.609-49.765,3.738-14.148,16.907-22.206,29.417-17.978s19.623,19.122,15.895,33.28c-.065.238-5.119,19.629-10.7,51.426-1.752,9.959-3.561,21.132-5.276,33.319-.946,6.676-1.883,13.86-2.792,21.49-3.1,26-5.8,57.2-6.658,91.233h-.01c-.12,4.756-.2,9.581-.25,14.446-.009,1.174-.019,2.358-.028,3.542,0,.478-.009.945-.009,1.423" fill="none" stroke="#005561" stroke-linecap="round" stroke-linejoin="round" stroke-width="4"/>
          <path id="Path_2522" data-name="Path 2522" d="M291,1083.272c8.94-122.493,28.424-213.507,28.424-213.507" fill="none" stroke="#005561" stroke-linecap="round" stroke-linejoin="round" stroke-width="4"/>
          <path id="Path_2523" data-name="Path 2523" d="M288.332,783.935v126" fill="none" stroke="#005561" stroke-linecap="round" stroke-linejoin="round" stroke-width="4"/>
          <path id="Path_2524" data-name="Path 2524" d="M241.054,771.28V959.794" fill="none" stroke="#005561" stroke-linecap="round" stroke-linejoin="round" stroke-width="4"/>
          <path id="Path_2525" data-name="Path 2525" d="M288.332,783.935l-22.164-5.93-25.114-6.725s-4.145,9.153-13.512,31.777,6.585,36.592,13.512,36.115" fill="none" stroke="#005561" stroke-linecap="round" stroke-linejoin="round" stroke-width="4"/>
          <line id="Line_155" data-name="Line 155" y1="179.759" transform="translate(266.168 778.005)" fill="none" stroke="#005561" stroke-linecap="round" stroke-linejoin="round" stroke-width="4"/>
          <path id="Path_2526" data-name="Path 2526" d="M199.925,813.513c5.119,5.582,11.064,12.506,17.3,20.625v.01q2.838,3.685,5.731,7.7a294.335,294.335,0,0,1,18.093,28.335" fill="none" stroke="#005561" stroke-linecap="round" stroke-linejoin="round" stroke-width="4"/>
          <path id="Path_2527" data-name="Path 2527" d="M230.538,957.625c-11.231-29.748-43.253-81.95-56.339-97.5A227.827,227.827,0,0,1,151.655,888.6c-9.562,10.048-24.52,9.421-33.414-1.4-8.875-10.825-8.328-27.738,1.243-37.787,5.6-5.929,21.58-25,27.812-41.577" fill="none" stroke="#005561" stroke-linecap="round" stroke-linejoin="round" stroke-width="4"/>
          <path id="Path_2528" data-name="Path 2528" d="M174.2,860.125c5.268-7.333,9.58-14.168,13.067-20.217,9.181-15.9,12.659-26.4,12.659-26.4l-28.257-3.054L147.3,807.832" fill="none" stroke="#005561" stroke-linecap="round" stroke-linejoin="round" stroke-width="4"/>
          <path id="Path_2529" data-name="Path 2529" d="M171.668,810.459c-10.582,27.887-33.572,53.725-33.572,53.725" fill="none" stroke="#005561" stroke-linecap="round" stroke-linejoin="round" stroke-width="4"/>
          <path id="Path_2530" data-name="Path 2530" d="M187.275,839.908s3.682,4.348,9.348,11.81c11.324,14.863,30.567,42.084,44.431,71.822" fill="none" stroke="#005561" stroke-linecap="round" stroke-linejoin="round" stroke-width="4"/>
          <path id="Path_2531" data-name="Path 2531" d="M266.168,1037.436l-19.809-47.119-4.924-11.73" fill="none" stroke="#005561" stroke-linecap="round" stroke-linejoin="round" stroke-width="4"/>
          <path id="Path_2532" data-name="Path 2532" d="M229.4,957.764c-55.94,42.732-72.54,116.852-72.54,116.852" fill="none" stroke="#005561" stroke-linecap="round" stroke-linejoin="round" stroke-width="4"/>
          <path id="Path_2533" data-name="Path 2533" d="M435.517,766.017c-42.585,69.752-73.476,149.424-96.067,232.668q-2.7,9.924-5.24,19.908" fill="none" stroke="#005561" stroke-linecap="round" stroke-linejoin="round" stroke-width="4"/>
          <path id="Path_2534" data-name="Path 2534" d="M222.961,841.848l-26.338,9.869L174.2,860.125" fill="none" stroke="#005561" stroke-linecap="round" stroke-linejoin="round" stroke-width="4"/>
          <path id="Path_2535" data-name="Path 2535" d="M325.483,980.8c3.784,9.651,9.024,14.974,13.967,17.889a23.094,23.094,0,0,0,14.29,3.3" fill="none" stroke="#005561" stroke-linecap="round" stroke-linejoin="round" stroke-width="4"/>
        </g>
      </g>
    </g>
  </g>
</svg>
