<svg xmlns="http://www.w3.org/2000/svg" width="552.152" height="740.236" viewBox="0 0 552.152 740.236">
  <g id="Group_2626" data-name="Group 2626" transform="translate(1.999 2.054)">
    <path id="Path_2114" data-name="Path 2114" d="M573.746,432.368c-19.5.325-28.784-2.166-46.426-10.832S484.3,398.014,460.466,387.8s-53.854-17.951-73.043-24.141-52.616-36.213-52.616-13.928,13,39.736,1.238,42.461-13.308,16.964.619,35.224,25.689,48.9,16.714,52.617-4.643,26,16.4,43.021,39.926,42.094,45.807,63.759S439.11,632.62,452.728,648.4s-2.785,19.189-14.237,4.024-38.069-39-27.236-2.476,30.641,70.567,41.473,93.781,24.452,21.975,28.166,32.808,18.88,34.664,34.355,37.141,7.118,27.236,12.071,40.855,3.1,16.4,33.117,8.047,30.641.309,49.521,8.976,34.974,21.666,37.76-1.548,10.833-30.022,16.4-43.641,18.571-1.856,26.309-11.142,21.046-15.475,15.785-38.688-3.095-20.428,5.881-22.285,12.689-25.379,24.76-17.951,20.428,25.38,34.974-1.547-1.238-31.261,7.429-46.427,12.38-27.236,15.785-50.45S802.78,599.812,820.731,606s19.19-3.714,14.856-32.19,3.095-44.821-1.547-73.789-2.477-39.49-.929-64.251,19.5-27.223-8.356-54.312-36.522-28.946-42.094-3.1-26.927-12.534-37.45-5.107S732.832,404.868,702.5,395.1s-41.784,11.273-54.474,13.131S592.316,432.059,573.746,432.368Z" transform="translate(-301.494 -146.919)" fill="#fff" stroke="#005561" stroke-miterlimit="10" stroke-width="4"/>
    <path id="Path_2115" data-name="Path 2115" d="M743.87,736.46c-17.023-.237-35.458.508-25.214,15.479s5.719,29.549,28.665,25.215S763.963,736.739,743.87,736.46Z" transform="translate(-278.61 -123.692)" fill="#fff" stroke="#005561" stroke-miterlimit="10" stroke-width="4"/>
    <path id="Path_2116" data-name="Path 2116" d="M328.119,159.946c-14.033-6.1-26.833-1.183-25.059,35.458s10.637,65.257,21.866,64.246,30.139-21.1,23.047-47.107S338.995,164.673,328.119,159.946Z" transform="translate(-302.895 -157.737)" fill="#fff" stroke="#005561" stroke-miterlimit="10" stroke-width="4"/>
    <path id="Path_2117" data-name="Path 2117" d="M794.576,265.992c-30.156,1.471-34.867-20.684-43.141-48.46s-4.137-50.233,32.5-18.912S818.806,264.81,794.576,265.992Z" transform="translate(-276.72 -156.226)" fill="#fff" stroke="#005561" stroke-miterlimit="10" stroke-width="4"/>
    <path id="Path_2118" data-name="Path 2118" d="M794.5,275.425c-19.416,5.959-36.787,18.885-15.734,26.285s47.055,7.552,44.692-8.185S808.109,271.249,794.5,275.425Z" transform="translate(-275.465 -150.886)" fill="#fff" stroke="#005561" stroke-miterlimit="10" stroke-width="4"/>
  </g>
</svg>
