<svg xmlns="http://www.w3.org/2000/svg" xmlns:xlink="http://www.w3.org/1999/xlink" width="272.579" height="382.874" viewBox="0 0 272.579 382.874">
  <defs>
    <clipPath id="clip-path">
      <rect id="Rectangle_2851" data-name="Rectangle 2851" width="272.579" height="382.874" fill="none"/>
    </clipPath>
  </defs>
  <g id="Plant_4" data-name="Plant 4" transform="translate(-3542.788 -576.659)">
    <g id="Group_2723" data-name="Group 2723" transform="translate(3542.788 576.659)">
      <g id="Group_2722" data-name="Group 2722" clip-path="url(#clip-path)">
        <g id="Group_2721" data-name="Group 2721" transform="translate(8.277 7.44)">
          <g id="Group_2715" data-name="Group 2715" transform="translate(122.015)">
            <g id="Group_2714" data-name="Group 2714">
              <g id="Group_2713" data-name="Group 2713">
                <g id="Group_2711" data-name="Group 2711" transform="translate(0 0)">
                  <path id="Path_2536" data-name="Path 2536" d="M3741.972,1128.309q2.019,6.009,4.234,12.087l4.81-3.718c1-.769,2.012-1.553,3.035-2.34l20.431-15.793,2.654-65.909-59.9-38.432a503,503,0,0,0,7.459,49.778l-.012.013a521.482,521.482,0,0,0,17.241,64.21Z" transform="translate(-3714.728 -688.557)" fill="#fff"/>
                  <path id="Path_2537" data-name="Path 2537" d="M3716.439,984.614l.013.013,59.9,38.432,3.864-95.793-.655.406-63.727-37.358h-.026A513.3,513.3,0,0,0,3716.439,984.614Z" transform="translate(-3713.941 -658.98)" fill="#fff"/>
                  <path id="Path_2538" data-name="Path 2538" d="M3795.087,1054.289l-2.654,65.909,49.451-38.209q4.956-31.811,7.861-60.861Z" transform="translate(-3732.68 -690.21)" fill="#fff"/>
                  <path id="Path_2539" data-name="Path 2539" d="M3716.39,859.573h.026l63.726,37.358.656-.406,3.81-94.63-50.521-40.345a539.29,539.29,0,0,0-17.062,91.279l0,.008Q3716.7,856.189,3716.39,859.573Z" transform="translate(-3714.525 -628.24)" fill="#fff"/>
                  <path id="Path_2540" data-name="Path 2540" d="M3799.784,927.831l-3.865,95.793,54.659-33.161.012-.012q.628-6.254,1.183-12.4c2.778-30.835,3.975-59.267,3.962-85.373Z" transform="translate(-3733.512 -659.545)" fill="#fff"/>
                  <path id="Path_2541" data-name="Path 2541" d="M3804.806,806.151l-3.81,94.63,55.951-35.151a755.212,755.212,0,0,0-4.739-86.253Z" transform="translate(-3734.724 -632.496)" fill="#fff"/>
                  <path id="Path_2542" data-name="Path 2542" d="M3739.637,734.545l50.521,40.345,3.674-90.771-.013-.013-22.41-35.673A546.9,546.9,0,0,0,3739.637,734.545Z" transform="translate(-3720.076 -601.235)" fill="#fff"/>
                  <path id="Path_2543" data-name="Path 2543" d="M3809.676,689.677,3806,780.448l47.4-26.773A550.273,550.273,0,0,0,3838,671.715Z" transform="translate(-3735.919 -606.793)" fill="#fff"/>
                  <path id="Path_2544" data-name="Path 2544" d="M3781.374,633.631l22.41,35.673,3.346-82.871S3795.568,603.4,3781.374,633.631Z" transform="translate(-3730.04 -586.433)" fill="#fff"/>
                  <path id="Path_2545" data-name="Path 2545" d="M3814.157,586.433l-3.346,82.871.013.013,28.32-17.962C3827.113,607.305,3814.157,586.433,3814.157,586.433Z" transform="translate(-3737.067 -586.433)" fill="#fff"/>
                </g>
                <g id="Group_2712" data-name="Group 2712">
                  <line id="Line_156" data-name="Line 156" x2="0.044" y2="0.103" transform="translate(27.199 439.649)" fill="none" stroke="#005561" stroke-miterlimit="10" stroke-width="4"/>
                  <line id="Line_157" data-name="Line 157" x1="0.013" y2="0.013" transform="translate(9.958 375.425)" fill="none" stroke="#005561" stroke-miterlimit="10" stroke-width="4"/>
                  <path id="Path_2546" data-name="Path 2546" d="M3761.609,1174.352c1-.769,2.011-1.553,3.034-2.34" transform="translate(-3725.321 -726.231)" fill="none" stroke="#005561" stroke-miterlimit="10" stroke-width="4"/>
                  <line id="Line_158" data-name="Line 158" x2="0.003" y2="0.008" transform="translate(2.5 224.59)" fill="none" stroke="#005561" stroke-miterlimit="10" stroke-width="4"/>
                  <line id="Line_159" data-name="Line 159" x2="0.025" transform="translate(1.865 231.333)" fill="none" stroke="#005561" stroke-miterlimit="10" stroke-width="4"/>
                  <path id="Path_2547" data-name="Path 2547" d="M3717.225,811.023a539.29,539.29,0,0,1,17.062-91.279,546.9,546.9,0,0,1,31.773-86.112c14.194-30.236,25.756-47.2,25.756-47.2s12.956,20.872,24.986,64.922a550.278,550.278,0,0,1,15.408,81.96,755.324,755.324,0,0,1,4.739,86.253c.013,26.106-1.184,54.538-3.962,85.373q-.552,6.139-1.183,12.4" transform="translate(-3714.725 -586.433)" fill="none" stroke="#005561" stroke-linejoin="round" stroke-width="4"/>
                  <path id="Path_2548" data-name="Path 2548" d="M3716.439,982.5a513.3,513.3,0,0,1-.634-94.3q.313-3.387.638-6.736" transform="translate(-3713.941 -656.867)" fill="none" stroke="#005561" stroke-linejoin="round" stroke-width="4"/>
                  <path id="Path_2549" data-name="Path 2549" d="M3724.7,1063.982a503,503,0,0,1-7.459-49.778" transform="translate(-3714.728 -688.557)" fill="none" stroke="#005561" stroke-linejoin="round" stroke-width="4"/>
                  <path id="Path_2550" data-name="Path 2550" d="M3744.263,1143.821a521.507,521.507,0,0,1-17.242-64.211" transform="translate(-3717.063 -704.172)" fill="none" stroke="#005561" stroke-linejoin="round" stroke-width="4"/>
                  <path id="Path_2551" data-name="Path 2551" d="M3749.728,1129.962q2.02,6.008,4.234,12.086l4.811-3.718,3.034-2.34,20.431-15.793,49.451-38.209q4.956-31.811,7.862-60.861" transform="translate(-3722.485 -690.21)" fill="none" stroke="#005561" stroke-linejoin="round" stroke-width="4"/>
                  <path id="Path_2552" data-name="Path 2552" d="M3806.436,695.31l-3.674,90.771-3.81,94.63-3.864,95.793-2.655,65.908" transform="translate(-3732.679 -612.426)" fill="none" stroke="#005561" stroke-linejoin="round" stroke-width="4"/>
                  <line id="Line_160" data-name="Line 160" x1="3.347" y2="82.872" transform="translate(73.744)" fill="none" stroke="#005561" stroke-linejoin="round" stroke-width="4"/>
                  <path id="Path_2553" data-name="Path 2553" d="M3781.374,648.433l22.409,35.673.013.012,28.32-17.962" transform="translate(-3730.04 -601.234)" fill="none" stroke="#005561" stroke-linejoin="round" stroke-width="4"/>
                  <path id="Path_2554" data-name="Path 2554" d="M3837.56,775.122l-47.4,26.773-50.521-40.345" transform="translate(-3720.076 -628.24)" fill="none" stroke="#005561" stroke-linejoin="round" stroke-width="4"/>
                  <path id="Path_2555" data-name="Path 2555" d="M3836.756,892.115l-55.951,35.151-.656.405-63.726-37.358" transform="translate(-3714.533 -658.98)" fill="none" stroke="#005561" stroke-linejoin="round" stroke-width="4"/>
                  <path id="Path_2556" data-name="Path 2556" d="M3831.8,1019.458l-.013.013-54.659,33.161-59.9-38.432-.013-.012" transform="translate(-3714.724 -688.553)" fill="none" stroke="#005561" stroke-linejoin="round" stroke-width="4"/>
                </g>
              </g>
            </g>
          </g>
          <g id="Group_2720" data-name="Group 2720" transform="translate(0 185.255)">
            <g id="Group_2719" data-name="Group 2719">
              <g id="Group_2718" data-name="Group 2718">
                <g id="Group_2716" data-name="Group 2716" transform="translate(0)">
                  <path id="Path_2557" data-name="Path 2557" d="M3553.67,829.793l-.008-.008s1.745,17.025,13.879,46.433l23.26-2.17v-.008Z" transform="translate(-3553.662 -829.785)" fill="#cbe5c1"/>
                  <path id="Path_2558" data-name="Path 2558" d="M3553.672,829.8l37.132,44.248-2.842-29.208C3567.583,834.382,3554.088,829.924,3553.672,829.8Z" transform="translate(-3553.664 -829.788)" fill="#cbe5c1"/>
                  <path id="Path_2559" data-name="Path 2559" d="M3595.154,887.93l-23.26,2.17a383.759,383.759,0,0,0,26.414,51.739l37.524-5.435Z" transform="translate(-3558.015 -843.666)" fill="#cbe5c1"/>
                  <path id="Path_2560" data-name="Path 2560" d="M3598.715,849.552l2.842,29.208v.008l40.679,48.474,10.67-43.752A380.226,380.226,0,0,0,3598.715,849.552Z" transform="translate(-3564.417 -834.504)" fill="#cbe5c1"/>
                  <path id="Path_2561" data-name="Path 2561" d="M3644.116,951.606l-37.524,5.435a523.78,523.78,0,0,0,34.122,49.555l45.809-4.45Z" transform="translate(-3566.298 -858.868)" fill="#cbe5c1"/>
                  <path id="Path_2562" data-name="Path 2562" d="M3697.224,1017.995l-45.809,4.45c11.11,14.4,23.885,29.567,38.549,45.376,1.937,2.1,3.922,4.211,5.931,6.332h.008l44.255-4.995Z" transform="translate(-3576.999 -874.717)" fill="#cbe5c1"/>
                  <path id="Path_2563" data-name="Path 2563" d="M3666.554,894.134l-10.67,43.752,42.407,50.539.536-.056,19.218-47.73.009-.008q-1.609-1.742-3.218-3.443v-.016A374.661,374.661,0,0,0,3666.554,894.134Z" transform="translate(-3578.066 -845.147)" fill="#cbe5c1"/>
                  <path id="Path_2564" data-name="Path 2564" d="M3754.111,1085.2l-44.256,4.995q14,14.768,30.256,30.2h43.536Z" transform="translate(-3590.951 -890.762)" fill="#fff"/>
                  <path id="Path_2565" data-name="Path 2565" d="M3711.59,1003.007l42.935,51.163,16.642-46.7v-.008a356.741,356.741,0,0,0-39.814-52.244l-.008.008-19.218,47.73Z" transform="translate(-3591.365 -859.729)" fill="#cbe5c1"/>
                  <path id="Path_2566" data-name="Path 2566" d="M3784.63,1023.851l-16.641,46.705,29.536,35.2h24.885c-.9-2.858-1.849-5.684-2.809-8.469l-.025-.072a362.962,362.962,0,0,0-17.841-42.743h-.016A349.665,349.665,0,0,0,3784.63,1023.851Z" transform="translate(-3604.83 -876.115)" fill="#cbe5c1"/>
                </g>
                <g id="Group_2717" data-name="Group 2717">
                  <line id="Line_161" data-name="Line 161" x2="0.024" y2="0.072" transform="translate(214.748 221.095)" fill="none" stroke="#005561" stroke-miterlimit="10" stroke-width="4"/>
                  <line id="Line_162" data-name="Line 162" x2="0.016" transform="translate(196.89 178.352)" fill="none" stroke="#005561" stroke-miterlimit="10" stroke-width="4"/>
                  <line id="Line_163" data-name="Line 163" y2="0.016" transform="translate(136.77 92.026)" fill="none" stroke="#005561" stroke-miterlimit="10" stroke-width="4"/>
                  <line id="Line_164" data-name="Line 164" x1="0.008" y2="0.008" transform="translate(139.98 95.484)" fill="none" stroke="#005561" stroke-miterlimit="10" stroke-width="4"/>
                  <path id="Path_2567" data-name="Path 2567" d="M3553.662,829.785s1.745,17.025,13.879,46.433a383.712,383.712,0,0,0,26.415,51.739,523.689,523.689,0,0,0,34.122,49.555c11.11,14.4,23.885,29.568,38.549,45.376,1.937,2.1,3.922,4.211,5.931,6.331" transform="translate(-3553.662 -829.785)" fill="none" stroke="#005561" stroke-linejoin="round" stroke-width="4"/>
                  <path id="Path_2568" data-name="Path 2568" d="M3690.434,921.813a374.64,374.64,0,0,0-48.282-43.039,380.265,380.265,0,0,0-54.19-33.939c-20.379-10.454-33.874-14.912-34.29-15.039" transform="translate(-3553.664 -829.788)" fill="none" stroke="#005561" stroke-linejoin="round" stroke-width="4"/>
                  <path id="Path_2569" data-name="Path 2569" d="M3776.355,1006.377a356.771,356.771,0,0,0-39.813-52.244q-1.61-1.742-3.219-3.443" transform="translate(-3596.552 -858.649)" fill="none" stroke="#005561" stroke-linejoin="round" stroke-width="4"/>
                  <path id="Path_2570" data-name="Path 2570" d="M3806.938,1054.468a349.54,349.54,0,0,0-17.089-30.617" transform="translate(-3610.047 -876.115)" fill="none" stroke="#005561" stroke-linejoin="round" stroke-width="4"/>
                  <path id="Path_2571" data-name="Path 2571" d="M3830.16,1106.812a362.9,362.9,0,0,0-17.842-42.743" transform="translate(-3615.412 -885.717)" fill="none" stroke="#005561" stroke-linejoin="round" stroke-width="4"/>
                  <path id="Path_2572" data-name="Path 2572" d="M3805.723,1113.5c.96,2.786,1.9,5.611,2.809,8.469h-68.421q-16.28-15.417-30.256-30.2" transform="translate(-3590.95 -892.329)" fill="none" stroke="#005561" stroke-linejoin="round" stroke-width="4"/>
                  <path id="Path_2573" data-name="Path 2573" d="M3602.449,887.93l40.678,48.474,42.407,50.539,42.935,51.164L3758,1073.3" transform="translate(-3565.309 -843.666)" fill="none" stroke="#005561" stroke-linejoin="round" stroke-width="4"/>
                  <path id="Path_2574" data-name="Path 2574" d="M3553.662,829.785l.008.008,37.132,44.248" transform="translate(-3553.662 -829.785)" fill="none" stroke="#005561" stroke-linejoin="round" stroke-width="4"/>
                  <path id="Path_2575" data-name="Path 2575" d="M3592.313,849.552l2.842,29.208v.008l-23.261,2.169" transform="translate(-3558.014 -834.504)" fill="none" stroke="#005561" stroke-linejoin="round" stroke-width="4"/>
                  <path id="Path_2576" data-name="Path 2576" d="M3606.592,943.32l37.524-5.435,10.669-43.751" transform="translate(-3566.298 -845.147)" fill="none" stroke="#005561" stroke-linejoin="round" stroke-width="4"/>
                  <path id="Path_2577" data-name="Path 2577" d="M3651.415,1007.459l45.809-4.45.536-.056,19.219-47.73" transform="translate(-3576.999 -859.732)" fill="none" stroke="#005561" stroke-linejoin="round" stroke-width="4"/>
                  <path id="Path_2578" data-name="Path 2578" d="M3709.844,1075.549h.008l44.255-4.995,16.641-46.705v-.008" transform="translate(-3590.948 -876.113)" fill="none" stroke="#005561" stroke-linejoin="round" stroke-width="4"/>
                </g>
              </g>
            </g>
          </g>
        </g>
      </g>
    </g>
  </g>
</svg>
