<svg id="Group_2959" data-name="Group 2959" xmlns="http://www.w3.org/2000/svg" xmlns:xlink="http://www.w3.org/1999/xlink" width="767.917" height="1014.23" viewBox="0 0 767.917 1014.23">
  <defs>
    <clipPath id="clip-path">
      <rect id="Rectangle_3100" data-name="Rectangle 3100" width="767.917" height="1014.23" fill="none"/>
    </clipPath>
    <clipPath id="clip-path-2">
      <rect id="Rectangle_3099" data-name="Rectangle 3099" width="763.917" height="1010.23" transform="translate(2 2)" fill="none"/>
    </clipPath>
  </defs>
  <g id="Group_3254" data-name="Group 3254">
    <g id="Group_3253" data-name="Group 3253">
      <g id="Group_3252" data-name="Group 3252">
        <g id="Group_3251" data-name="Group 3251">
          <g id="Group_2956" data-name="Group 2956">
            <g id="Group_2955" data-name="Group 2955" clip-path="url(#clip-path)">
              <g id="Group_2954" data-name="Group 2954">
                <g id="Group_2953" data-name="Group 2953" clip-path="url(#clip-path-2)">
                  <g id="Group_2952" data-name="Group 2952">
                    <g id="Group_2951" data-name="Group 2951" clip-path="url(#clip-path-2)">
                      <path id="Path_4549" data-name="Path 4549" d="M451.154,324.873v184.3c0,7.814-30.083,14.16-67.192,14.16-36.923,0-66.888-6.275-67.191-14.041V325.007h.081c1.775,8.232,31.141,14.807,67.11,14.807,36.155,0,65.639-6.638,67.125-14.941Z" fill="none"/>
                      <path id="Path_4550" data-name="Path 4550" d="M451.154,509.171V737.18c0,7.814-30.083,14.16-67.192,14.16-36.923,0-66.888-6.275-67.191-14.042V509.289c.3,7.767,30.268,14.042,67.191,14.042,37.109,0,67.192-6.346,67.192-14.16" fill="none"/>
                      <path id="Path_4551" data-name="Path 4551" d="M451.154,949.253v.008c0,7.814-30.083,14.16-67.192,14.16-36.923,0-66.888-6.275-67.191-14.042a.766.766,0,0,1-.007-.118l.007-.008V737.3c.3,7.767,30.268,14.042,67.191,14.042,37.109,0,67.192-6.346,67.192-14.16V949.253Z" fill="none"/>
                      <path id="Path_4552" data-name="Path 4552" d="M486.495,985.726l.007.008c0,14.625-45.842,26.5-102.384,26.5s-102.377-11.871-102.377-26.5V954.028c0,5.936,7.565,11.429,20.336,15.849h.007c18.673,6.464,48.475,10.64,82.034,10.64s63.361-4.176,82.041-10.64h.007c12.631-4.372,20.181-9.8,20.329-15.667Z" fill="#fff"/>
                      <path id="Path_4553" data-name="Path 4553" d="M466.158,969.877c-18.68,6.464-48.475,10.64-82.041,10.64s-63.361-4.176-82.033-10.64h-.008c-12.771-4.42-20.336-9.913-20.336-15.849v-.008c.007-7.964,13.57-15.091,35.03-19.953v15.186l-.007.008a.766.766,0,0,0,.007.118c.3,7.767,30.268,14.042,67.192,14.042,37.108,0,67.191-6.346,67.191-14.16V934c21.646,4.854,35.349,12.021,35.349,20.024a1.382,1.382,0,0,1-.008.182c-.147,5.864-7.7,11.294-20.329,15.667Z" fill="#e7ecec"/>
                      <path id="Path_4554" data-name="Path 4554" d="M316.771,324.344H451.147a2.577,2.577,0,0,1-.06.529l-134.235.134a3.172,3.172,0,0,1-.081-.584Z" fill="#e7ecec"/>
                      <path id="Path_4555" data-name="Path 4555" d="M316.763,324.344,23.12,138.641C75.055,168.492,217,189.913,383.955,189.913s308.9-21.421,360.841-51.264L451.153,324.21a.858.858,0,0,1-.007.134H316.77v.079a.3.3,0,0,1-.007-.079" fill="#e7ecec"/>
                      <path id="Path_4556" data-name="Path 4556" d="M765.917,78.379v35.163c0,8.784-7.417,17.222-21.076,25.075a.169.169,0,0,1-.044.032c-51.943,29.843-193.884,51.264-360.842,51.264S75.056,168.492,23.12,138.641c-.015,0-.029-.016-.044-.024C9.417,130.764,2,122.326,2,113.542V78.379c0,42.179,171.011,76.379,381.962,76.379s381.955-34.2,381.955-76.379" fill="#fff"/>
                      <path id="Path_4557" data-name="Path 4557" d="M383.963,2C594.914,2,765.918,36.2,765.918,78.379s-171,76.379-381.955,76.379S2,120.558,2,78.379,173.011,2,383.963,2M733.542,82.72c2.359-2.755,3.572-5.564,3.572-8.43C737.114,41.653,579,15.2,383.963,15.2S30.812,41.653,30.812,74.29s158.106,59.094,353.151,59.094c177.932,0,325.131-22.021,349.579-50.664" fill="#e7ecec"/>
                      <path id="Path_4558" data-name="Path 4558" d="M733.542,82.72c-24.448,28.643-171.647,50.665-349.579,50.665-195.045,0-353.152-26.457-353.152-59.094S188.918,15.2,383.963,15.2,737.114,41.654,737.114,74.291c0,2.865-1.213,5.675-3.572,8.429m-51.048-9.037c0-3.812-9.488-6.9-21.187-6.9s-21.194,3.086-21.194,6.9,9.488,6.9,21.194,6.9,21.187-3.086,21.187-6.9M653.579,53.572c0-3.812-9.488-6.9-21.187-6.9s-21.187,3.086-21.187,6.9,9.481,6.9,21.187,6.9,21.187-3.086,21.187-6.9m0,40.23c0-3.812-9.488-6.906-21.187-6.906S611.205,89.99,611.205,93.8s9.481,6.9,21.187,6.9,21.187-3.094,21.187-6.9M627.016,73.683c0-3.812-9.488-6.9-21.187-6.9s-21.194,3.086-21.194,6.9,9.488,6.9,21.194,6.9,21.187-3.086,21.187-6.9M598.109,53.572c0-3.812-9.488-6.9-21.194-6.9s-21.187,3.086-21.187,6.9,9.487,6.9,21.187,6.9,21.194-3.086,21.194-6.9m0,40.23c0-3.812-9.488-6.906-21.194-6.906S555.728,89.99,555.728,93.8s9.487,6.9,21.187,6.9,21.194-3.094,21.194-6.9M572.285,73.683c0-3.812-9.488-6.9-21.187-6.9s-21.194,3.086-21.194,6.9,9.488,6.9,21.194,6.9,21.187-3.086,21.187-6.9M543.371,53.572c0-3.812-9.481-6.9-21.187-6.9S501,49.76,501,53.572s9.48,6.9,21.187,6.9,21.187-3.086,21.187-6.9m0,40.23c0-3.812-9.481-6.906-21.187-6.906S501,89.99,501,93.8s9.48,6.9,21.187,6.9,21.187-3.094,21.187-6.9M516.578,73.683c0-3.812-9.488-6.9-21.194-6.9s-21.187,3.086-21.187,6.9,9.488,6.9,21.187,6.9,21.194-3.086,21.194-6.9m-1.7-38.8c0-3.813-9.488-6.9-21.187-6.9s-21.186,3.086-21.186,6.9,9.48,6.9,21.186,6.9,21.187-3.086,21.187-6.9m-.229,77.6c0-3.8-9.488-6.9-21.194-6.9s-21.187,3.094-21.187,6.9,9.488,6.9,21.187,6.9,21.194-3.086,21.194-6.9M487.664,53.572c0-3.812-9.488-6.9-21.187-6.9s-21.195,3.086-21.195,6.9,9.488,6.9,21.195,6.9,21.187-3.086,21.187-6.9m0,40.23c0-3.812-9.488-6.906-21.187-6.906S445.282,89.99,445.282,93.8s9.488,6.9,21.195,6.9,21.187-3.094,21.187-6.9M460.331,73.683c0-3.812-9.487-6.9-21.186-6.9s-21.195,3.086-21.195,6.9,9.488,6.9,21.195,6.9,21.186-3.086,21.186-6.9m-.185-38.8c0-3.813-9.487-6.9-21.186-6.9s-21.195,3.086-21.195,6.9,9.488,6.9,21.195,6.9,21.186-3.086,21.186-6.9m-.976,77.6c0-3.8-9.487-6.9-21.187-6.9s-21.194,3.094-21.194,6.9,9.488,6.9,21.194,6.9,21.187-3.086,21.187-6.9M432.933,53.572c0-3.812-9.488-6.9-21.2-6.9s-21.186,3.086-21.186,6.9,9.487,6.9,21.186,6.9,21.2-3.086,21.2-6.9M431.417,93.8c0-3.812-9.481-6.906-21.187-6.906S389.043,89.99,389.043,93.8s9.48,6.9,21.187,6.9,21.187-3.094,21.187-6.9M404.854,73.683c0-3.812-9.488-6.9-21.187-6.9s-21.194,3.086-21.194,6.9,9.487,6.9,21.194,6.9,21.187-3.086,21.187-6.9m-.414-38.8c0-3.813-9.488-6.9-21.2-6.9s-21.187,3.086-21.187,6.9,9.488,6.9,21.187,6.9,21.2-3.086,21.2-6.9m0,77.6c0-3.8-9.488-6.9-21.2-6.9s-21.187,3.094-21.187,6.9,9.488,6.9,21.187,6.9,21.2-3.086,21.2-6.9M377.455,53.572c0-3.812-9.488-6.9-21.187-6.9s-21.194,3.086-21.194,6.9,9.488,6.9,21.194,6.9,21.187-3.086,21.187-6.9M375.946,93.8c0-3.812-9.487-6.906-21.194-6.906S333.565,89.99,333.565,93.8s9.488,6.9,21.187,6.9,21.194-3.094,21.194-6.9M350.123,73.683c0-3.812-9.488-6.9-21.187-6.9s-21.194,3.086-21.194,6.9,9.488,6.9,21.194,6.9,21.187-3.086,21.187-6.9m-.422-38.8c0-3.813-9.48-6.9-21.187-6.9s-21.186,3.086-21.186,6.9,9.487,6.9,21.186,6.9,21.187-3.086,21.187-6.9m-.976,77.6c0-3.8-9.488-6.9-21.187-6.9s-21.194,3.094-21.194,6.9,9.488,6.9,21.194,6.9,21.187-3.086,21.187-6.9M321.208,53.572c0-3.812-9.48-6.9-21.187-6.9s-21.187,3.086-21.187,6.9,9.481,6.9,21.187,6.9,21.187-3.086,21.187-6.9m0,40.23c0-3.812-9.48-6.906-21.187-6.906S278.834,89.99,278.834,93.8s9.481,6.9,21.187,6.9,21.187-3.094,21.187-6.9M294.416,73.683c0-3.812-9.488-6.9-21.194-6.9s-21.187,3.086-21.187,6.9,9.488,6.9,21.187,6.9,21.194-3.086,21.194-6.9m-.185-38.8c0-3.813-9.488-6.9-21.194-6.9s-21.187,3.086-21.187,6.9,9.488,6.9,21.187,6.9,21.194-3.086,21.194-6.9m-.237,77.6c0-3.8-9.488-6.9-21.187-6.9s-21.194,3.094-21.194,6.9,9.488,6.9,21.194,6.9,21.187-3.086,21.187-6.9M265.5,53.572c0-3.812-9.488-6.9-21.187-6.9s-21.194,3.086-21.194,6.9,9.488,6.9,21.194,6.9,21.187-3.086,21.187-6.9m0,40.23c0-3.812-9.488-6.906-21.187-6.906S223.12,89.99,223.12,93.8s9.488,6.9,21.194,6.9S265.5,97.606,265.5,93.8M239.678,73.683c0-3.812-9.481-6.9-21.187-6.9s-21.187,3.086-21.187,6.9,9.48,6.9,21.187,6.9,21.187-3.086,21.187-6.9M210.77,53.572c0-3.812-9.488-6.9-21.194-6.9s-21.187,3.086-21.187,6.9,9.488,6.9,21.187,6.9,21.194-3.086,21.194-6.9m0,40.23c0-3.812-9.488-6.906-21.194-6.906S168.389,89.99,168.389,93.8s9.488,6.9,21.187,6.9,21.194-3.094,21.194-6.9M184.207,73.683c0-3.812-9.488-6.9-21.194-6.9s-21.187,3.086-21.187,6.9,9.488,6.9,21.187,6.9,21.194-3.086,21.194-6.9M155.293,53.572c0-3.812-9.488-6.9-21.187-6.9s-21.195,3.086-21.195,6.9,9.488,6.9,21.195,6.9,21.187-3.086,21.187-6.9m0,40.23c0-3.812-9.488-6.906-21.187-6.906S112.911,89.99,112.911,93.8s9.488,6.9,21.195,6.9,21.187-3.094,21.187-6.9M129.469,73.683c0-3.812-9.48-6.9-21.187-6.9S87.1,69.871,87.1,73.683s9.481,6.9,21.187,6.9,21.187-3.086,21.187-6.9" fill="#fff"/>
                      <path id="Path_4559" data-name="Path 4559" d="M661.307,66.785c11.7,0,21.187,3.086,21.187,6.9s-9.488,6.9-21.187,6.9-21.194-3.086-21.194-6.9,9.488-6.9,21.194-6.9" fill="#005561"/>
                      <path id="Path_4560" data-name="Path 4560" d="M632.392,46.674c11.7,0,21.187,3.086,21.187,6.9s-9.488,6.9-21.187,6.9-21.187-3.086-21.187-6.9,9.481-6.9,21.187-6.9" fill="#005561"/>
                      <path id="Path_4561" data-name="Path 4561" d="M632.392,86.9c11.7,0,21.187,3.094,21.187,6.906s-9.488,6.9-21.187,6.9-21.187-3.094-21.187-6.9,9.481-6.906,21.187-6.906" fill="#005561"/>
                      <path id="Path_4562" data-name="Path 4562" d="M605.829,66.785c11.7,0,21.187,3.086,21.187,6.9s-9.488,6.9-21.187,6.9-21.194-3.086-21.194-6.9,9.488-6.9,21.194-6.9" fill="#005561"/>
                      <path id="Path_4563" data-name="Path 4563" d="M576.914,46.674c11.706,0,21.194,3.086,21.194,6.9s-9.488,6.9-21.194,6.9-21.187-3.086-21.187-6.9,9.488-6.9,21.187-6.9" fill="#005561"/>
                      <path id="Path_4564" data-name="Path 4564" d="M576.914,86.9c11.706,0,21.194,3.094,21.194,6.906s-9.488,6.9-21.194,6.9-21.187-3.094-21.187-6.9,9.488-6.906,21.187-6.906" fill="#005561"/>
                      <path id="Path_4565" data-name="Path 4565" d="M551.1,66.785c11.7,0,21.187,3.086,21.187,6.9s-9.488,6.9-21.187,6.9S529.9,77.5,529.9,73.683s9.488-6.9,21.194-6.9" fill="#005561"/>
                      <path id="Path_4566" data-name="Path 4566" d="M522.183,46.674c11.706,0,21.187,3.086,21.187,6.9s-9.481,6.9-21.187,6.9S501,57.385,501,53.572s9.481-6.9,21.187-6.9" fill="#005561"/>
                      <path id="Path_4567" data-name="Path 4567" d="M522.183,86.9c11.706,0,21.187,3.094,21.187,6.906s-9.481,6.9-21.187,6.9S501,97.607,501,93.8s9.481-6.906,21.187-6.906" fill="#005561"/>
                      <path id="Path_4568" data-name="Path 4568" d="M495.384,66.785c11.706,0,21.194,3.086,21.194,6.9s-9.488,6.9-21.194,6.9S474.2,77.5,474.2,73.683s9.488-6.9,21.187-6.9" fill="#005561"/>
                      <path id="Path_4569" data-name="Path 4569" d="M493.69,27.983c11.7,0,21.187,3.086,21.187,6.9s-9.488,6.9-21.187,6.9-21.187-3.086-21.187-6.9,9.481-6.9,21.187-6.9" fill="#005561"/>
                      <path id="Path_4570" data-name="Path 4570" d="M493.453,105.586c11.706,0,21.194,3.094,21.194,6.9s-9.488,6.9-21.194,6.9-21.187-3.086-21.187-6.9,9.488-6.9,21.187-6.9" fill="#005561"/>
                      <path id="Path_4571" data-name="Path 4571" d="M466.476,46.674c11.7,0,21.187,3.086,21.187,6.9s-9.488,6.9-21.187,6.9-21.194-3.086-21.194-6.9,9.488-6.9,21.194-6.9" fill="#005561"/>
                      <path id="Path_4572" data-name="Path 4572" d="M466.476,86.9c11.7,0,21.187,3.094,21.187,6.906s-9.488,6.9-21.187,6.9-21.194-3.094-21.194-6.9S454.77,86.9,466.476,86.9" fill="#005561"/>
                      <path id="Path_4573" data-name="Path 4573" d="M439.144,66.785c11.7,0,21.187,3.086,21.187,6.9s-9.488,6.9-21.187,6.9-21.194-3.086-21.194-6.9,9.488-6.9,21.194-6.9" fill="#005561"/>
                      <path id="Path_4574" data-name="Path 4574" d="M438.959,27.983c11.7,0,21.187,3.086,21.187,6.9s-9.488,6.9-21.187,6.9-21.194-3.086-21.194-6.9,9.488-6.9,21.194-6.9" fill="#005561"/>
                      <path id="Path_4575" data-name="Path 4575" d="M437.983,105.586c11.7,0,21.187,3.094,21.187,6.9s-9.488,6.9-21.187,6.9-21.194-3.086-21.194-6.9,9.488-6.9,21.194-6.9" fill="#005561"/>
                      <path id="Path_4576" data-name="Path 4576" d="M316.852,325.007l134.235-.134c-1.486,8.3-30.97,14.941-67.125,14.941-35.969,0-65.335-6.575-67.11-14.807" fill="#e7ecec"/>
                      <path id="Path_4577" data-name="Path 4577" d="M411.738,46.674c11.706,0,21.194,3.086,21.194,6.9s-9.488,6.9-21.194,6.9-21.187-3.086-21.187-6.9,9.488-6.9,21.187-6.9" fill="#005561"/>
                      <path id="Path_4578" data-name="Path 4578" d="M410.229,86.9c11.706,0,21.187,3.094,21.187,6.906s-9.481,6.9-21.187,6.9-21.187-3.094-21.187-6.9,9.481-6.906,21.187-6.906" fill="#005561"/>
                      <path id="Path_4579" data-name="Path 4579" d="M383.666,66.785c11.7,0,21.187,3.086,21.187,6.9s-9.488,6.9-21.187,6.9-21.194-3.086-21.194-6.9,9.488-6.9,21.194-6.9" fill="#005561"/>
                      <path id="Path_4580" data-name="Path 4580" d="M383.245,27.983c11.706,0,21.194,3.086,21.194,6.9s-9.488,6.9-21.194,6.9-21.187-3.086-21.187-6.9,9.488-6.9,21.187-6.9" fill="#005561"/>
                      <path id="Path_4581" data-name="Path 4581" d="M383.245,105.586c11.706,0,21.194,3.094,21.194,6.9s-9.488,6.9-21.194,6.9-21.187-3.086-21.187-6.9,9.488-6.9,21.187-6.9" fill="#005561"/>
                      <path id="Path_4582" data-name="Path 4582" d="M356.268,46.674c11.7,0,21.187,3.086,21.187,6.9s-9.488,6.9-21.187,6.9-21.194-3.086-21.194-6.9,9.488-6.9,21.194-6.9" fill="#005561"/>
                      <path id="Path_4583" data-name="Path 4583" d="M354.752,86.9c11.706,0,21.194,3.094,21.194,6.906s-9.488,6.9-21.194,6.9-21.187-3.094-21.187-6.9,9.488-6.906,21.187-6.906" fill="#005561"/>
                      <path id="Path_4584" data-name="Path 4584" d="M328.936,66.785c11.7,0,21.187,3.086,21.187,6.9s-9.488,6.9-21.187,6.9-21.194-3.086-21.194-6.9,9.488-6.9,21.194-6.9" fill="#005561"/>
                      <path id="Path_4585" data-name="Path 4585" d="M328.514,27.983c11.706,0,21.187,3.086,21.187,6.9s-9.481,6.9-21.187,6.9-21.187-3.086-21.187-6.9,9.488-6.9,21.187-6.9" fill="#005561"/>
                      <path id="Path_4586" data-name="Path 4586" d="M327.538,105.586c11.7,0,21.187,3.094,21.187,6.9s-9.488,6.9-21.187,6.9-21.194-3.086-21.194-6.9,9.488-6.9,21.194-6.9" fill="#005561"/>
                      <path id="Path_4587" data-name="Path 4587" d="M300.021,46.674c11.706,0,21.187,3.086,21.187,6.9s-9.481,6.9-21.187,6.9-21.187-3.086-21.187-6.9,9.481-6.9,21.187-6.9" fill="#005561"/>
                      <path id="Path_4588" data-name="Path 4588" d="M300.021,86.9c11.706,0,21.187,3.094,21.187,6.906s-9.481,6.9-21.187,6.9-21.187-3.094-21.187-6.9,9.481-6.906,21.187-6.906" fill="#005561"/>
                      <path id="Path_4589" data-name="Path 4589" d="M273.221,66.785c11.706,0,21.194,3.086,21.194,6.9s-9.488,6.9-21.194,6.9-21.187-3.086-21.187-6.9,9.488-6.9,21.187-6.9" fill="#005561"/>
                      <path id="Path_4590" data-name="Path 4590" d="M273.036,27.983c11.706,0,21.194,3.086,21.194,6.9s-9.488,6.9-21.194,6.9-21.187-3.086-21.187-6.9,9.488-6.9,21.187-6.9" fill="#005561"/>
                      <path id="Path_4591" data-name="Path 4591" d="M272.807,105.586c11.7,0,21.187,3.094,21.187,6.9s-9.488,6.9-21.187,6.9-21.194-3.086-21.194-6.9,9.488-6.9,21.194-6.9" fill="#005561"/>
                      <path id="Path_4592" data-name="Path 4592" d="M244.314,46.674c11.7,0,21.187,3.086,21.187,6.9s-9.488,6.9-21.187,6.9-21.194-3.086-21.194-6.9,9.488-6.9,21.194-6.9" fill="#005561"/>
                      <path id="Path_4593" data-name="Path 4593" d="M244.314,86.9c11.7,0,21.187,3.094,21.187,6.906s-9.488,6.9-21.187,6.9-21.194-3.094-21.194-6.9,9.488-6.906,21.194-6.906" fill="#005561"/>
                      <path id="Path_4594" data-name="Path 4594" d="M218.49,66.785c11.706,0,21.187,3.086,21.187,6.9s-9.481,6.9-21.187,6.9S197.3,77.5,197.3,73.683s9.481-6.9,21.187-6.9" fill="#005561"/>
                      <path id="Path_4595" data-name="Path 4595" d="M189.576,46.674c11.706,0,21.194,3.086,21.194,6.9s-9.488,6.9-21.194,6.9-21.187-3.086-21.187-6.9,9.488-6.9,21.187-6.9" fill="#005561"/>
                      <path id="Path_4596" data-name="Path 4596" d="M189.576,86.9c11.706,0,21.194,3.094,21.194,6.906s-9.488,6.9-21.194,6.9-21.187-3.094-21.187-6.9,9.488-6.906,21.187-6.906" fill="#005561"/>
                      <path id="Path_4597" data-name="Path 4597" d="M163.013,66.785c11.706,0,21.194,3.086,21.194,6.9s-9.488,6.9-21.194,6.9-21.187-3.086-21.187-6.9,9.488-6.9,21.187-6.9" fill="#005561"/>
                      <path id="Path_4598" data-name="Path 4598" d="M134.1,46.674c11.7,0,21.187,3.086,21.187,6.9s-9.488,6.9-21.187,6.9-21.194-3.086-21.194-6.9,9.488-6.9,21.194-6.9" fill="#005561"/>
                      <path id="Path_4599" data-name="Path 4599" d="M134.1,86.9c11.7,0,21.187,3.094,21.187,6.906s-9.488,6.9-21.187,6.9-21.194-3.094-21.194-6.9S122.4,86.9,134.1,86.9" fill="#005561"/>
                      <path id="Path_4600" data-name="Path 4600" d="M108.282,66.785c11.706,0,21.187,3.086,21.187,6.9s-9.481,6.9-21.187,6.9S87.1,77.5,87.1,73.683s9.481-6.9,21.187-6.9" fill="#005561"/>
                    </g>
                  </g>
                </g>
              </g>
            </g>
          </g>
        </g>
        <path id="Path_4601" data-name="Path 4601" d="M316.771,324.423v624.83" fill="none" stroke="#005561" stroke-miterlimit="10" stroke-width="4"/>
        <path id="Path_4602" data-name="Path 4602" d="M451.154,949.253V324.344h-.007" fill="none" stroke="#005561" stroke-miterlimit="10" stroke-width="4"/>
        <g id="Group_2958" data-name="Group 2958">
          <g id="Group_2957" data-name="Group 2957" clip-path="url(#clip-path)">
            <path id="Path_4603" data-name="Path 4603" d="M451.154,509.171c0,7.814-30.083,14.16-67.192,14.16-36.923,0-66.888-6.275-67.191-14.042a.759.759,0,0,1-.007-.118" fill="none" stroke="#005561" stroke-miterlimit="10" stroke-width="4"/>
            <path id="Path_4604" data-name="Path 4604" d="M451.154,737.18c0,7.814-30.083,14.16-67.192,14.16-36.923,0-66.888-6.275-67.191-14.042a.759.759,0,0,1-.007-.118" fill="none" stroke="#005561" stroke-miterlimit="10" stroke-width="4"/>
            <path id="Path_4605" data-name="Path 4605" d="M451.154,949.261c0,7.814-30.083,14.16-67.192,14.16-36.923,0-66.888-6.275-67.191-14.042a.759.759,0,0,1-.007-.118" fill="none" stroke="#005561" stroke-miterlimit="10" stroke-width="4"/>
            <path id="Path_4606" data-name="Path 4606" d="M451.154,324.21a.861.861,0,0,1-.007.134,2.577,2.577,0,0,1-.06.529c-1.486,8.3-30.97,14.941-67.125,14.941-35.969,0-65.335-6.575-67.11-14.807a3.172,3.172,0,0,1-.081-.584.3.3,0,0,1-.007-.079v-.008" fill="none" stroke="#005561" stroke-linecap="round" stroke-linejoin="round" stroke-width="4"/>
            <line id="Line_432" data-name="Line 432" x1="293.643" y1="185.703" transform="translate(23.12 138.641)" fill="none" stroke="#005561" stroke-linecap="round" stroke-linejoin="round" stroke-width="4"/>
            <line id="Line_433" data-name="Line 433" x1="293.643" y2="185.561" transform="translate(451.154 138.649)" fill="none" stroke="#005561" stroke-linecap="round" stroke-linejoin="round" stroke-width="4"/>
            <path id="Path_4607" data-name="Path 4607" d="M2,113.542c0,8.785,7.417,17.222,21.076,25.076.015.007.029.023.044.023C75.056,168.492,217,189.913,383.955,189.913s308.9-21.421,360.842-51.264a.169.169,0,0,0,.044-.031c13.659-7.854,21.076-16.291,21.076-25.076" fill="none" stroke="#005561" stroke-linecap="round" stroke-linejoin="round" stroke-width="4"/>
            <path id="Path_4608" data-name="Path 4608" d="M765.917,78.379c0,42.179-171,76.379-381.955,76.379S2,120.558,2,78.379,173.011,2,383.962,2,765.917,36.2,765.917,78.379Z" fill="none" stroke="#005561" stroke-linecap="round" stroke-linejoin="round" stroke-width="4"/>
            <path id="Path_4609" data-name="Path 4609" d="M737.113,74.291c0,2.865-1.213,5.675-3.572,8.43-24.448,28.643-171.647,50.664-349.579,50.664-195.045,0-353.151-26.457-353.151-59.094S188.917,15.2,383.962,15.2,737.113,41.654,737.113,74.291Z" fill="none" stroke="#005561" stroke-linecap="round" stroke-linejoin="round" stroke-width="4"/>
            <line id="Line_434" data-name="Line 434" y1="35.163" transform="translate(2 78.379)" fill="none" stroke="#005561" stroke-linecap="round" stroke-linejoin="round" stroke-width="4"/>
            <line id="Line_435" data-name="Line 435" y1="35.163" transform="translate(765.917 78.379)" fill="none" stroke="#005561" stroke-linecap="round" stroke-linejoin="round" stroke-width="4"/>
            <ellipse id="Ellipse_71" data-name="Ellipse 71" cx="21.187" cy="6.898" rx="21.187" ry="6.898" transform="translate(87.095 66.785)" fill="none" stroke="#005561" stroke-linecap="round" stroke-linejoin="round" stroke-width="4"/>
            <path id="Path_4610" data-name="Path 4610" d="M184.207,73.683c0,3.812-9.488,6.9-21.194,6.9s-21.187-3.086-21.187-6.9,9.488-6.9,21.187-6.9S184.207,69.871,184.207,73.683Z" fill="none" stroke="#005561" stroke-linecap="round" stroke-linejoin="round" stroke-width="4"/>
            <ellipse id="Ellipse_72" data-name="Ellipse 72" cx="21.187" cy="6.898" rx="21.187" ry="6.898" transform="translate(197.303 66.785)" fill="none" stroke="#005561" stroke-linecap="round" stroke-linejoin="round" stroke-width="4"/>
            <path id="Path_4611" data-name="Path 4611" d="M294.415,73.683c0,3.812-9.488,6.9-21.194,6.9s-21.187-3.086-21.187-6.9,9.488-6.9,21.187-6.9S294.415,69.871,294.415,73.683Z" fill="none" stroke="#005561" stroke-linecap="round" stroke-linejoin="round" stroke-width="4"/>
            <path id="Path_4612" data-name="Path 4612" d="M350.122,73.683c0,3.812-9.488,6.9-21.187,6.9s-21.194-3.086-21.194-6.9,9.488-6.9,21.194-6.9S350.122,69.871,350.122,73.683Z" fill="none" stroke="#005561" stroke-linecap="round" stroke-linejoin="round" stroke-width="4"/>
            <path id="Path_4613" data-name="Path 4613" d="M404.853,73.683c0,3.812-9.488,6.9-21.187,6.9s-21.194-3.086-21.194-6.9,9.488-6.9,21.194-6.9S404.853,69.871,404.853,73.683Z" fill="none" stroke="#005561" stroke-linecap="round" stroke-linejoin="round" stroke-width="4"/>
            <path id="Path_4614" data-name="Path 4614" d="M460.331,73.683c0,3.812-9.488,6.9-21.187,6.9s-21.194-3.086-21.194-6.9,9.488-6.9,21.194-6.9S460.331,69.871,460.331,73.683Z" fill="none" stroke="#005561" stroke-linecap="round" stroke-linejoin="round" stroke-width="4"/>
            <path id="Path_4615" data-name="Path 4615" d="M516.578,73.683c0,3.812-9.488,6.9-21.194,6.9S474.2,77.5,474.2,73.683s9.488-6.9,21.187-6.9S516.578,69.871,516.578,73.683Z" fill="none" stroke="#005561" stroke-linecap="round" stroke-linejoin="round" stroke-width="4"/>
            <path id="Path_4616" data-name="Path 4616" d="M572.285,73.683c0,3.812-9.488,6.9-21.187,6.9S529.9,77.5,529.9,73.683s9.488-6.9,21.194-6.9S572.285,69.871,572.285,73.683Z" fill="none" stroke="#005561" stroke-linecap="round" stroke-linejoin="round" stroke-width="4"/>
            <path id="Path_4617" data-name="Path 4617" d="M627.016,73.683c0,3.812-9.488,6.9-21.187,6.9s-21.194-3.086-21.194-6.9,9.488-6.9,21.194-6.9S627.016,69.871,627.016,73.683Z" fill="none" stroke="#005561" stroke-linecap="round" stroke-linejoin="round" stroke-width="4"/>
            <path id="Path_4618" data-name="Path 4618" d="M682.493,73.683c0,3.812-9.488,6.9-21.187,6.9s-21.194-3.086-21.194-6.9,9.488-6.9,21.194-6.9S682.493,69.871,682.493,73.683Z" fill="none" stroke="#005561" stroke-linecap="round" stroke-linejoin="round" stroke-width="4"/>
            <path id="Path_4619" data-name="Path 4619" d="M155.292,93.8c0,3.8-9.488,6.9-21.187,6.9s-21.194-3.094-21.194-6.9S122.4,86.9,134.1,86.9,155.292,89.99,155.292,93.8Z" fill="none" stroke="#005561" stroke-linecap="round" stroke-linejoin="round" stroke-width="4"/>
            <path id="Path_4620" data-name="Path 4620" d="M210.77,93.8c0,3.8-9.488,6.9-21.194,6.9s-21.187-3.094-21.187-6.9,9.488-6.906,21.187-6.906S210.77,89.99,210.77,93.8Z" fill="none" stroke="#005561" stroke-linecap="round" stroke-linejoin="round" stroke-width="4"/>
            <path id="Path_4621" data-name="Path 4621" d="M265.5,93.8c0,3.8-9.488,6.9-21.187,6.9s-21.194-3.094-21.194-6.9,9.488-6.906,21.194-6.906S265.5,89.99,265.5,93.8Z" fill="none" stroke="#005561" stroke-linecap="round" stroke-linejoin="round" stroke-width="4"/>
            <path id="Path_4622" data-name="Path 4622" d="M321.208,93.8c0,3.8-9.48,6.9-21.187,6.9s-21.187-3.094-21.187-6.9,9.481-6.906,21.187-6.906S321.208,89.99,321.208,93.8Z" fill="none" stroke="#005561" stroke-linecap="round" stroke-linejoin="round" stroke-width="4"/>
            <path id="Path_4623" data-name="Path 4623" d="M375.946,93.8c0,3.8-9.488,6.9-21.194,6.9s-21.187-3.094-21.187-6.9,9.488-6.906,21.187-6.906S375.946,89.99,375.946,93.8Z" fill="none" stroke="#005561" stroke-linecap="round" stroke-linejoin="round" stroke-width="4"/>
            <path id="Path_4624" data-name="Path 4624" d="M431.416,93.8c0,3.8-9.48,6.9-21.187,6.9s-21.187-3.094-21.187-6.9,9.481-6.906,21.187-6.906S431.416,89.99,431.416,93.8Z" fill="none" stroke="#005561" stroke-linecap="round" stroke-linejoin="round" stroke-width="4"/>
            <path id="Path_4625" data-name="Path 4625" d="M487.663,93.8c0,3.8-9.488,6.9-21.187,6.9s-21.194-3.094-21.194-6.9S454.77,86.9,466.476,86.9,487.663,89.99,487.663,93.8Z" fill="none" stroke="#005561" stroke-linecap="round" stroke-linejoin="round" stroke-width="4"/>
            <path id="Path_4626" data-name="Path 4626" d="M543.37,93.8c0,3.8-9.48,6.9-21.187,6.9S501,97.606,501,93.8s9.481-6.906,21.187-6.906S543.37,89.99,543.37,93.8Z" fill="none" stroke="#005561" stroke-linecap="round" stroke-linejoin="round" stroke-width="4"/>
            <path id="Path_4627" data-name="Path 4627" d="M598.108,93.8c0,3.8-9.488,6.9-21.194,6.9s-21.187-3.094-21.187-6.9,9.488-6.906,21.187-6.906S598.108,89.99,598.108,93.8Z" fill="none" stroke="#005561" stroke-linecap="round" stroke-linejoin="round" stroke-width="4"/>
            <path id="Path_4628" data-name="Path 4628" d="M653.579,93.8c0,3.8-9.488,6.9-21.187,6.9s-21.187-3.094-21.187-6.9,9.481-6.906,21.187-6.906S653.579,89.99,653.579,93.8Z" fill="none" stroke="#005561" stroke-linecap="round" stroke-linejoin="round" stroke-width="4"/>
            <path id="Path_4629" data-name="Path 4629" d="M293.994,112.484c0,3.812-9.488,6.9-21.187,6.9s-21.194-3.086-21.194-6.9,9.488-6.9,21.194-6.9S293.994,108.68,293.994,112.484Z" fill="none" stroke="#005561" stroke-linecap="round" stroke-linejoin="round" stroke-width="4"/>
            <path id="Path_4630" data-name="Path 4630" d="M348.725,112.484c0,3.812-9.488,6.9-21.187,6.9s-21.194-3.086-21.194-6.9,9.488-6.9,21.194-6.9S348.725,108.68,348.725,112.484Z" fill="none" stroke="#005561" stroke-linecap="round" stroke-linejoin="round" stroke-width="4"/>
            <path id="Path_4631" data-name="Path 4631" d="M404.439,112.484c0,3.812-9.488,6.9-21.194,6.9s-21.187-3.086-21.187-6.9,9.488-6.9,21.187-6.9S404.439,108.68,404.439,112.484Z" fill="none" stroke="#005561" stroke-linecap="round" stroke-linejoin="round" stroke-width="4"/>
            <path id="Path_4632" data-name="Path 4632" d="M459.17,112.484c0,3.812-9.488,6.9-21.187,6.9s-21.194-3.086-21.194-6.9,9.488-6.9,21.194-6.9S459.17,108.68,459.17,112.484Z" fill="none" stroke="#005561" stroke-linecap="round" stroke-linejoin="round" stroke-width="4"/>
            <path id="Path_4633" data-name="Path 4633" d="M514.648,112.484c0,3.812-9.488,6.9-21.194,6.9s-21.187-3.086-21.187-6.9,9.488-6.9,21.187-6.9S514.648,108.68,514.648,112.484Z" fill="none" stroke="#005561" stroke-linecap="round" stroke-linejoin="round" stroke-width="4"/>
            <ellipse id="Ellipse_73" data-name="Ellipse 73" cx="21.187" cy="6.898" rx="21.187" ry="6.898" transform="translate(611.205 46.674)" fill="none" stroke="#005561" stroke-linecap="round" stroke-linejoin="round" stroke-width="4"/>
            <path id="Path_4634" data-name="Path 4634" d="M555.727,53.572c0-3.812,9.488-6.9,21.187-6.9s21.194,3.086,21.194,6.9-9.488,6.9-21.194,6.9S555.727,57.384,555.727,53.572Z" fill="none" stroke="#005561" stroke-linecap="round" stroke-linejoin="round" stroke-width="4"/>
            <ellipse id="Ellipse_74" data-name="Ellipse 74" cx="21.187" cy="6.898" rx="21.187" ry="6.898" transform="translate(500.996 46.674)" fill="none" stroke="#005561" stroke-linecap="round" stroke-linejoin="round" stroke-width="4"/>
            <path id="Path_4635" data-name="Path 4635" d="M445.282,53.572c0-3.812,9.488-6.9,21.194-6.9s21.187,3.086,21.187,6.9-9.488,6.9-21.187,6.9S445.282,57.384,445.282,53.572Z" fill="none" stroke="#005561" stroke-linecap="round" stroke-linejoin="round" stroke-width="4"/>
            <path id="Path_4636" data-name="Path 4636" d="M390.551,53.572c0-3.812,9.488-6.9,21.187-6.9s21.194,3.086,21.194,6.9-9.488,6.9-21.194,6.9S390.551,57.384,390.551,53.572Z" fill="none" stroke="#005561" stroke-linecap="round" stroke-linejoin="round" stroke-width="4"/>
            <path id="Path_4637" data-name="Path 4637" d="M335.073,53.572c0-3.812,9.488-6.9,21.194-6.9s21.187,3.086,21.187,6.9-9.488,6.9-21.187,6.9S335.073,57.384,335.073,53.572Z" fill="none" stroke="#005561" stroke-linecap="round" stroke-linejoin="round" stroke-width="4"/>
            <ellipse id="Ellipse_75" data-name="Ellipse 75" cx="21.187" cy="6.898" rx="21.187" ry="6.898" transform="translate(278.834 46.674)" fill="none" stroke="#005561" stroke-linecap="round" stroke-linejoin="round" stroke-width="4"/>
            <path id="Path_4638" data-name="Path 4638" d="M223.12,53.572c0-3.812,9.488-6.9,21.194-6.9s21.187,3.086,21.187,6.9-9.488,6.9-21.187,6.9S223.12,57.384,223.12,53.572Z" fill="none" stroke="#005561" stroke-linecap="round" stroke-linejoin="round" stroke-width="4"/>
            <path id="Path_4639" data-name="Path 4639" d="M168.389,53.572c0-3.812,9.488-6.9,21.187-6.9s21.194,3.086,21.194,6.9-9.488,6.9-21.194,6.9S168.389,57.384,168.389,53.572Z" fill="none" stroke="#005561" stroke-linecap="round" stroke-linejoin="round" stroke-width="4"/>
            <path id="Path_4640" data-name="Path 4640" d="M112.911,53.572c0-3.812,9.488-6.9,21.194-6.9s21.187,3.086,21.187,6.9-9.488,6.9-21.187,6.9S112.911,57.384,112.911,53.572Z" fill="none" stroke="#005561" stroke-linecap="round" stroke-linejoin="round" stroke-width="4"/>
            <ellipse id="Ellipse_76" data-name="Ellipse 76" cx="21.187" cy="6.898" rx="21.187" ry="6.898" transform="translate(472.503 27.984)" fill="none" stroke="#005561" stroke-linecap="round" stroke-linejoin="round" stroke-width="4"/>
            <path id="Path_4641" data-name="Path 4641" d="M417.765,34.882c0-3.812,9.488-6.9,21.194-6.9s21.187,3.086,21.187,6.9-9.488,6.9-21.187,6.9S417.765,38.694,417.765,34.882Z" fill="none" stroke="#005561" stroke-linecap="round" stroke-linejoin="round" stroke-width="4"/>
            <path id="Path_4642" data-name="Path 4642" d="M362.058,34.882c0-3.812,9.488-6.9,21.187-6.9s21.194,3.086,21.194,6.9-9.488,6.9-21.194,6.9S362.058,38.694,362.058,34.882Z" fill="none" stroke="#005561" stroke-linecap="round" stroke-linejoin="round" stroke-width="4"/>
            <ellipse id="Ellipse_77" data-name="Ellipse 77" cx="21.187" cy="6.898" rx="21.187" ry="6.898" transform="translate(307.327 27.984)" fill="none" stroke="#005561" stroke-linecap="round" stroke-linejoin="round" stroke-width="4"/>
            <path id="Path_4643" data-name="Path 4643" d="M251.85,34.882c0-3.812,9.487-6.9,21.186-6.9s21.194,3.086,21.194,6.9-9.488,6.9-21.194,6.9S251.85,38.694,251.85,34.882Z" fill="none" stroke="#005561" stroke-linecap="round" stroke-linejoin="round" stroke-width="4"/>
            <path id="Path_4644" data-name="Path 4644" d="M281.74,954.028c0,5.935,7.565,11.429,20.336,15.849h.008c18.672,6.464,48.474,10.639,82.033,10.639s63.361-4.175,82.041-10.639h.007c12.631-4.373,20.182-9.8,20.329-15.667a1.389,1.389,0,0,0,.008-.182c0-8-13.7-15.17-35.349-20.024" fill="none" stroke="#005561" stroke-miterlimit="10" stroke-width="4"/>
            <path id="Path_4645" data-name="Path 4645" d="M316.771,934.067c-21.46,4.862-35.023,11.989-35.03,19.953" fill="none" stroke="#005561" stroke-miterlimit="10" stroke-width="4"/>
            <line id="Line_436" data-name="Line 436" x1="0.007" transform="translate(466.159 968.914)" fill="none" stroke="#005561" stroke-miterlimit="10" stroke-width="4"/>
            <path id="Path_4646" data-name="Path 4646" d="M281.74,985.734c0,14.625,45.842,26.5,102.377,26.5s102.385-11.871,102.385-26.5" fill="none" stroke="#005561" stroke-miterlimit="10" stroke-width="4"/>
            <line id="Line_437" data-name="Line 437" x1="0.007" transform="translate(302.077 968.914)" fill="none" stroke="#005561" stroke-miterlimit="10" stroke-width="4"/>
            <path id="Path_4647" data-name="Path 4647" d="M281.74,954.02v31.706" fill="none" stroke="#005561" stroke-miterlimit="10" stroke-width="4"/>
            <path id="Path_4648" data-name="Path 4648" d="M486.495,985.726V954.02" fill="none" stroke="#005561" stroke-miterlimit="10" stroke-width="4"/>
          </g>
        </g>
      </g>
    </g>
  </g>
</svg>
