<svg xmlns="http://www.w3.org/2000/svg" width="24.63" height="80.16" viewBox="0 0 24.63 80.16">
  <g id="Group_2881" data-name="Group 2881" transform="translate(-30 9)">
    <path id="Path_4307" data-name="Path 4307" d="M22.63,2,2,18.75V2Z" transform="translate(30 -9)" fill="#005561"/>
    <g id="Group_2880" data-name="Group 2880">
      <g id="Group_2895" data-name="Group 2895" transform="translate(30 -9)">
        <path id="Path_4308" data-name="Path 4308" d="M22.631,2V17.429c0,.729-4.62,1.321-10.31,1.321S2,18.159,2,17.429V11.618Z" fill="none"/>
        <path id="Path_4311" data-name="Path 4311" d="M2,28.87c0,1.524,4.62,2.76,10.32,2.76s10.31-1.236,10.31-2.76V80.16H2Z" fill="none"/>
        <path id="Path_4312" data-name="Path 4312" d="M2,18.75V78.16" fill="rgba(0,0,0,0)" stroke="#005561" stroke-linecap="round" stroke-miterlimit="10" stroke-width="4"/>
        <path id="Path_4313" data-name="Path 4313" d="M22.63,2V78.16" fill="rgba(0,0,0,0)" stroke="#005561" stroke-linecap="round" stroke-miterlimit="10" stroke-width="4"/>
        <path id="Path_4314" data-name="Path 4314" d="M22.63,28.87c0,1.27-4.62,2.3-10.31,2.3S2,30.14,2,28.87" fill="rgba(0,0,0,0)" stroke="#005561" stroke-miterlimit="10" stroke-width="4"/>
        <path id="Path_4315" data-name="Path 4315" d="M22.63,2,2,18.75V2Z" fill="rgba(0,0,0,0)" stroke="#005561" stroke-linejoin="round" stroke-width="4"/>
      </g>
    </g>
  </g>
</svg>
