<svg id="Group_2881" data-name="Group 2881" xmlns="http://www.w3.org/2000/svg" xmlns:xlink="http://www.w3.org/1999/xlink" width="24.631" height="80.16" viewBox="0 0 24.631 80.16">
  <defs>
    <clipPath id="clip-path">
      <rect id="Rectangle_2993" data-name="Rectangle 2993" width="24.63" height="80.16" fill="#12bbd1"/>
    </clipPath>
  </defs>
  <path id="Path_4307" data-name="Path 4307" d="M22.63,2,2,18.75V2Z" fill="#005561"/>
  <g id="Group_2880" data-name="Group 2880">
    <g id="Group_2879" data-name="Group 2879" clip-path="url(#clip-path)">
      <path id="Path_4308" data-name="Path 4308" d="M22.63,2V28.87c0,1.27-4.62,2.3-10.31,2.3S2,30.14,2,28.87V18.75Z" fill="#12bbd1"/>
      <path id="Path_4309" data-name="Path 4309" d="M2,71.61v6.55H22.63V71.61" fill="#fff"/>
      <path id="Path_4310" data-name="Path 4310" d="M22.63,72.79v5.37H2V71.61H22.63Z" fill="#fff"/>
      <path id="Path_4311" data-name="Path 4311" d="M2,28.87c0,1.524,4.62,2.76,10.32,2.76s10.31-1.236,10.31-2.76V80.16H2Z" fill="#12bbd1"/>
      <path id="Path_4312" data-name="Path 4312" d="M2,18.75V78.16" fill="none" stroke="#005561" stroke-linecap="round" stroke-miterlimit="10" stroke-width="4"/>
      <path id="Path_4313" data-name="Path 4313" d="M22.63,2V78.16" fill="none" stroke="#005561" stroke-linecap="round" stroke-miterlimit="10" stroke-width="4"/>
      <path id="Path_4314" data-name="Path 4314" d="M22.63,28.87c0,1.27-4.62,2.3-10.31,2.3S2,30.14,2,28.87" fill="none" stroke="#005561" stroke-miterlimit="10" stroke-width="4"/>
      <path id="Path_4315" data-name="Path 4315" d="M22.63,2,2,18.75V2Z" fill="none" stroke="#005561" stroke-linejoin="round" stroke-width="4"/>
    </g>
  </g>
</svg>

