<svg xmlns="http://www.w3.org/2000/svg" xmlns:xlink="http://www.w3.org/1999/xlink" width="413" height="413" viewBox="0 0 413 413">
  <defs>
    <filter id="Ellipse_85" x="0" y="0" width="413" height="413" filterUnits="userSpaceOnUse">
      <feOffset input="SourceAlpha"/>
      <feGaussianBlur stdDeviation="22.5" result="blur"/>
      <feFlood flood-opacity="0.2"/>
      <feComposite operator="in" in2="blur"/>
      <feComposite in="SourceGraphic"/>
    </filter>
    <clipPath id="clip-path">
      <rect id="Rectangle_3219" data-name="Rectangle 3219" width="241.187" height="107.809" fill="none"/>
    </clipPath>
    <clipPath id="clip-path-2">
      <rect id="Rectangle_3218" data-name="Rectangle 3218" width="238.866" height="105.995" fill="none"/>
    </clipPath>
  </defs>
  <g id="Group_3171" data-name="Group 3171" transform="translate(-685.5 -675.5)">
    <g transform="matrix(1, 0, 0, 1, 685.5, 675.5)" filter="url(#Ellipse_85)">
      <g id="Ellipse_85-2" data-name="Ellipse 85" transform="translate(67.5 67.5)" fill="#005661" stroke="#fff" stroke-width="4">
        <circle cx="139" cy="139" r="139" stroke="none"/>
        <circle cx="139" cy="139" r="137" fill="none"/>
      </g>
    </g>
    <g id="Group_3170" data-name="Group 3170" transform="translate(771.406 828.096)">
      <g id="Group_3169" data-name="Group 3169" transform="translate(0 0)" clip-path="url(#clip-path)">
        <g id="Group_3168" data-name="Group 3168" transform="translate(0.907 0.907)">
          <g id="Group_3167" data-name="Group 3167" clip-path="url(#clip-path-2)">
            <g id="Group_3166" data-name="Group 3166">
              <g id="Group_3165" data-name="Group 3165" clip-path="url(#clip-path-2)">
                <path id="Path_5035" data-name="Path 5035" d="M260.053,47.163l-31.812,59.6-9.361-1.432a8.058,8.058,0,0,0-.615-.712l.526-.089,33.96-58.351,0,0Z" transform="translate(-21.187 -5.197)" fill="#e7ecec"/>
                <path id="Path_5036" data-name="Path 5036" d="M233.458,41.976l0,0L199.5,100.331l-.526.089c-1.845-1.95-8.1-7.448-22.392-10.612l0,0L33.4,59.753l-3.528-.74C17.694,56.456,10.934,61.751,10.6,62.018L55.509,4.9s4.281-4.92,14.629-3.71h.012c.846.1,1.728.235,2.654.425h.013c.053.008.109.021.161.033l.117.024L211.462,30.717l.364.093c17.587,3.9,21.632,11.166,21.632,11.166m-55.3-3.431A3.193,3.193,0,0,0,176.1,34.1L89.213,15.865a2.746,2.746,0,0,0-2.69.979l-24.509,29.6a3.322,3.322,0,0,0-.457,3.455h0a3.193,3.193,0,0,0,2.055,4.438l90.875,19.08a2.786,2.786,0,0,0,2.876-1.23l20.52-30.436a3.329,3.329,0,0,0,.275-3.2" transform="translate(-1.892 -1)" fill="#e7ecec"/>
                <path id="Path_5037" data-name="Path 5037" d="M198.968,106.29a8.059,8.059,0,0,1,.615.712s-8.176,8.277-23.008,5.162h0l-146.7-30.8v0C15.326,78.569,10.584,67.9,10.584,67.9l.013-.012c.336-.268,7.1-5.563,19.277-3.006l3.528.74L176.571,95.675l0,0c14.289,3.164,20.548,8.662,22.393,10.612" transform="translate(-1.89 -6.871)" fill="#e7ecec"/>
                <path id="Path_5038" data-name="Path 5038" d="M181.285,35.619a3.194,3.194,0,0,1,2.059,4.442,3.406,3.406,0,0,1-.275.5l-20.52,30.435a2.774,2.774,0,0,1-2.873,1.226L68.8,53.145a2.882,2.882,0,0,1-2.055-1.732,3.322,3.322,0,0,1,.457-3.455l24.509-29.6a2.746,2.746,0,0,1,2.69-.979Zm-31.1,15.471c.194-.292.278-.583.024-.781a6.47,6.47,0,0,0-2.633-1.206,5.2,5.2,0,0,0-6.008,3.127c-1.254,2.868.17,4.159,1.339,5.251.834.781,1.541,1.485,1.048,2.614a1.916,1.916,0,0,1-2.387,1.286,6.845,6.845,0,0,1-2.465-1.238.653.653,0,0,0-.877.21l-.886,1.307a.6.6,0,0,0,0,.809,8.49,8.49,0,0,0,3.225,1.452c2.654.587,5.09-.542,6.368-3.475,1.206-2.759-.061-4.208-1.189-5.336-.845-.858-1.643-1.509-1.255-2.4a1.732,1.732,0,0,1,2.124-1.2,4.286,4.286,0,0,1,1.921.971.518.518,0,0,0,.8-.178ZM148.5,32.1a.507.507,0,0,0-.307-.737l-8.128-1.8a.819.819,0,0,0-.841.482l-.628,1.436a.507.507,0,0,0,.312.733l2.674.594-4.927,11.3a.5.5,0,0,0,.307.733l1.626.36a.815.815,0,0,0,.842-.482l4.932-11.3,2.674.591a.813.813,0,0,0,.842-.481Zm-6.858,16.6a.506.506,0,0,0-.312-.737l-6.5-1.44a.814.814,0,0,0-.842.482l-5.822,13.342a.506.506,0,0,0,.312.732l6.5,1.44a.811.811,0,0,0,.842-.481l.607-1.392a.5.5,0,0,0-.312-.732l-4.3-.955,1.7-3.908,3.892.857a.817.817,0,0,0,.842-.481l.51-1.174a.5.5,0,0,0-.312-.732l-3.888-.862,1.376-3.151,4.3.951a.813.813,0,0,0,.841-.482Zm-3.346-18.861a.511.511,0,0,0-.311-.737l-6.5-1.436a.813.813,0,0,0-.842.481l-5.822,13.339a.51.51,0,0,0,.311.737l6.5,1.44a.813.813,0,0,0,.841-.482l.607-1.391a.509.509,0,0,0-.311-.737l-4.3-.951,1.707-3.912,3.888.862a.81.81,0,0,0,.842-.482l.513-1.173a.511.511,0,0,0-.311-.737l-3.888-.857,1.375-3.152,4.3.951a.817.817,0,0,0,.842-.481Zm-7.472,20.54c1.185-2.715.384-4.657-2.416-5.276l-3.868-.858a.822.822,0,0,0-.842.482l-5.817,13.342a.507.507,0,0,0,.308.737l1.626.36a.818.818,0,0,0,.841-.482l2.307-5.279,1.686.372a5.425,5.425,0,0,0,6.175-3.4m-1.485-22.352c.234-.376.271-.777-.141-.866l-1.582-.352a.891.891,0,0,0-.975.477l-4.807,8.849c-.356.659-1.145,2.152-1.574,2.985.368-1.108.74-2.217.983-3.187l2.371-9.318a.566.566,0,0,0-.465-.793l-2.363-.522a.885.885,0,0,0-1.02.465l-5.413,8.691c-.514.813-1.177,2.075-1.687,2.985.336-.926.9-2.375,1.132-3.111l2.978-9.2a.574.574,0,0,0-.457-.817l-1.873-.413c-.408-.089-.7.25-.8.655l-3.787,13.7a.588.588,0,0,0,.485.7l2.755.61a.982.982,0,0,0,.959-.384l5.713-9.27c.356-.561,1.133-2.132,1.436-2.73-.21.643-.793,2.233-.954,2.816l-2.638,9.973a.6.6,0,0,0,.485.7l2.715.6a.959.959,0,0,0,.959-.384Zm-6.862,16.4a.479.479,0,0,0-.3-.708l-4.138-.914a.761.761,0,0,0-.809.461l-.465,1.069a.479.479,0,0,0,.3.708l.679.15-4.4,10.082-.679-.15a.761.761,0,0,0-.814.465l-.465,1.064a.479.479,0,0,0,.3.708l4.139.914a.762.762,0,0,0,.809-.461l.465-1.064a.482.482,0,0,0-.3-.712l-.679-.15,4.4-10.082.679.15a.767.767,0,0,0,.813-.461Zm-6.044-1.145c.23-.376.271-.776-.142-.865l-1.586-.352a.893.893,0,0,0-.975.477l-4.807,8.848c-.356.659-1.141,2.153-1.574,2.986.372-1.108.74-2.218.983-3.188l2.375-9.318a.57.57,0,0,0-.465-.793l-2.367-.522a.877.877,0,0,0-1.016.465l-5.417,8.69c-.513.814-1.173,2.075-1.687,2.986.34-.927.9-2.375,1.133-3.111l2.978-9.2a.569.569,0,0,0-.457-.813l-1.87-.417c-.413-.089-.7.251-.8.656l-3.787,13.7a.587.587,0,0,0,.482.7l2.755.611a.977.977,0,0,0,.959-.385l5.713-9.265c.36-.566,1.133-2.132,1.44-2.735-.215.648-.793,2.233-.959,2.817L104.7,55.225a.6.6,0,0,0,.482.7l2.715.6a.954.954,0,0,0,.959-.385Z" transform="translate(-7.082 -2.517)" fill="#fff"/>
                <path id="Path_5039" data-name="Path 5039" d="M157.451,53.551c.255.2.17.49-.025.781l-.845,1.217a.519.519,0,0,1-.8.179,4.285,4.285,0,0,0-1.922-.971,1.731,1.731,0,0,0-2.123,1.2c-.388.891.408,1.542,1.254,2.4,1.128,1.128,2.395,2.577,1.189,5.336-1.279,2.934-3.715,4.062-6.368,3.475a8.47,8.47,0,0,1-3.225-1.452.6.6,0,0,1,0-.809l.886-1.307a.655.655,0,0,1,.878-.21,6.841,6.841,0,0,0,2.464,1.238,1.917,1.917,0,0,0,2.387-1.286c.493-1.128-.215-1.832-1.048-2.613-1.169-1.092-2.593-2.383-1.34-5.251a5.2,5.2,0,0,1,6.008-3.128,6.48,6.48,0,0,1,2.634,1.206" transform="translate(-14.326 -5.758)" fill="#005561"/>
                <path id="Path_5040" data-name="Path 5040" d="M155.371,32.615a.506.506,0,0,1,.307.737l-.623,1.432a.813.813,0,0,1-.842.481l-2.674-.591-4.932,11.3a.814.814,0,0,1-.841.482l-1.626-.36a.5.5,0,0,1-.307-.733l4.927-11.3-2.674-.594a.506.506,0,0,1-.311-.733L146.4,31.3a.819.819,0,0,1,.842-.482Z" transform="translate(-14.266 -3.769)" fill="#005561"/>
                <path id="Path_5041" data-name="Path 5041" d="M147.641,50.952a.506.506,0,0,1,.311.737l-.558,1.278a.814.814,0,0,1-.842.482l-4.3-.951-1.375,3.151,3.888.862a.5.5,0,0,1,.311.732l-.51,1.174a.817.817,0,0,1-.841.482l-3.892-.858-1.7,3.909,4.3.954a.5.5,0,0,1,.311.732l-.607,1.392a.81.81,0,0,1-.841.481l-6.5-1.44a.506.506,0,0,1-.311-.733L140.3,49.993a.814.814,0,0,1,.842-.482Z" transform="translate(-13.397 -5.506)" fill="#005561"/>
                <path id="Path_5042" data-name="Path 5042" d="M143.952,30.16a.51.51,0,0,1,.311.737l-.558,1.283a.817.817,0,0,1-.842.481l-4.3-.951-1.375,3.152,3.888.857a.511.511,0,0,1,.311.737l-.513,1.173a.81.81,0,0,1-.842.482l-3.888-.862-1.707,3.912,4.3.951a.509.509,0,0,1,.311.737l-.607,1.391a.813.813,0,0,1-.841.482l-6.5-1.44a.51.51,0,0,1-.311-.737L136.609,29.2a.813.813,0,0,1,.842-.481Z" transform="translate(-13.054 -3.575)" fill="#005561"/>
                <path id="Path_5043" data-name="Path 5043" d="M133.665,47.859c2.8.619,3.6,2.561,2.416,5.276a5.423,5.423,0,0,1-6.174,3.4l-1.687-.372-2.306,5.28a.82.82,0,0,1-.842.481l-1.626-.36a.507.507,0,0,1-.308-.736l5.818-13.343A.821.821,0,0,1,129.8,47Zm-.319,4.669c.53-1.217.158-1.967-1-2.221l-1.44-.319-1.6,3.674,1.44.319a2.245,2.245,0,0,0,2.6-1.452" transform="translate(-12.343 -5.273)" fill="#005561"/>
                <path id="Path_5044" data-name="Path 5044" d="M133.636,27.831c.413.089.376.49.141.865l-7.57,12.858a.959.959,0,0,1-.959.384l-2.714-.6a.6.6,0,0,1-.486-.7l2.638-9.973c.162-.582.745-2.172.955-2.816-.3.6-1.08,2.168-1.436,2.73l-5.713,9.269a.982.982,0,0,1-.959.385l-2.755-.61a.589.589,0,0,1-.486-.7l3.787-13.7c.109-.4.4-.744.805-.655l1.873.413a.575.575,0,0,1,.457.817L118.238,35c-.23.737-.8,2.185-1.133,3.111.51-.91,1.174-2.172,1.687-2.985l5.413-8.691a.884.884,0,0,1,1.019-.465l2.363.522a.566.566,0,0,1,.465.793L125.681,36.6c-.242.971-.614,2.08-.982,3.188.428-.834,1.217-2.327,1.574-2.986l4.806-8.848a.892.892,0,0,1,.975-.477Z" transform="translate(-11.524 -3.188)" fill="#005561"/>
                <path id="Path_5045" data-name="Path 5045" d="M132.988,50.613c1.153.255,1.525,1,1,2.221a2.245,2.245,0,0,1-2.6,1.452l-1.44-.32,1.6-3.673Z" transform="translate(-12.981 -5.58)" fill="#fff"/>
                <path id="Path_5046" data-name="Path 5046" d="M126.77,46.332a.48.48,0,0,1,.3.708l-.465,1.068a.766.766,0,0,1-.813.461l-.68-.15-4.4,10.082.68.15a.483.483,0,0,1,.3.712l-.465,1.064a.761.761,0,0,1-.809.461l-4.139-.914a.479.479,0,0,1-.3-.708l.465-1.064a.762.762,0,0,1,.813-.465l.68.15,4.4-10.082-.68-.15a.479.479,0,0,1-.3-.708l.465-1.069a.762.762,0,0,1,.809-.461Z" transform="translate(-11.678 -5.126)" fill="#005561"/>
                <path id="Path_5047" data-name="Path 5047" d="M119.408,44.655c.413.089.372.49.141.865l-7.573,12.858a.954.954,0,0,1-.959.384l-2.715-.6a.6.6,0,0,1-.482-.7l2.634-9.973c.166-.582.744-2.169.959-2.816-.308.6-1.08,2.168-1.44,2.735L104.26,56.67a.975.975,0,0,1-.959.385l-2.755-.61a.587.587,0,0,1-.482-.7l3.787-13.7c.109-.4.393-.744.805-.655l1.869.416a.569.569,0,0,1,.457.814l-2.978,9.2c-.23.737-.793,2.185-1.132,3.111.513-.91,1.173-2.172,1.686-2.985l5.418-8.691a.877.877,0,0,1,1.015-.465l2.367.522a.57.57,0,0,1,.465.793l-2.375,9.317c-.243.971-.61,2.08-.983,3.188.433-.834,1.218-2.327,1.574-2.986l4.807-8.848a.893.893,0,0,1,.975-.477Z" transform="translate(-10.202 -4.752)" fill="#005561"/>
                <path id="Path_5048" data-name="Path 5048" d="M54.617,5.143,9.707,62.26l-.013.012L1,60.634,49.12,3.6Z" transform="translate(-1 -1.242)" fill="#e7ecec"/>
              </g>
            </g>
          </g>
        </g>
        <path id="Path_5049" data-name="Path 5049" d="M183.344,42.391a3.329,3.329,0,0,1-.275,3.2l-20.52,30.436a2.786,2.786,0,0,1-2.876,1.23L68.8,58.182a3.193,3.193,0,0,1-2.055-4.438" transform="translate(-6.175 -3.939)" fill="none" stroke="#005561" stroke-miterlimit="10" stroke-width="2"/>
        <path id="Path_5050" data-name="Path 5050" d="M183.344,40.062a3.453,3.453,0,0,1-.275.5L162.549,71a2.773,2.773,0,0,1-2.873,1.225L68.8,53.146a2.886,2.886,0,0,1-2.055-1.732,3.322,3.322,0,0,1,.457-3.455l24.509-29.6a2.746,2.746,0,0,1,2.69-.979L181.285,35.62A3.193,3.193,0,0,1,183.344,40.062Z" transform="translate(-6.175 -1.61)" fill="none" stroke="#005561" stroke-miterlimit="10" stroke-width="2"/>
        <path id="Path_5051" data-name="Path 5051" d="M178.547,95.746,35.378,65.694l-3.528-.74" transform="translate(-2.959 -6.035)" fill="none" stroke="#005561" stroke-miterlimit="10" stroke-width="2"/>
        <line id="Line_476" data-name="Line 476" x2="138.367" y2="29.044" transform="translate(72.111 1.58)" fill="none" stroke="#005561" stroke-miterlimit="10" stroke-width="2"/>
        <path id="Path_5052" data-name="Path 5052" d="M76.237,1.21h.012A4.046,4.046,0,0,1,77.3,1.3l1.6.339" transform="translate(-7.083 -0.112)" fill="none" stroke="#005561" stroke-miterlimit="10" stroke-width="2"/>
        <line id="Line_477" data-name="Line 477" x1="146.697" y1="30.796" transform="translate(28.891 75.405)" fill="none" stroke="#005561" stroke-miterlimit="10" stroke-width="2"/>
        <path id="Path_5053" data-name="Path 5053" d="M10.6,67.889c.336-.267,7.1-5.563,19.277-3.006" transform="translate(-0.985 -5.964)" fill="none" stroke="#005561" stroke-miterlimit="10" stroke-width="2"/>
        <path id="Path_5054" data-name="Path 5054" d="M29.874,81.754c-14.548-2.8-19.29-13.472-19.29-13.472" transform="translate(-0.983 -6.344)" fill="none" stroke="#005561" stroke-miterlimit="10" stroke-width="2"/>
        <path id="Path_5055" data-name="Path 5055" d="M60.11,4.9S64.391-.019,74.739,1.19a.008.008,0,0,1,.012,0c.845.1,1.728.235,2.654.425h.012c.053.008.11.021.162.033l.117.024" transform="translate(-5.585 -0.093)" fill="none" stroke="#005561" stroke-miterlimit="10" stroke-width="2"/>
        <path id="Path_5056" data-name="Path 5056" d="M193.578,98.9c14.289,3.164,20.548,8.662,22.393,10.612a8.059,8.059,0,0,1,.615.712s-8.176,8.277-23.008,5.162" transform="translate(-17.986 -9.19)" fill="none" stroke="#005561" stroke-miterlimit="10" stroke-width="2"/>
        <path id="Path_5057" data-name="Path 5057" d="M254.071,45.029s-4.046-7.27-21.632-11.166" transform="translate(-21.597 -3.146)" fill="none" stroke="#005561" stroke-miterlimit="10" stroke-width="2"/>
        <path id="Path_5058" data-name="Path 5058" d="M55.508,5.3,10.6,62.418l-.013.012" transform="translate(-0.983 -0.492)" fill="none" stroke="#005561" stroke-linecap="round" stroke-linejoin="round" stroke-width="2" stroke-dasharray="12 12"/>
        <path id="Path_5059" data-name="Path 5059" d="M9.694,62.272,1,60.634,49.12,3.6l5.5,1.541" transform="translate(-0.093 -0.335)" fill="none" stroke="#005561" stroke-linecap="round" stroke-linejoin="round" stroke-width="2"/>
        <path id="Path_5060" data-name="Path 5060" d="M252.808,46.173l0,0-33.96,58.351" transform="translate(-20.334 -4.29)" fill="none" stroke="#005561" stroke-linecap="round" stroke-linejoin="round" stroke-width="2" stroke-dasharray="12 12"/>
        <path id="Path_5061" data-name="Path 5061" d="M252.817,46.173l7.3.991-31.812,59.6-9.361-1.432" transform="translate(-20.343 -4.29)" fill="none" stroke="#005561" stroke-miterlimit="10" stroke-width="2"/>
        <line id="Line_478" data-name="Line 478" x2="158.36" y2="31.491" transform="translate(25.108 66.816)" fill="none" stroke="#005561" stroke-miterlimit="10" stroke-width="2"/>
      </g>
    </g>
  </g>
</svg>
