<svg xmlns="http://www.w3.org/2000/svg" xmlns:xlink="http://www.w3.org/1999/xlink" width="365" height="365" viewBox="0 0 365 365">
  <defs>
    <filter id="Ellipse_82" x="0" y="0" width="365" height="365" filterUnits="userSpaceOnUse">
      <feOffset input="SourceAlpha"/>
      <feGaussianBlur stdDeviation="22.5" result="blur"/>
      <feFlood flood-opacity="0.2"/>
      <feComposite operator="in" in2="blur"/>
      <feComposite in="SourceGraphic"/>
    </filter>
    <clipPath id="clip-path">
      <rect id="Rectangle_3189" data-name="Rectangle 3189" width="187.739" height="94.962" fill="none"/>
    </clipPath>
  </defs>
  <g id="Group_3135" data-name="Group 3135" transform="translate(-703.5 -369.5)">
    <g transform="matrix(1, 0, 0, 1, 703.5, 369.5)" filter="url(#Ellipse_82)">
      <g id="Ellipse_82-2" data-name="Ellipse 82" transform="translate(67.5 67.5)" fill="#005661" stroke="#fff" stroke-width="4">
        <circle cx="115" cy="115" r="115" stroke="none"/>
        <circle cx="115" cy="115" r="113" fill="none"/>
      </g>
    </g>
    <g id="Group_3140" data-name="Group 3140" transform="translate(792.13 496.519)">
      <path id="Path_4983" data-name="Path 4983" d="M107.438,111.606H65.218V65.217h46.388v46.389Z" transform="translate(-17.737 -17.736)" fill="#fff"/>
      <g id="Group_3137" data-name="Group 3137">
        <g id="Group_3136" data-name="Group 3136" clip-path="url(#clip-path)">
          <path id="Path_4984" data-name="Path 4984" d="M107.438,111.606H65.218V65.217h46.388v46.389h-4.168" transform="translate(-17.737 -17.736)" fill="none" stroke="#005561" stroke-miterlimit="10" stroke-width="3"/>
        </g>
      </g>
      <rect id="Rectangle_3190" data-name="Rectangle 3190" width="39.292" height="39.292" transform="translate(51.03 51.03)" fill="#005561"/>
      <g id="Group_3139" data-name="Group 3139">
        <g id="Group_3138" data-name="Group 3138" clip-path="url(#clip-path)">
          <path id="Path_4985" data-name="Path 4985" d="M93.617,104.857c-6.211,0-9.336-4.572-9.336-13.107,0-8.383,3.048-13.07,9.336-13.07s9.336,4.687,9.336,13.07c0,8.535-3.125,13.107-9.336,13.107m0-22.176c-3.506,0-4.039,3.925-4.039,9.069,0,5.6.572,8.992,4.039,8.992s4.039-3.391,4.039-8.992c0-5.144-.534-9.069-4.039-9.069" transform="translate(-22.921 -21.398)" fill="#e7ecec"/>
          <path id="Path_4986" data-name="Path 4986" d="M171.156,111.606h-42.22V65.217h46.388v46.389Z" transform="translate(-35.065 -17.736)" fill="#fff"/>
          <path id="Path_4987" data-name="Path 4987" d="M171.156,111.606h-42.22V65.217h46.388v46.389h-4.168" transform="translate(-35.065 -17.736)" fill="none" stroke="#005561" stroke-miterlimit="10" stroke-width="3"/>
          <rect id="Rectangle_3191" data-name="Rectangle 3191" width="39.292" height="39.292" transform="translate(97.418 51.03)" fill="#005561"/>
          <path id="Path_4988" data-name="Path 4988" d="M159.11,94.865v8.8a1.091,1.091,0,0,1-1.067,1.067h-3.01a1.091,1.091,0,0,1-1.067-1.067V95.056l-6.821-14.479c-.381-.762-.152-1.372.724-1.372h3.658a1.542,1.542,0,0,1,1.524.877l2.82,7.735a19.141,19.141,0,0,1,.839,3.811,18.627,18.627,0,0,1,.838-3.811l2.9-7.735a1.543,1.543,0,0,1,1.524-.877h3.2c.8,0,1.067.61.724,1.372Z" transform="translate(-39.97 -21.54)" fill="#e7ecec"/>
          <path id="Path_4989" data-name="Path 4989" d="M43.721,111.606H1.5V65.217H47.889v46.389Z" transform="translate(-0.408 -17.736)" fill="#fff"/>
          <path id="Path_4990" data-name="Path 4990" d="M43.721,111.606H1.5V65.217H47.889v46.389H43.721" transform="translate(-0.408 -17.736)" fill="none" stroke="#005561" stroke-miterlimit="10" stroke-width="3"/>
          <rect id="Rectangle_3192" data-name="Rectangle 3192" width="39.292" height="39.292" transform="translate(4.641 51.03)" fill="#005561"/>
          <path id="Path_4991" data-name="Path 4991" d="M35.635,83.853H30.681v19.814a1.09,1.09,0,0,1-1.067,1.067H26.6a1.09,1.09,0,0,1-1.067-1.067V83.853H20.584a1.091,1.091,0,0,1-1.067-1.067V80.271A1.091,1.091,0,0,1,20.584,79.2H35.635A1.091,1.091,0,0,1,36.7,80.271v2.515a1.091,1.091,0,0,1-1.067,1.067" transform="translate(-5.308 -21.54)" fill="#e7ecec"/>
          <rect id="Rectangle_3193" data-name="Rectangle 3193" width="46.389" height="46.389" transform="translate(140.258 47.481)" fill="#fff"/>
          <rect id="Rectangle_3194" data-name="Rectangle 3194" width="46.389" height="46.389" transform="translate(140.258 47.481)" fill="none" stroke="#005561" stroke-miterlimit="10" stroke-width="3"/>
          <rect id="Rectangle_3195" data-name="Rectangle 3195" width="39.292" height="39.292" transform="translate(143.807 51.03)" fill="#005561"/>
          <path id="Path_4992" data-name="Path 4992" d="M220.3,104.858a18.919,18.919,0,0,1-6.516-1.181,1.11,1.11,0,0,1-.609-1.3l.534-2.4a1.006,1.006,0,0,1,1.334-.648,15.178,15.178,0,0,0,5.068,1.105c1.9,0,3.086-.8,3.086-2.9,0-1.981-1.715-2.858-3.7-3.81-2.782-1.334-6.134-2.9-6.134-7.925,0-4.192,3.048-7.126,7.849-7.126a14.473,14.473,0,0,1,5.334.991.969.969,0,0,1,.534,1.257l-.534,2.248c-.114.534-.533.839-1.219.572a9.688,9.688,0,0,0-3.963-.877,2.374,2.374,0,0,0-2.705,2.668c0,1.562,1.829,2.325,3.886,3.391,2.743,1.41,5.944,3.277,5.944,8.116,0,5.144-3.277,7.811-8.193,7.811" transform="translate(-57.967 -21.398)" fill="#e7ecec"/>
          <rect id="Rectangle_3196" data-name="Rectangle 3196" width="46.389" height="46.389" transform="translate(14.208 1.091)" fill="#fff"/>
          <rect id="Rectangle_3197" data-name="Rectangle 3197" width="46.389" height="46.389" transform="translate(14.208 1.091)" fill="none" stroke="#005561" stroke-miterlimit="10" stroke-width="3"/>
          <rect id="Rectangle_3198" data-name="Rectangle 3198" width="39.292" height="39.292" transform="translate(17.758 4.641)" fill="#005561"/>
          <path id="Path_4993" data-name="Path 4993" d="M56.24,41.016H52.43a1.638,1.638,0,0,1-1.677-.877L44.771,28.48V39.988A1.083,1.083,0,0,1,43.7,41.016h-3.01a1.083,1.083,0,0,1-1.067-1.029V16.516a1.083,1.083,0,0,1,1.067-1.029H43.7a1.083,1.083,0,0,1,1.067,1.029V25.47l5.564-9.106a1.7,1.7,0,0,1,1.677-.877h3.467c.839,0,1.143.686.648,1.409l-6.745,9.869,7.507,12.84c.5.839.19,1.41-.648,1.41" transform="translate(-10.777 -4.212)" fill="#e7ecec"/>
          <rect id="Rectangle_3199" data-name="Rectangle 3199" width="46.389" height="46.389" transform="translate(60.785 1.091)" fill="#fff"/>
          <rect id="Rectangle_3200" data-name="Rectangle 3200" width="46.389" height="46.389" transform="translate(60.785 1.091)" fill="none" stroke="#005561" stroke-miterlimit="10" stroke-width="3"/>
          <rect id="Rectangle_3201" data-name="Rectangle 3201" width="39.292" height="39.292" transform="translate(64.333 4.641)" fill="#005561"/>
          <path id="Path_4994" data-name="Path 4994" d="M116.566,41.016h-7.659a1.024,1.024,0,0,1-1.029-1.029V38.12a1.024,1.024,0,0,1,1.029-1.029h1.257V19.412h-1.257a1.025,1.025,0,0,1-1.029-1.029V16.516a1.024,1.024,0,0,1,1.029-1.029h7.659a1.024,1.024,0,0,1,1.029,1.029v1.867a1.025,1.025,0,0,1-1.029,1.029h-1.257v17.68h1.257a1.024,1.024,0,0,1,1.029,1.029v1.867a1.024,1.024,0,0,1-1.029,1.029" transform="translate(-29.339 -4.212)" fill="#e7ecec"/>
          <rect id="Rectangle_3202" data-name="Rectangle 3202" width="46.389" height="46.389" transform="translate(107.173 1.091)" fill="#fff"/>
          <rect id="Rectangle_3203" data-name="Rectangle 3203" width="46.389" height="46.389" transform="translate(107.173 1.091)" fill="none" stroke="#005561" stroke-miterlimit="10" stroke-width="3"/>
          <rect id="Rectangle_3204" data-name="Rectangle 3204" width="39.292" height="39.292" transform="translate(110.722 4.641)" fill="#005561"/>
          <path id="Path_4995" data-name="Path 4995" d="M176.719,41.016h-7.126a1.09,1.09,0,0,1-1.067-1.067v-23.4a1.091,1.091,0,0,1,1.067-1.067h6.859c3.62,0,9.259,1.219,9.259,12.765,0,7.507-1.829,12.765-8.992,12.765M175.613,19.64H173.67V36.673h1.752c3.734,0,4.991-1.982,4.991-8.536,0-5.677-1.181-8.5-4.8-8.5" transform="translate(-45.833 -4.212)" fill="#e7ecec"/>
        </g>
      </g>
    </g>
  </g>
</svg>
