<svg xmlns="http://www.w3.org/2000/svg" xmlns:xlink="http://www.w3.org/1999/xlink" width="383" height="383" viewBox="0 0 383 383">
  <defs>
    <filter id="Ellipse_81" x="0" y="0" width="383" height="383" filterUnits="userSpaceOnUse">
      <feOffset input="SourceAlpha"/>
      <feGaussianBlur stdDeviation="22.5" result="blur"/>
      <feFlood flood-opacity="0.2"/>
      <feComposite operator="in" in2="blur"/>
      <feComposite in="SourceGraphic"/>
    </filter>
    <clipPath id="clip-path">
      <rect id="Rectangle_3182" data-name="Rectangle 3182" width="171.846" height="194.459" fill="none"/>
    </clipPath>
  </defs>
  <g id="Group_3127" data-name="Group 3127" transform="translate(-860.459 -139.459)">
    <g transform="matrix(1, 0, 0, 1, 860.46, 139.46)" filter="url(#Ellipse_81)">
      <g id="Ellipse_81-2" data-name="Ellipse 81" transform="translate(67.5 67.5)" fill="#005661" stroke="#fff" stroke-width="4">
        <circle cx="124" cy="124" r="124" stroke="none"/>
        <circle cx="124" cy="124" r="122" fill="none"/>
      </g>
    </g>
    <g id="Group_3120" data-name="Group 3120" transform="translate(954.413 227.391)">
      <g id="Group_3119" data-name="Group 3119" transform="translate(0)" clip-path="url(#clip-path)">
        <path id="Path_4904" data-name="Path 4904" d="M174.454,70.767a13.226,13.226,0,0,0-7.125-1.845,65.626,65.626,0,0,0-3.47-6.363c-4.947-8.068-12.634-17.546-22.13-26.844C121.258,15.683,100.107,4.094,94.487,9.837c-4.833,4.934,3.389,21.073,18.8,38.234,2.514,2.8,5.221,5.629,8.092,8.439a151.256,151.256,0,0,0,25.856,20.674c.784.477,1.558.933,2.314,1.358,1.7,1.647,2.328,4.328,2.289,7.651-10.36-5-22.693-13.885-34.557-25.493C93.5,37.419,80.6,12.019,88.486,3.965s33.555,4.283,57.345,27.564C159.788,45.19,170,59.58,174.454,70.767" transform="translate(-10.539 -0.183)" fill="#fff"/>
        <path id="Path_4905" data-name="Path 4905" d="M175.026,95.29a16.559,16.559,0,0,1,.054,2.487l-3.138-2.823a14.211,14.211,0,0,0,3.084.336" transform="translate(-21.028 -11.613)" fill="#fff"/>
        <path id="Path_4906" data-name="Path 4906" d="M164.826,63.516l-16.988-4.868c-8.842-5.257-16.94-12.5-33.583-9.62-15.412-17.161-23.635-33.3-18.8-38.233,5.62-5.744,26.772,5.845,47.242,25.878,9.5,9.3,17.183,18.776,22.13,26.843" transform="translate(-11.505 -1.14)" fill="#fff"/>
        <path id="Path_4907" data-name="Path 4907" d="M155.329,65.521l16.988,4.868c-6.947.362-12.085-1.947-16.988-4.868" transform="translate(-18.997 -8.013)" fill="#fff"/>
        <path id="Path_4908" data-name="Path 4908" d="M114.753,61.044c-23.789-23.281-36.68-48.681-28.8-56.735L67.775,22.886c-7.881,8.054,5.009,33.454,28.8,56.73,17.767,17.391,36.588,28.68,48.26,29.918.727-3,1.518-6.062,2.23-9.058a67.39,67.39,0,0,0,2.244-13.94c-10.36-5-22.692-13.886-34.556-25.493" transform="translate(-8.006 -0.527)" fill="#fff"/>
        <path id="Path_4909" data-name="Path 4909" d="M155.748,87.724a5.9,5.9,0,0,1,2.315,1.363c-.757-.425-1.532-.88-2.315-1.359Z" transform="translate(-19.048 -10.729)" fill="#fff"/>
        <path id="Path_4910" data-name="Path 4910" d="M177.134,129.687c11.134-32.078,9.054-47.556,1.1-52.522a13.231,13.231,0,0,0-7.124-1.846,65.9,65.9,0,0,0-3.469-6.363c-6.948.363-12.086-1.947-16.988-4.867-8.842-5.257-16.94-12.5-33.583-9.621,2.513,2.8,5.221,5.63,8.093,8.439a151.069,151.069,0,0,0,25.856,20.675v0a5.9,5.9,0,0,1,2.314,1.362c1.7,1.646,2.328,4.328,2.287,7.651-.039,3.969-1.026,8.85-2.243,13.94-.713,3-1.5,6.062-2.23,9.058-.748,3.071-1.42,6.067-1.867,8.841-1.488,9.245-.443,15.979,8.956,14.532,18.626-2.867-5.217,60.762,11.829,60.762,17.288,0,.318-50.584,7.071-70.037m-8.819-39.428a16.561,16.561,0,0,1,.054,2.487" transform="translate(-14.317 -6.582)" fill="#e7ecec"/>
        <path id="Path_4911" data-name="Path 4911" d="M94.221,149.866c-11.266-4.235-25.839-14.116-39.76-27.737S30.344,94.149,25.87,82.975c-3.173-7.921-3.477-14.235-.208-17.581L3.811,87.719h0c-7.881,8.058,5.01,33.458,28.795,56.735s49.455,35.618,57.345,27.569l0,0,21.847-22.325c-3.27,3.346-9.6,3.173-17.586.173" transform="translate(-0.184 -7.998)" fill="#fff"/>
        <path id="Path_4912" data-name="Path 4912" d="M96.895,131.941l.27.266c-.43.513-.85,1.026-1.257,1.531.336-.624.668-1.226.987-1.8" transform="translate(-11.73 -16.136)" fill="#fff"/>
        <path id="Path_4913" data-name="Path 4913" d="M91.795,82.2C68.005,58.928,55.115,33.528,63,25.474L28.706,60.513c-3.27,3.345-2.965,9.66.208,17.58,4.474,11.174,14.669,25.529,28.59,39.154s28.494,23.5,39.76,27.736c7.987,3,14.315,3.173,17.586-.172l23.338-23.847c.448-2.774,1.12-5.771,1.868-8.842-11.673-1.238-30.494-12.527-48.261-29.918m-53.482-8.8a.909.909,0,0,1-1.509-.23q-.876-1.613-1.717-3.243a1.97,1.97,0,0,1,.3-2.067l.413-.42q9.511-9.711,19.019-19.435a.883.883,0,0,1,1.478.256q2,3.884,4.195,7.638c3.2,5.425,2.806,10.559-1.168,14.612-3.915,4-8.624,3.125-11.434-1.669-.642-1.088-1.266-2.19-1.881-3.3q-2.974,3.04-5.943,6.072c-.585.592-1.169,1.19-1.748,1.783m20.072,30.229q-1.386-1.534-2.73-3.1a1.727,1.727,0,0,1-.248-2.035q1.5-2.582,3.014-5.173-2.848-3.457-5.5-7.075-2.39,1.46-4.77,2.924a1.289,1.289,0,0,1-1.726-.5c-.735-1.044-1.456-2.092-2.164-3.154a1.377,1.377,0,0,1,.522-2.013q2.337-1.342,4.678-2.687,9.405-5.4,18.9-10.872a1.38,1.38,0,0,1,1.747.491Q72,72.96,73.975,75.412a1.934,1.934,0,0,1,.226,2.054q-4.925,9.033-9.776,18h0q-2.117,3.915-4.221,7.819a1.8,1.8,0,0,1-.212.31,1,1,0,0,1-1.607.04M68.9,112.557a1.252,1.252,0,0,1-1.756.026q-3.352-3.16-6.518-6.519a1.294,1.294,0,0,1,.009-1.778l.031-.032c.509-.517,1.013-1.035,1.518-1.553a1.166,1.166,0,0,1,1.7.031c.345.367.694.735,1.044,1.1q1.966-2.01,3.934-4.018,5.37-5.5,10.749-10.987c-.349-.363-.7-.73-1.044-1.1a1.291,1.291,0,0,1,.009-1.778c.518-.527,1.031-1.053,1.548-1.584a1.166,1.166,0,0,1,1.7.031q3.158,3.359,6.518,6.523a1.2,1.2,0,0,1,.048,1.721q-.777.79-1.553,1.584a1.257,1.257,0,0,1-1.757.026c-.367-.345-.735-.7-1.1-1.044q-5.35,5.462-10.7,10.934-1.991,2.031-3.983,4.072c.363.349.73.694,1.1,1.044a1.193,1.193,0,0,1,.048,1.718q-.775.8-1.554,1.584M87.91,127.664a1.6,1.6,0,0,1-1.92.147q-2.3-1.58-4.527-3.235a1.212,1.212,0,0,1-.416-1.6Q82.706,119,84.383,115q1.554-3.7,3.119-7.43c.73-1.788,2.358-4.306,3.726-6.753-1.717,2.213-4.106,5.443-5.69,7.062q-2.064,2.112-4.124,4.217-3.02,3.081-6.036,6.164a1.417,1.417,0,0,1-1.836.045c-.841-.713-1.678-1.43-2.5-2.16a1.219,1.219,0,0,1-.106-1.726q3.14-3.212,6.288-6.426,6.6-6.75,13.205-13.5a1.379,1.379,0,0,1,1.814-.018q2,1.759,4.053,3.452c.566.469,1.066,1.394.8,1.991q-3.125,7.19-6.2,14.3c-.592,1.341-1.5,2.9-2.5,4.7l.27.265c1.491-1.8,3.054-3.589,4.283-4.85q4.859-4.958,9.714-9.925a1.556,1.556,0,0,1,1.9-.119q1.307.943,2.637,1.854a1.051,1.051,0,0,1,.208,1.6q-7.441,7.6-14.886,15.21-2.3,2.357-4.607,4.708m39.959-8.164q-1.049,1.069-2.089,2.137a1.957,1.957,0,0,1-2.057.341q-2.723-1.32-5.372-2.743-7.254,7.407-14.5,14.815c-.655.669-1.31,1.332-1.96,2a1.83,1.83,0,0,1-2.027.288c-1.072-.585-2.133-1.177-3.19-1.788A.96.96,0,0,1,96.445,133q1.547-1.58,3.1-3.164Q106.221,123,112.9,116.181q-2.588-1.521-5.116-3.138a1.019,1.019,0,0,1-.2-1.6l2.092-2.137a1.671,1.671,0,0,1,1.97-.2,157.675,157.675,0,0,0,15.935,8.93.879.879,0,0,1,.288,1.469" transform="translate(-3.228 -3.115)" fill="#fff"/>
        <path id="Path_4914" data-name="Path 4914" d="M74.188,82.042c-.77.982-1.9,2.528-2.651,3.749Q68.6,90.55,65.679,95.3q-1.979-2.449-3.864-4.974,4.4-2.84,8.819-5.695a31.215,31.215,0,0,0,3.554-2.589" transform="translate(-7.56 -10.034)" fill="#fff"/>
        <path id="Path_4915" data-name="Path 4915" d="M59.833,63.489c1.305,2.243,1.181,4.359-.593,6.168-1.676,1.712-3.522,1.417-4.756-.7-.545-.934-1.076-1.872-1.6-2.819q2.675-2.734,5.35-5.465.783,1.421,1.6,2.819" transform="translate(-6.467 -7.42)" fill="#fff"/>
        <path id="Path_4916" data-name="Path 4916" d="M137.3,129.651a157.672,157.672,0,0,1-15.935-8.93,1.671,1.671,0,0,0-1.97.2c-.7.712-1.394,1.425-2.093,2.137a1.019,1.019,0,0,0,.2,1.6q2.529,1.613,5.115,3.138-6.678,6.822-13.355,13.651-1.554,1.58-3.1,3.164a.959.959,0,0,0,.231,1.554c1.057.611,2.119,1.2,3.19,1.788a1.83,1.83,0,0,0,2.027-.288c.651-.668,1.306-1.332,1.961-2q7.241-7.407,14.5-14.816,2.655,1.421,5.372,2.744a1.958,1.958,0,0,0,2.057-.341q1.041-1.069,2.089-2.137a.879.879,0,0,0-.288-1.469" transform="translate(-12.947 -14.736)" fill="#005561"/>
        <path id="Path_4917" data-name="Path 4917" d="M113.359,115.713q-1.327-.91-2.637-1.855a1.556,1.556,0,0,0-1.9.12q-4.853,4.965-9.714,9.925c-1.231,1.261-2.793,3.049-4.284,4.85-.429.513-.85,1.027-1.256,1.531.335-.624.668-1.225.987-1.8,1.008-1.805,1.912-3.362,2.5-4.7q3.068-7.109,6.2-14.3c.265-.6-.234-1.522-.8-1.991q-2.058-1.692-4.054-3.451a1.379,1.379,0,0,0-1.814.018q-6.605,6.751-13.2,13.5-3.148,3.212-6.289,6.426a1.219,1.219,0,0,0,.106,1.726c.823.73,1.66,1.447,2.5,2.16a1.418,1.418,0,0,0,1.836-.045q3.02-3.079,6.036-6.164,2.058-2.11,4.124-4.217c1.584-1.619,3.973-4.849,5.691-7.062-1.368,2.447-3,4.965-3.727,6.752q-1.565,3.725-3.119,7.43-1.68,4-3.337,7.984a1.212,1.212,0,0,0,.416,1.6q2.23,1.659,4.527,3.234a1.6,1.6,0,0,0,1.92-.146q2.3-2.357,4.607-4.708,7.44-7.607,14.886-15.21a1.051,1.051,0,0,0-.208-1.6" transform="translate(-9.391 -12.684)" fill="#005561"/>
        <path id="Path_4918" data-name="Path 4918" d="M76.657,83.642a1.934,1.934,0,0,0-.226-2.054q-1.979-2.449-3.864-4.974a1.38,1.38,0,0,0-1.748-.491Q61.321,81.6,51.916,87q-2.343,1.348-4.678,2.687a1.377,1.377,0,0,0-.522,2.013q1.062,1.593,2.164,3.155a1.29,1.29,0,0,0,1.726.5q2.383-1.46,4.77-2.925,2.649,3.617,5.5,7.075-1.513,2.59-3.014,5.173a1.727,1.727,0,0,0,.248,2.035q1.34,1.567,2.73,3.1a1,1,0,0,0,1.607-.04,1.8,1.8,0,0,0,.212-.31q2.1-3.9,4.221-7.819,4.853-8.968,9.776-18m-7.9.248A31.286,31.286,0,0,0,72.311,81.3a45.769,45.769,0,0,0-2.651,3.748q-2.935,4.759-5.859,9.51-1.979-2.45-3.864-4.974,4.4-2.841,8.819-5.7" transform="translate(-5.683 -9.292)" fill="#005561"/>
        <path id="Path_4919" data-name="Path 4919" d="M75.126,117.411c-.367-.349-.735-.7-1.1-1.044q1.991-2.038,3.982-4.071,5.35-5.47,10.7-10.934.545.524,1.1,1.044a1.255,1.255,0,0,0,1.756-.027q.777-.8,1.554-1.584a1.2,1.2,0,0,0-.049-1.721q-3.359-3.166-6.518-6.522a1.166,1.166,0,0,0-1.7-.032c-.518.531-1.031,1.058-1.549,1.584a1.292,1.292,0,0,0-.009,1.779c.345.368.7.735,1.044,1.1q-5.377,5.49-10.748,10.988-1.972,2.012-3.935,4.018c-.349-.362-.7-.73-1.044-1.1a1.167,1.167,0,0,0-1.7-.032q-.756.777-1.518,1.554l-.031.031a1.3,1.3,0,0,0-.009,1.779q3.166,3.352,6.518,6.519a1.252,1.252,0,0,0,1.757-.027q.775-.79,1.554-1.584a1.193,1.193,0,0,0-.049-1.717" transform="translate(-7.949 -11.272)" fill="#005561"/>
        <path id="Path_4920" data-name="Path 4920" d="M49.073,71.948c2.81,4.793,7.518,5.673,11.435,1.669C64.481,69.562,64.871,64.43,61.676,59q-2.2-3.75-4.2-7.638A.883.883,0,0,0,56,51.11Q46.5,60.828,36.984,70.545c-.137.141-.275.278-.412.42a1.967,1.967,0,0,0-.3,2.066q.843,1.632,1.717,3.244a.91.91,0,0,0,1.51.23c.579-.593,1.163-1.19,1.748-1.783q2.967-3.033,5.943-6.071c.615,1.106,1.239,2.207,1.881,3.3M56.18,59.465q.783,1.421,1.6,2.819c1.305,2.243,1.181,4.359-.593,6.168-1.677,1.712-3.522,1.416-4.757-.7-.544-.934-1.075-1.87-1.6-2.818q2.675-2.736,5.35-5.465" transform="translate(-4.416 -6.214)" fill="#005561"/>
        <path id="Path_4921" data-name="Path 4921" d="M67.774,25.474c-7.881,8.054,5.009,33.454,28.8,56.73,17.766,17.391,36.587,28.68,48.26,29.918" transform="translate(-8.006 -3.115)" fill="none" stroke="#005561" stroke-miterlimit="10" stroke-width="3"/>
        <path id="Path_4922" data-name="Path 4922" d="M3.815,90.83c-7.881,8.058,5.009,33.459,28.795,56.735s49.455,35.618,57.345,27.569" transform="translate(-0.183 -11.108)" fill="none" stroke="#005561" stroke-miterlimit="10" stroke-width="3"/>
        <path id="Path_4923" data-name="Path 4923" d="M78.453,4.309,60.275,22.886,25.984,57.924,4.133,80.249" transform="translate(-0.505 -0.527)" fill="none" stroke="#005561" stroke-miterlimit="10" stroke-width="3"/>
        <path id="Path_4924" data-name="Path 4924" d="M147.47,134.27l-23.338,23.847-21.847,22.324,0,.005" transform="translate(-12.509 -16.421)" fill="none" stroke="#005561" stroke-miterlimit="10" stroke-width="3"/>
        <path id="Path_4925" data-name="Path 4925" d="M28.706,65.395c-3.27,3.346-2.965,9.66.208,17.581,4.474,11.173,14.669,25.529,28.591,39.153s28.493,23.5,39.76,27.737c7.987,3,14.315,3.173,17.585-.173" transform="translate(-3.228 -7.998)" fill="none" stroke="#005561" stroke-miterlimit="10" stroke-width="3"/>
        <path id="Path_4926" data-name="Path 4926" d="M151.84,86.193C141.481,81.2,129.148,72.307,117.285,60.7,93.5,37.419,80.6,12.018,88.485,3.965s33.556,4.283,57.345,27.564C159.788,45.189,170,59.58,174.453,70.767" transform="translate(-10.539 -0.183)" fill="none" stroke="#005561" stroke-miterlimit="10" stroke-width="3"/>
        <path id="Path_4927" data-name="Path 4927" d="M150.52,79.5c-.757-.425-1.531-.88-2.314-1.359a151.136,151.136,0,0,1-25.856-20.674c-2.872-2.81-5.58-5.637-8.093-8.438-15.412-17.161-23.635-33.3-18.8-38.234,5.62-5.744,26.772,5.845,47.242,25.878,9.5,9.3,17.183,18.776,22.13,26.843a65.925,65.925,0,0,1,3.47,6.363" transform="translate(-11.505 -1.14)" fill="none" stroke="#005561" stroke-miterlimit="10" stroke-width="3"/>
        <path id="Path_4928" data-name="Path 4928" d="M155.429,86.573a5.9,5.9,0,0,1,2.314,1.363c1.7,1.646,2.328,4.328,2.287,7.651a67.315,67.315,0,0,1-2.243,13.939c-.712,3-1.5,6.063-2.23,9.059-.748,3.071-1.42,6.067-1.867,8.841-1.487,9.244-.443,15.979,8.956,14.532,18.626-2.867-5.217,60.761,11.829,60.761,17.289,0,.319-50.584,7.071-70.036,11.134-32.078,9.054-47.556,1.1-52.522a13.225,13.225,0,0,0-7.125-1.846,21,21,0,0,0-3.186.253" transform="translate(-18.729 -9.578)" fill="none" stroke="#005561" stroke-linecap="round" stroke-miterlimit="10" stroke-width="3"/>
        <path id="Path_4929" data-name="Path 4929" d="M156.948,81.409a13.132,13.132,0,0,1,8.788.836,13.712,13.712,0,0,1,7.456,11.342,16.56,16.56,0,0,1,.054,2.487" transform="translate(-19.195 -9.908)" fill="none" stroke="#005561" stroke-linecap="round" stroke-miterlimit="10" stroke-width="3"/>
        <path id="Path_4930" data-name="Path 4930" d="M167.638,68.957c-6.948.362-12.085-1.947-16.988-4.868-8.842-5.257-16.94-12.5-33.583-9.62" transform="translate(-14.317 -6.582)" fill="none" stroke="#005561" stroke-linecap="round" stroke-miterlimit="10" stroke-width="3"/>
      </g>
    </g>
  </g>
</svg>
