<svg xmlns="http://www.w3.org/2000/svg" xmlns:xlink="http://www.w3.org/1999/xlink" width="447" height="447" viewBox="0 0 447 447">
  <defs>
    <filter id="Ellipse_83" x="0" y="0" width="447" height="447" filterUnits="userSpaceOnUse">
      <feOffset input="SourceAlpha"/>
      <feGaussianBlur stdDeviation="22.5" result="blur"/>
      <feFlood flood-opacity="0.2"/>
      <feComposite operator="in" in2="blur"/>
      <feComposite in="SourceGraphic"/>
    </filter>
    <clipPath id="clip-path">
      <rect id="Rectangle_3188" data-name="Rectangle 3188" width="202.879" height="172.692" fill="none"/>
    </clipPath>
    <clipPath id="clip-path-2">
      <rect id="Rectangle_3187" data-name="Rectangle 3187" width="200.108" height="169.921" fill="none"/>
    </clipPath>
  </defs>
  <g id="Group_3141" data-name="Group 3141" transform="translate(-909.127 -568.127)">
    <g transform="matrix(1, 0, 0, 1, 909.13, 568.13)" filter="url(#Ellipse_83)">
      <g id="Ellipse_83-2" data-name="Ellipse 83" transform="translate(67.5 67.5)" fill="#005661" stroke="#fff" stroke-width="4">
        <circle cx="156" cy="156" r="156" stroke="none"/>
        <circle cx="156" cy="156" r="154" fill="none"/>
      </g>
    </g>
    <g id="Group_3134" data-name="Group 3134" transform="translate(1039.047 703.928)">
      <g id="Group_3133" data-name="Group 3133" clip-path="url(#clip-path)">
        <g id="Group_3132" data-name="Group 3132" transform="translate(1.386 1.386)">
          <g id="Group_3131" data-name="Group 3131" clip-path="url(#clip-path-2)">
            <g id="Group_3130" data-name="Group 3130">
              <g id="Group_3129" data-name="Group 3129" clip-path="url(#clip-path-2)">
                <path id="Path_4943" data-name="Path 4943" d="M175.1,93.329c15.471,1.984,15.492,43.537,14.431,59.947s-45.258,25.144-109.416,25.144S13,166.775,18.423,157.515s-1.984-14.823,5.143-20.25c2.169,3.087,4.253,1.323,4.253,1.323s3.97,5.029,9.4,3.578c1.324,2.646,8.734,4.858,14.027.79,2.119,3.307,10.455,6.088,18.13.675,2.248,3.713,10.74,5.676,13.764-1.073,2.909,1.856,10.057,1.984,14.951-5.292,4.631.661,10.321-.79,14.688-10.719a28.079,28.079,0,0,0,21.9-7.141c11.315.526,15.185-11.253,15.185-11.253s19.688-.661,26.83-12.177a9.851,9.851,0,0,0-1.6-2.646Z" transform="translate(-2.65 -8.498)" fill="#e7ecec"/>
                <path id="Path_4944" data-name="Path 4944" d="M201.608,48.356c-6.152,25.086-22.889,32.711-22.889,32.711l-.434-.007a28.4,28.4,0,0,0-.625-12.589c-2.383-9-12.576,0-12.576,0s-7.938-8.734-16.139-3.179c-1.061-4.233-7.675-12.441-14.56-6.352-7.675-9.788-17.732-2.646-17.732-2.646s-5.029-13.827-16.673-4.766c-1.849-7.4-14.823-16.139-23.024.271-1.324-3.18-14.29-13.237-21.175,1.052-1.06-5.555-12.44-18.806-25.67-1.052-11.643-17.207-17.995,4.5-17.995,4.5s-3.443-6.352-6.886-2.12c-.455,1.53-.825,2.952-1.116,4.282-3.649-5.6.59-8.4,3.763-18.116S2.322,26.392,1.526,16.6,18.2-1.931,38.05,8.924s64.313-21.438,86.413.263,74.762,16.672,77.145,39.17" transform="translate(-1.5 -1.5)" fill="#e7ecec"/>
                <path id="Path_4945" data-name="Path 4945" d="M177.8,71.851a28.408,28.408,0,0,1,.626,12.589A14.275,14.275,0,0,1,177.8,86.8a29.331,29.331,0,0,1-6.081.406c-2.66-.106-5.654-.647-7.781-2.261a7.014,7.014,0,0,1-1.622-1.715c-4.766,1.722-12.568,1.06-15.35-.661-7.937,4.1-16.672-.4-16.672-.4s-10.057.661-15.35-3.307c-6.75,3.57-15.883-2.042-15.883-2.042s-4.253,5.206-10.584,5.7h-.014a12.393,12.393,0,0,1-5.1-.668,16.063,16.063,0,0,1-3.62-1.8C75.709,82.129,70.815,82.371,66.654,82a43.44,43.44,0,0,1-9.147-1.813s-8.862,11.778-26.729,5.157c-15.748,5.825-19.183-4.758-19.183-4.758s-11.58.463-7.34-18.749c.292-1.33.661-2.753,1.117-4.282,3.442-4.232,6.885,2.119,6.885,2.119s6.352-21.7,18-4.5c13.23-17.753,24.61-4.5,25.669,1.053C62.807,41.941,75.773,52,77.1,55.178c8.2-16.409,21.174-7.675,23.024-.27,11.643-9.062,16.673,4.765,16.673,4.765s10.057-7.141,17.732,2.647c6.885-6.089,13.5,2.119,14.56,6.351,8.2-5.555,16.139,3.18,16.139,3.18s10.193-9,12.576,0" transform="translate(-1.639 -4.88)" fill="#fff"/>
                <path id="Path_4946" data-name="Path 4946" d="M42.545,117.633c2.667.313,6.131,1.28,7.788,4.147,6.352-3.194,18.265,1.849,18.265,1.849s8.863-5.022,13.892,0c4.9-4.118,13.1-2.909,13.1-2.909s1.586-7.8,10.719-6.352c3.571-9,20.379-9.794,20.379-9.794a13.2,13.2,0,0,1,1.643-3.172c1.907-2.753,5.683-6.125,12.383-4.894,6.885-5.028,15.022-11.017,24.383-8.741,2.127,1.614,5.122,2.155,7.781,2.261l-.006.156a15.6,15.6,0,0,1,2.369,2.347,9.854,9.854,0,0,1,1.6,2.647c-7.141,11.515-26.83,12.176-26.83,12.176s-3.869,11.779-15.185,11.253a28.074,28.074,0,0,1-21.9,7.141c-4.368,9.93-10.057,11.38-14.688,10.719-4.893,7.277-12.042,7.148-14.951,5.292-3.023,6.75-11.516,4.787-13.764,1.073-7.674,5.413-16.01,2.632-18.13-.675-5.291,4.068-12.7,1.857-14.026-.79-5.427,1.451-9.4-3.578-9.4-3.578s-2.084,1.764-4.254-1.323a14.93,14.93,0,0,1-1.835-3.969,81.723,81.723,0,0,1-3.307-16.274s4.367-3.179,7.937-2.781c2.782-7.013,12.839-9,12.839-9,1.194-7.412,12.7-6.224,12.7-6.224,1.323-5.029,13.365-7.013,13.365-7.013a22.36,22.36,0,0,1,2.4-6.387c4.162.37,9.055.128,13.088-1.949a15.966,15.966,0,0,0,3.62,1.8l-.05.15c1.458,1.558,1.458,5.363,1.458,5.363S81.7,95.449,72.7,98.756c0,3.571-6.614,8.073-14.154,9.922-2.781,4.631-9.794,4.9-9.794,4.9s.8,3.564-6.2,4.055" transform="translate(-2.801 -7.701)" fill="#fff"/>
                <path id="Path_4947" data-name="Path 4947" d="M169.339,85.786A7.045,7.045,0,0,0,170.96,87.5c-9.36-2.276-17.5,3.713-24.383,8.741-6.7-1.23-10.477,2.141-12.382,4.894C100.131,102.2,106.341,86.063,95.5,85.075c6.331-.491,10.584-5.7,10.584-5.7s9.133,5.612,15.883,2.041c5.292,3.97,15.35,3.308,15.35,3.308s8.734,4.5,16.672.4c2.782,1.721,10.584,2.382,15.35.661" transform="translate(-8.664 -7.435)" fill="#005561"/>
                <path id="Path_4948" data-name="Path 4948" d="M130.309,101.551a13.228,13.228,0,0,0-1.643,3.172s-16.807.8-20.378,9.794c-9.133-1.45-10.719,6.352-10.719,6.352s-8.2-1.209-13.1,2.909c-5.028-5.022-13.891,0-13.891,0s-11.913-5.043-18.265-1.849c-1.657-2.867-5.121-3.834-7.788-4.147,7-.491,6.2-4.054,6.2-4.054s7.013-.271,9.794-4.9c7.54-1.849,14.154-6.352,14.154-9.922C83.678,95.6,87.91,90.334,87.91,90.334s0-3.805-1.458-5.364l.05-.149a12.389,12.389,0,0,0,5.1.668h.015c10.84.989,4.63,17.121,38.693,16.061" transform="translate(-4.779 -7.85)" fill="#e7ecec"/>
              </g>
            </g>
          </g>
        </g>
        <path id="Path_4949" data-name="Path 4949" d="M88.461,82.52a12.381,12.381,0,0,1-5.1-.669,16,16,0,0,1-3.62-1.8C75.708,82.129,70.814,82.37,66.653,82a43.439,43.439,0,0,1-9.146-1.813s-8.863,11.778-26.73,5.157c-15.748,5.825-19.183-4.758-19.183-4.758s-11.58.462-7.34-18.749c.292-1.33.661-2.753,1.117-4.282,3.443-4.233,6.885,2.119,6.885,2.119s6.352-21.7,18-4.5c13.23-17.753,24.61-4.5,25.67,1.053C62.806,41.941,75.772,52,77.095,55.178c8.2-16.409,21.175-7.675,23.025-.271,11.643-9.061,16.672,4.766,16.672,4.766s10.057-7.141,17.732,2.646c6.885-6.088,13.5,2.12,14.56,6.352,8.2-5.555,16.139,3.18,16.139,3.18s10.193-9,12.576,0a28.408,28.408,0,0,1,.626,12.589A14.277,14.277,0,0,1,177.8,86.8a29.406,29.406,0,0,1-6.081.406c-2.661-.106-5.655-.648-7.781-2.261a7.031,7.031,0,0,1-1.622-1.715c-4.765,1.721-12.568,1.06-15.349-.661-7.938,4.1-16.673-.4-16.673-.4s-10.057.661-15.35-3.308c-6.749,3.571-15.883-2.041-15.883-2.041s-4.253,5.206-10.584,5.7" transform="translate(-0.253 -3.494)" fill="none" stroke="#005561" stroke-linecap="round" stroke-linejoin="round" stroke-width="3"/>
        <path id="Path_4950" data-name="Path 4950" d="M32.421,64.395c-1.394,10.043,0,15.683,0,15.683" transform="translate(-2.424 -4.908)" fill="none" stroke="#005561" stroke-linecap="round" stroke-linejoin="round" stroke-width="3"/>
        <path id="Path_4951" data-name="Path 4951" d="M60.83,64.395a46.3,46.3,0,0,1,0,11.715" transform="translate(-4.636 -4.908)" fill="none" stroke="#005561" stroke-linecap="round" stroke-linejoin="round" stroke-width="3"/>
        <path id="Path_4952" data-name="Path 4952" d="M84.467,61.815a26.036,26.036,0,0,1,.96,14.887" transform="translate(-6.437 -4.711)" fill="none" stroke="#005561" stroke-linecap="round" stroke-linejoin="round" stroke-width="3"/>
        <path id="Path_4953" data-name="Path 4953" d="M109.035,61.815a42.979,42.979,0,0,1-1.792,12.234" transform="translate(-8.173 -4.711)" fill="none" stroke="#005561" stroke-linecap="round" stroke-linejoin="round" stroke-width="3"/>
        <path id="Path_4954" data-name="Path 4954" d="M147,70.731c0,6.06-2.582,7.988-2.582,7.988" transform="translate(-11.006 -5.39)" fill="none" stroke="#005561" stroke-linecap="round" stroke-linejoin="round" stroke-width="3"/>
        <line id="Line_462" data-name="Line 462" y2="8.094" transform="translate(10.943 63.107)" fill="none" stroke="#005561" stroke-linecap="round" stroke-linejoin="round" stroke-width="3"/>
        <path id="Path_4955" data-name="Path 4955" d="M124.651,76.939a33.435,33.435,0,0,0,2.084-12.007" transform="translate(-9.5 -4.949)" fill="none" stroke="#005561" stroke-linecap="round" stroke-linejoin="round" stroke-width="3"/>
        <path id="Path_4956" data-name="Path 4956" d="M159.353,81.728a29.2,29.2,0,0,0,1.387-7.447" transform="translate(-12.144 -5.661)" fill="none" stroke="#005561" stroke-linecap="round" stroke-linejoin="round" stroke-width="3"/>
        <path id="Path_4957" data-name="Path 4957" d="M178.671,77.93a33.169,33.169,0,0,1-1.486,5.164" transform="translate(-13.503 -5.939)" fill="none" stroke="#005561" stroke-linecap="round" stroke-linejoin="round" stroke-width="3"/>
        <path id="Path_4958" data-name="Path 4958" d="M67.817,84.983a22.348,22.348,0,0,0-2.4,6.387s-12.042,1.984-13.364,7.013c0,0-11.509-1.188-12.7,6.224,0,0-10.057,1.984-12.838,9-3.57-.4-7.938,2.781-7.938,2.781a81.723,81.723,0,0,0,3.307,16.274,14.927,14.927,0,0,0,1.836,3.969c2.169,3.087,4.253,1.323,4.253,1.323s3.97,5.029,9.4,3.578c1.323,2.647,8.734,4.858,14.027.79,2.119,3.307,10.455,6.089,18.13.675,2.248,3.714,10.74,5.677,13.763-1.073,2.91,1.856,10.058,1.984,14.952-5.292,4.63.661,10.321-.789,14.687-10.719a28.077,28.077,0,0,0,21.9-7.141c11.316.527,15.186-11.253,15.186-11.253s19.688-.661,26.83-12.176a9.856,9.856,0,0,0-1.6-2.647,15.551,15.551,0,0,0-2.369-2.347" transform="translate(-1.416 -6.477)" fill="none" stroke="#005561" stroke-linecap="round" stroke-linejoin="round" stroke-width="3"/>
        <path id="Path_4959" data-name="Path 4959" d="M44.522,118c2.667.313,6.131,1.28,7.788,4.147,6.352-3.194,18.265,1.849,18.265,1.849s8.863-5.022,13.892,0c4.9-4.118,13.1-2.909,13.1-2.909s1.586-7.8,10.719-6.352c3.571-9,20.379-9.794,20.379-9.794a13.2,13.2,0,0,1,1.643-3.172c1.907-2.753,5.683-6.125,12.383-4.894,6.885-5.028,15.022-11.017,24.383-8.741" transform="translate(-3.393 -6.678)" fill="none" stroke="#005561" stroke-linecap="round" stroke-linejoin="round" stroke-width="3"/>
        <path id="Path_4960" data-name="Path 4960" d="M29.608,118.211c9.261-.761,10.186,2.02,10.186,2.02a18.666,18.666,0,0,1,3.563.085" transform="translate(-2.256 -8.999)" fill="none" stroke="#005561" stroke-linecap="round" stroke-linejoin="round" stroke-width="3"/>
        <path id="Path_4961" data-name="Path 4961" d="M44.491,117.794h.029c7-.491,6.2-4.055,6.2-4.055s7.013-.27,9.794-4.9c7.54-1.849,14.154-6.351,14.154-9.922,9.005-3.307,13.237-8.571,13.237-8.571s0-3.805-1.458-5.363" transform="translate(-3.391 -6.477)" fill="none" stroke="#005561" stroke-linecap="round" stroke-linejoin="round" stroke-width="3"/>
        <path id="Path_4962" data-name="Path 4962" d="M27.314,124.128a114.756,114.756,0,0,0,.8,12.312" transform="translate(-2.082 -9.46)" fill="none" stroke="#005561" stroke-linecap="round" stroke-linejoin="round" stroke-width="3"/>
        <path id="Path_4963" data-name="Path 4963" d="M38.579,124.128c-1.458,6.75,0,15.485,0,15.485" transform="translate(-2.891 -9.46)" fill="none" stroke="#005561" stroke-linecap="round" stroke-linejoin="round" stroke-width="3"/>
        <path id="Path_4964" data-name="Path 4964" d="M52.952,128.716c-.128,5.157.661,13.493.661,13.493" transform="translate(-4.034 -9.809)" fill="none" stroke="#005561" stroke-linecap="round" stroke-linejoin="round" stroke-width="3"/>
        <path id="Path_4965" data-name="Path 4965" d="M73.006,130.795a86.718,86.718,0,0,0,.661,12.369" transform="translate(-5.56 -9.968)" fill="none" stroke="#005561" stroke-linecap="round" stroke-linejoin="round" stroke-width="3"/>
        <path id="Path_4966" data-name="Path 4966" d="M88.479,130.795a59.253,59.253,0,0,1,0,10.52" transform="translate(-6.743 -9.968)" fill="none" stroke="#005561" stroke-linecap="round" stroke-linejoin="round" stroke-width="3"/>
        <path id="Path_4967" data-name="Path 4967" d="M104.24,126.137c2.511,2.119.661,10.484.661,10.484" transform="translate(-7.944 -9.613)" fill="none" stroke="#005561" stroke-linecap="round" stroke-linejoin="round" stroke-width="3"/>
        <path id="Path_4968" data-name="Path 4968" d="M117.991,118.83c1.849,1.849,1.849,6.75,1.849,6.75" transform="translate(-8.992 -9.056)" fill="none" stroke="#005561" stroke-linecap="round" stroke-linejoin="round" stroke-width="3"/>
        <path id="Path_4969" data-name="Path 4969" d="M139.619,108.374c3.18,1.984,3.307,9.659,3.307,9.659" transform="translate(-10.64 -8.259)" fill="none" stroke="#005561" stroke-linecap="round" stroke-linejoin="round" stroke-width="3"/>
        <path id="Path_4970" data-name="Path 4970" d="M156.235,99.782c3.044.79,3.57,5.818,3.57,5.818" transform="translate(-11.907 -7.604)" fill="none" stroke="#005561" stroke-linecap="round" stroke-linejoin="round" stroke-width="3"/>
        <path id="Path_4971" data-name="Path 4971" d="M123.435,116.511a24.673,24.673,0,0,0,10.321-3.841" transform="translate(-9.407 -8.587)" fill="none" stroke="#005561" stroke-linecap="round" stroke-linejoin="round" stroke-width="3"/>
        <path id="Path_4972" data-name="Path 4972" d="M144.416,106.963c4.168-.342,7.61-4.225,7.61-4.225" transform="translate(-11.006 -7.83)" fill="none" stroke="#005561" stroke-linecap="round" stroke-linejoin="round" stroke-width="3"/>
        <path id="Path_4973" data-name="Path 4973" d="M160.855,98.095a24.343,24.343,0,0,0,13.727-4.766" transform="translate(-12.259 -7.113)" fill="none" stroke="#005561" stroke-linecap="round" stroke-linejoin="round" stroke-width="3"/>
        <path id="Path_4974" data-name="Path 4974" d="M35.475,115.24c5.691-.128,7.546-3.57,7.546-3.57" transform="translate(-2.704 -8.51)" fill="none" stroke="#005561" stroke-linecap="round" stroke-linejoin="round" stroke-width="3"/>
        <path id="Path_4975" data-name="Path 4975" d="M48.226,108.035c7.148,0,9.659-4.1,9.659-4.1" transform="translate(-3.675 -7.921)" fill="none" stroke="#005561" stroke-linecap="round" stroke-linejoin="round" stroke-width="3"/>
        <path id="Path_4976" data-name="Path 4976" d="M62.839,101.379c4.766-.8,8.471-4.893,8.471-4.893" transform="translate(-4.789 -7.353)" fill="none" stroke="#005561" stroke-linecap="round" stroke-linejoin="round" stroke-width="3"/>
        <path id="Path_4977" data-name="Path 4977" d="M75.728,91.572c3.578-.263,6.487-3.941,6.487-3.941" transform="translate(-5.771 -6.678)" fill="none" stroke="#005561" stroke-linecap="round" stroke-linejoin="round" stroke-width="3"/>
        <path id="Path_4978" data-name="Path 4978" d="M4.115,58.456c-3.649-5.6.59-8.4,3.762-18.116S2.323,26.391,1.526,16.6,18.2-1.931,38.049,8.923s64.314-21.437,86.413.263,74.762,16.673,77.145,39.171c-6.152,25.086-22.889,32.711-22.889,32.711" transform="translate(-0.114 -0.114)" fill="none" stroke="#005561" stroke-linecap="round" stroke-linejoin="round" stroke-width="3"/>
        <path id="Path_4979" data-name="Path 4979" d="M23.566,137.264c-7.127,5.427.285,10.982-5.143,20.25s-2.475,20.9,61.689,20.9,108.356-8.735,109.416-25.144,1.038-57.961-14.431-59.947" transform="translate(-1.265 -7.113)" fill="none" stroke="#005561" stroke-linecap="round" stroke-linejoin="round" stroke-width="3"/>
        <path id="Path_4980" data-name="Path 4980" d="M95.485,85.545H95.5c10.84.988,4.631,17.121,38.694,16.061h.007" transform="translate(-7.277 -6.519)" fill="none" stroke="#005561" stroke-linecap="round" stroke-linejoin="round" stroke-width="3"/>
        <path id="Path_4981" data-name="Path 4981" d="M185.131,56.505c-32.819-24.084-68.88-14.1-68.88-14.1s-54.719-26.424-82.38-6.295c-7.54-8.984-19.447-4.745-19.447-4.745" transform="translate(-1.099 -2.175)" fill="none" stroke="#005561" stroke-linecap="round" stroke-linejoin="round" stroke-width="3"/>
        <path id="Path_4982" data-name="Path 4982" d="M23.88,162.594c3.969.263,10.712-3.705,10.712-3.705s24.481,20.378,53.864,5.818c42.342,9.531,79.129-18.522,81.512-35.991" transform="translate(-1.82 -9.809)" fill="none" stroke="#005561" stroke-linecap="round" stroke-linejoin="round" stroke-width="3"/>
      </g>
    </g>
  </g>
</svg>
