<?xml version="1.0" encoding="utf-8"?>
<!-- Generator: Adobe Illustrator 26.0.2, SVG Export Plug-In . SVG Version: 6.00 Build 0)  -->
<svg version="1.1" id="Layer_1" xmlns="http://www.w3.org/2000/svg" xmlns:xlink="http://www.w3.org/1999/xlink" x="0px" y="0px"
	 viewBox="0 0 911 14899" style="enable-background:new 0 0 911 14899;" xml:space="preserve">
<style type="text/css">
	.st0{fill:#919191;}
</style>
<g>
	<path class="st0" d="M0,14721C0,9814,0,4907,0,0c303.7,0,607.3,0,911,0c0,4914.3,0,9828.7,0,14743c-2.3,0-4.7,0.4-6.9-0.1
		c-18.8-3.8-37.8-2.7-56.7-2.2c-22.2,0.6-43.5,5.2-63.4,15.6c-2.9,1.5-6.1,2.8-9.3,3.6c-15.7,4-30.7,10.5-46.9,13.2
		c-15.5,2.5-31,5.6-46.5,2.3c-21.7-4.6-43.2-10.4-64.7-16c-15.5-4.1-31.1-3.6-46.5-0.7c-18.3,3.5-34.3,12.4-48.2,24.8
		c-11.4,10.2-22.7,20.4-34.1,30.6c-21,18.7-46.5,27.7-73.6,29.7c-21.2,1.6-43,2.5-64.3-3c-15-3.9-29.5-8.6-41.5-18.5
		c-12-10-23.4-20.7-34.6-31.6c-11.3-10.9-23-21.2-36.3-29.6c-36.2-22.7-76.3-27.8-117.9-25.7c-19.9,1-39.9,1.9-59.8,2.8
		c-12.6,0.6-24.4-2.3-35.9-7.3C16,14727.6,8,14724.3,0,14721z"/>
</g>
</svg>
