<?xml version="1.0" encoding="utf-8"?>
<!-- Generator: Adobe Illustrator 26.0.1, SVG Export Plug-In . SVG Version: 6.00 Build 0)  -->
<svg version="1.1" id="Layer_1" xmlns="http://www.w3.org/2000/svg" xmlns:xlink="http://www.w3.org/1999/xlink" x="0px" y="0px"
	 viewBox="0 0 4300.17 720.97" style="enable-background:new 0 0 4300.17 720.97;" xml:space="preserve">
<style type="text/css">
	.st0{fill:#ED1C24;}
</style>
<path class="st0" d="M4109.04,73.99c-7.87-35.65-19.82-58.39-33.2-58.39v-0.01h-59.03v0.01c23.69,0,42.9,71.35,42.9,159.39v0
	c0-88.03-19.21-159.39-42.9-159.39c-13.37,0-25.32,22.74-33.19,58.39H3712.1h-373.7h0h-362.74h-362.12h-336.38h-359.19h-373.59
	h-307.89l-2.59,0.56c0,0,0,0,0,0c-7.86-35.97-19.86-58.95-33.31-58.95v-0.01h-59.04v0.01c23.7,0,42.91,71.35,42.91,159.39
	c0,0,0,0,0,0c0-88.03-19.21-159.39-42.91-159.39c-13.37,0-25.32,22.74-33.19,58.39H791.32c7.85,0,14.22,45.22,14.22,101
	c0,6.07-0.08,12.01-0.22,17.78c12.48,7.26,23.26,15.42,32.48,23.73c-9.22-8.31-20-16.48-32.49-23.73
	c-15-8.72-32.46-16.12-52.61-20.86c20.15,4.75,37.61,12.15,52.62,20.86c0.14-5.77,0.22-11.71,0.22-17.78c0-55.78-6.37-101-14.22-101
	h-330.6c6.25,0,11.56,28.61,13.47,68.39c0,0,0,0,0,0c-1.91-39.78-7.22-68.39-13.47-68.39h-89.38v0H226.42v-0.01h-0.39
	c-53.5,0.04-104.79,21.31-142.61,59.15l0.41,0.42c0,0,0,0,0,0l-0.41-0.42C45.42,170.97,24.03,222.38,24,276.01h0.01l0,263.22
	c0,0,0,0,0,0v162.45l202.02,3.71V539.23c0,9.16-45.23,16.58-101.01,16.58c-1.77,0-3.53-0.01-5.27-0.02
	c1.75,0.01,3.51,0.02,5.27,0.02c55.78,0,101.01-7.42,101.01-16.58V276h0.96c4.05-6.74-23.08-42.49-61.68-81.09
	c-33.28-33.28-64.45-58.03-76.72-61.62c12.27,3.59,43.44,28.35,76.72,61.62c38.6,38.6,65.73,74.35,61.68,81.09h233.73h0h330.6h91.71
	h225.33c7.87,35.65,19.82,58.39,33.19,58.39v0.01h59.04c13.46,0,25.46-22.99,33.31-58.96c6-27.41,9.59-62.37,9.59-100.44
	c0,0,0,0,0,0c0,38.07-3.59,73.03-9.59,100.44l2.59,0.56h307.89h373.59h359.19h336.38h362.12h362.74h0h373.7h271.52
	c7.87,35.65,19.82,58.39,33.19,58.39v0.01h59.04c13.38-0.01,25.33-22.76,33.19-58.4h102.04V73.99H4109.04z"/>
</svg>
