<svg xmlns="http://www.w3.org/2000/svg" width="543.611" height="751.017" viewBox="0 0 543.611 751.017">
  <g id="Plant_6" data-name="Plant 6" transform="translate(-4738.186 -324.814)">
    <g id="Group_2734" data-name="Group 2734">
      <g id="Group_2733" data-name="Group 2733">
        <g id="Group_2732" data-name="Group 2732">
          <g id="Group_2730" data-name="Group 2730">
            <path id="Path_2587" data-name="Path 2587" d="M5279.568,1073H5214.3c-1.974-6.218-4.03-12.36-6.121-18.419l-.042-.159-24.817-88.237,66.883-81.147C5262.181,942.784,5272.242,1005.4,5279.568,1073Z" fill="#cbe5c1"/>
            <path id="Path_2588" data-name="Path 2588" d="M5250.2,885.042l-66.883,81.147L5140.27,813.167l72.353-76.6C5226.354,781.952,5239.1,831.406,5250.2,885.042Z" fill="#cbe5c1"/>
            <path id="Path_2589" data-name="Path 2589" d="M5214.3,1073h-54.142l-64.244-76.563,36.207-101.58c13.1,20.953,25.579,43.132,37.177,66.6h.014a788.8,788.8,0,0,1,38.825,92.967l.042.159C5210.269,1060.644,5212.325,1066.786,5214.3,1073Z" fill="#fff"/>
            <path id="Path_2590" data-name="Path 2590" d="M5212.623,736.569l-72.353,76.6-43.409-154.344,63.3-68.51h.021A1481.162,1481.162,0,0,1,5212.623,736.569Z" fill="#cbe5c1"/>
            <path id="Path_2591" data-name="Path 2591" d="M5183.319,966.189l24.817,88.237a788.8,788.8,0,0,0-38.825-92.967Z" fill="#cbe5c1"/>
            <path id="Path_2592" data-name="Path 2592" d="M5140.27,813.167l43.049,153.022-14.008-4.73h-.014c-11.6-23.466-24.076-45.645-37.177-66.6v-.021a776.571,776.571,0,0,0-86.6-113.65q-3.5-3.77-7.007-7.485v-.021q-1.206-4.414-2.355-8.856l103.43,49.066Z" fill="#cbe5c1"/>
            <path id="Path_2593" data-name="Path 2593" d="M5160.178,590.313h-.021l-63.3,68.51-49.654-176.454,44.683-30.108A1215.687,1215.687,0,0,1,5160.178,590.313Z" fill="#cbe5c1"/>
            <path id="Path_2594" data-name="Path 2594" d="M5095.913,996.441,5160.157,1073h-94.7q-35.407-33.539-65.809-65.691Z" fill="#fff"/>
            <path id="Path_2595" data-name="Path 2595" d="M5096.861,658.823l43.409,154.344-.685.727-103.43-49.066c-12.554-48.145-21.008-97.779-26.562-145.537Z" fill="#cbe5c1"/>
            <path id="Path_2596" data-name="Path 2596" d="M5132.12,894.84v.021l-36.207,101.58L5002.524,885.16l1.17-.118,41.8-103.831.021-.021A776.571,776.571,0,0,1,5132.12,894.84Z" fill="#fff"/>
            <path id="Path_2597" data-name="Path 2597" d="M5047.207,482.369l49.654,176.454-87.268-39.532c-6.425-54.841-9.036-107.21-9.742-152.073Z" fill="#cbe5c1"/>
            <path id="Path_2598" data-name="Path 2598" d="M5002.524,885.16l93.389,111.281-96.263,10.872h-.021q-6.554-6.918-12.9-13.766c-31.9-34.4-59.674-67.388-83.847-98.707Z" fill="#fff"/>
            <path id="Path_2599" data-name="Path 2599" d="M5091.89,452.261l-44.683,30.108-43.513-154.726S5042.6,367.327,5091.89,452.261Z" fill="#cbe5c1"/>
            <path id="Path_2600" data-name="Path 2600" d="M5003.694,327.643l43.513,154.726-47.356-15.151C4998.528,385.323,5003.618,328.5,5003.694,327.643Z" fill="#cbe5c1"/>
            <path id="Path_2601" data-name="Path 2601" d="M5045.517,781.19l-.021.021-41.8,103.831-1.17.118-92.24-109.925,23.21-95.182a817.1,817.1,0,0,1,105.016,93.631v.021Q5042.02,777.413,5045.517,781.19Z" fill="#fff"/>
            <path id="Path_2602" data-name="Path 2602" d="M4910.284,775.235l92.24,109.925-99.642,9.68a1141.207,1141.207,0,0,1-74.23-107.792Z" fill="#fff"/>
            <path id="Path_2603" data-name="Path 2603" d="M4933.494,680.053l-23.21,95.182L4821.79,669.791v-.021l-6.176-63.538A828.691,828.691,0,0,1,4933.494,680.053Z" fill="#fff"/>
            <path id="Path_2604" data-name="Path 2604" d="M4821.79,669.791l88.494,105.444-81.632,11.813c-26.1-43.236-44.5-81.154-57.458-112.549Z" fill="#fff"/>
            <path id="Path_2605" data-name="Path 2605" d="M4821.79,669.77v.021l-50.6,4.708c-26.389-63.96-30.19-100.992-30.19-100.992Z" fill="#fff"/>
            <path id="Path_2606" data-name="Path 2606" d="M4815.614,606.232l6.176,63.538L4741,573.507S4770.591,583.125,4815.614,606.232Z" fill="#fff"/>
          </g>
          <g id="Group_2731" data-name="Group 2731">
            <line id="Line_171" data-name="Line 171" x1="0.021" transform="translate(5160.157 590.313)" fill="none" stroke="#005561" stroke-linecap="round" stroke-miterlimit="10" stroke-width="4"/>
            <line id="Line_172" data-name="Line 172" x1="0.021" y2="0.021" transform="translate(5045.496 781.19)" fill="none" stroke="#005561" stroke-linecap="round" stroke-miterlimit="10" stroke-width="4"/>
            <path id="Path_2607" data-name="Path 2607" d="M4999.65,1007.313q30.464,32.115,65.809,65.691" fill="none" stroke="#005561" stroke-linecap="round" stroke-miterlimit="10" stroke-width="4"/>
            <path id="Path_2608" data-name="Path 2608" d="M5038.51,773.684a817.1,817.1,0,0,0-105.016-93.631,828.691,828.691,0,0,0-117.88-73.821c-45.023-23.107-74.61-32.725-74.61-32.725s3.8,37.032,30.19,100.992c12.962,31.395,31.354,69.313,57.458,112.549a1141.207,1141.207,0,0,0,74.23,107.792c24.173,31.319,51.946,64.307,83.847,98.707q6.336,6.844,12.9,13.766" fill="none" stroke="#005561" stroke-linecap="round" stroke-miterlimit="10" stroke-width="4"/>
            <path id="Path_2609" data-name="Path 2609" d="M5132.12,894.84a776.571,776.571,0,0,0-86.6-113.65q-3.5-3.77-7.007-7.485" fill="none" stroke="#005561" stroke-linecap="round" stroke-miterlimit="10" stroke-width="4"/>
            <path id="Path_2610" data-name="Path 2610" d="M5169.3,961.459c-11.6-23.466-24.076-45.645-37.177-66.6" fill="none" stroke="#005561" stroke-linecap="round" stroke-miterlimit="10" stroke-width="4"/>
            <path id="Path_2611" data-name="Path 2611" d="M5208.136,1054.426a788.8,788.8,0,0,0-38.825-92.967" fill="none" stroke="#005561" stroke-linecap="round" stroke-miterlimit="10" stroke-width="4"/>
            <path id="Path_2612" data-name="Path 2612" d="M5214.3,1073c-1.974-6.218-4.03-12.36-6.121-18.419" fill="none" stroke="#005561" stroke-linecap="round" stroke-miterlimit="10" stroke-width="4"/>
            <path id="Path_2613" data-name="Path 2613" d="M4821.791,669.791l88.493,105.444,92.24,109.924,93.389,111.282L5160.157,1073" fill="none" stroke="#005561" stroke-linecap="round" stroke-miterlimit="10" stroke-width="4"/>
            <line id="Line_173" data-name="Line 173" x2="80.787" y2="96.263" transform="translate(4741.003 573.507)" fill="none" stroke="#005561" stroke-linecap="round" stroke-miterlimit="10" stroke-width="4"/>
            <path id="Path_2614" data-name="Path 2614" d="M5003.694,327.643l43.513,154.725,49.655,176.454,43.409,154.344,43.049,153.022,24.817,88.237.042.159" fill="none" stroke="#005561" stroke-linecap="round" stroke-miterlimit="10" stroke-width="4"/>
            <path id="Path_2615" data-name="Path 2615" d="M4999.629,467.156l.221.062,47.356,15.151,44.683-30.107" fill="none" stroke="#005561" stroke-linecap="round" stroke-miterlimit="10" stroke-width="4"/>
            <path id="Path_2616" data-name="Path 2616" d="M5009.593,619.291l87.268,39.531,63.3-68.51" fill="none" stroke="#005561" stroke-linecap="round" stroke-miterlimit="10" stroke-width="4"/>
            <path id="Path_2617" data-name="Path 2617" d="M5036.155,764.828l103.43,49.066.685-.727,72.353-76.6" fill="none" stroke="#005561" stroke-linecap="round" stroke-miterlimit="10" stroke-width="4"/>
            <path id="Path_2618" data-name="Path 2618" d="M5250.2,885.042l-66.882,81.147-14.008-4.729h-.014" fill="none" stroke="#005561" stroke-linecap="round" stroke-miterlimit="10" stroke-width="4"/>
            <path id="Path_2619" data-name="Path 2619" d="M4815.614,606.232l6.177,63.538v.021l-50.6,4.709" fill="none" stroke="#005561" stroke-linecap="round" stroke-miterlimit="10" stroke-width="4"/>
            <path id="Path_2620" data-name="Path 2620" d="M4828.652,787.048l81.631-11.813,23.211-95.183" fill="none" stroke="#005561" stroke-linecap="round" stroke-miterlimit="10" stroke-width="4"/>
            <path id="Path_2621" data-name="Path 2621" d="M4902.882,894.84l99.642-9.68,1.17-.118,41.8-103.831" fill="none" stroke="#005561" stroke-linecap="round" stroke-miterlimit="10" stroke-width="4"/>
            <path id="Path_2622" data-name="Path 2622" d="M4999.629,1007.313h.021l96.263-10.871,36.208-101.581v-.021" fill="none" stroke="#005561" stroke-linecap="round" stroke-miterlimit="10" stroke-width="4"/>
            <path id="Path_2623" data-name="Path 2623" d="M5003.694,327.636v.007c-.076.859-5.166,57.68-3.843,139.575.706,44.863,3.317,97.232,9.742,152.073,5.554,47.758,14.008,97.392,26.562,145.537q1.154,4.435,2.355,8.856v.021" fill="none" stroke="#005561" stroke-linecap="round" stroke-miterlimit="10" stroke-width="4"/>
            <path id="Path_2624" data-name="Path 2624" d="M5065.459,1073h214.109c-7.326-67.6-17.387-130.22-29.366-187.962-11.107-53.636-23.848-103.09-37.579-148.473a1481.162,1481.162,0,0,0-52.445-146.256,1215.687,1215.687,0,0,0-68.288-138.052c-49.295-84.934-88.2-124.618-88.2-124.618" fill="none" stroke="#005561" stroke-linecap="round" stroke-miterlimit="10" stroke-width="4"/>
          </g>
        </g>
      </g>
    </g>
  </g>
</svg>
