<?xml version="1.0" encoding="utf-8"?>
<!-- Generator: Adobe Illustrator 26.0.1, SVG Export Plug-In . SVG Version: 6.00 Build 0)  -->
<svg version="1.1" id="Layer_1" xmlns="http://www.w3.org/2000/svg" xmlns:xlink="http://www.w3.org/1999/xlink" x="0px" y="0px"
	 viewBox="0 0 3339.74 573.75" style="enable-background:new 0 0 3339.74 573.75;" xml:space="preserve">
<style type="text/css">
	.st0{fill:none;stroke:#025661;stroke-width:4;stroke-linecap:round;stroke-linejoin:round;}
	.st1{fill:#0DBBD1;}
</style>
<path id="Path_2432" class="st0" d="M2604.86,0.23h0.24c54.15,0,73.34,37.15,102.85,68.17c29.02,30.51,68.03,55.1,160.08,32.62
	c76.4-18.66,132.03-4.9,171.05,17.77c102.49,31.88,300.65,442.08,300.65,442.08"/>
<path class="st1" d="M3329.65,549.37l10.08,11.5c0,0-198.16-408.22-300.66-442.08c-39.02-22.67-94.65-36.43-171.05-17.77
	c-92.05,22.48-131.06-2.11-160.08-32.62c0,0,0,0,0,0c-29.51-31.02-48.7-68.17-102.85-68.17l0-0.22H0v573.74h3345.68
	C3346.72,573.75,3340.68,564.79,3329.65,549.37z"/>
</svg>
