<svg xmlns="http://www.w3.org/2000/svg" width="1128.001" height="1286" viewBox="0 0 1128.001 1286">
  <line id="Line_116" data-name="Line 116" y1="1280" transform="translate(12 3)" fill="none" stroke="#fff" stroke-linecap="round" stroke-width="6" stroke-dasharray="18 30"/>
  <g id="Group_2614" data-name="Group 2614" transform="translate(-396.285 15399.93)">
    <path id="Path_2087" data-name="Path 2087" d="M.938,1197.362.549,700.995,0,0" transform="translate(583.507 -15354.138)" fill="none" stroke="#fff" stroke-linecap="round" stroke-width="6" stroke-dasharray="18 30"/>
    <line id="Line_111" data-name="Line 111" y1="1155.207" transform="translate(1141.243 -15354.138)" fill="none" stroke="#fff" stroke-linecap="round" stroke-width="6" stroke-dasharray="18 30"/>
    <line id="Line_107" data-name="Line 107" y1="1171.207" transform="translate(769.414 -15354.138)" fill="none" stroke="#fff" stroke-linecap="round" stroke-width="6" stroke-dasharray="18 30"/>
    <line id="Line_110" data-name="Line 110" y1="1171.207" transform="translate(1327.157 -15354.138)" fill="none" stroke="#fff" stroke-linecap="round" stroke-width="6" stroke-dasharray="18 30"/>
    <line id="Line_108" data-name="Line 108" y1="1166.207" transform="translate(955.328 -15365.138)" fill="none" stroke="#fff" stroke-linecap="round" stroke-width="6" stroke-dasharray="18 30"/>
    <line id="Line_109" data-name="Line 109" y1="1209.207" transform="translate(1512.12 -15354.138)" fill="none" stroke="#fff" stroke-linecap="round" stroke-width="6" stroke-dasharray="18 30"/>
  </g>
  <circle id="Ellipse_32" data-name="Ellipse 32" cx="12" cy="12" r="12" transform="translate(175.001 1175.5)" fill="#005661"/>
  <circle id="Ellipse_33" data-name="Ellipse 33" cx="12" cy="12" r="12" transform="translate(359.001 858.5)" fill="#005661"/>
  <circle id="Ellipse_34" data-name="Ellipse 34" cx="12" cy="12" r="12" transform="translate(546.001 1034.5)" fill="#005661"/>
  <circle id="Ellipse_35" data-name="Ellipse 35" cx="12" cy="12" r="12" transform="translate(731.001 1133.5)" fill="#005661"/>
  <circle id="Ellipse_36" data-name="Ellipse 36" cx="12" cy="12" r="12" transform="translate(918.001 958.5)" fill="#005661"/>
  <circle id="Ellipse_37" data-name="Ellipse 37" cx="12" cy="12" r="12" transform="translate(1104.001 1141.5)" fill="#005661"/>
  <path id="Path_2088" data-name="Path 2088" d="M1481.659,1363.309c-3.111,3.709-10.422,13.641-10.616,25.255a12.222,12.222,0,0,0,12.112,12.474,12,12,0,0,0,11.887-12c0-11.813-7.467-21.961-10.622-25.723A1.8,1.8,0,0,0,1481.659,1363.309Z" transform="translate(2041.043 1795.351) rotate(180)" fill="#005561"/>
  <path id="Path_2089" data-name="Path 2089" d="M1481.659,1363.309c-3.111,3.709-10.422,13.641-10.616,25.255a12.222,12.222,0,0,0,12.112,12.474,12,12,0,0,0,11.887-12c0-11.813-7.467-21.961-10.622-25.723A1.8,1.8,0,0,0,1481.659,1363.309Z" transform="translate(1670.042 1686.351) rotate(180)" fill="#005561"/>
  <path id="Path_2654" data-name="Path 2654" d="M1481.659,1363.309c-3.111,3.709-10.422,13.641-10.616,25.255a12.222,12.222,0,0,0,12.112,12.474,12,12,0,0,0,11.887-12c0-11.813-7.467-21.961-10.622-25.723A1.8,1.8,0,0,0,1481.659,1363.309Z" transform="translate(1495.042 1876.351) rotate(180)" fill="#005561"/>
  <path id="Path_2090" data-name="Path 2090" d="M1481.659,1363.309c-3.111,3.709-10.422,13.641-10.616,25.255a12.222,12.222,0,0,0,12.112,12.474,12,12,0,0,0,11.887-12c0-11.813-7.467-21.961-10.622-25.723A1.8,1.8,0,0,0,1481.659,1363.309Z" transform="translate(1854.043 1459.538) rotate(180)" fill="#005561"/>
  <path id="Path_2091" data-name="Path 2091" d="M1481.659,1363.309c-3.111,3.709-10.422,13.641-10.616,25.255a12.222,12.222,0,0,0,12.112,12.474,12,12,0,0,0,11.887-12c0-11.813-7.467-21.961-10.622-25.723A1.8,1.8,0,0,0,1481.659,1363.309Z" transform="translate(2226.043 1581.538) rotate(180)" fill="#005561"/>
</svg>
