<svg xmlns="http://www.w3.org/2000/svg" width="579.739" height="579.748" viewBox="0 0 579.739 579.748">
  <g id="Group_2551" data-name="Group 2551" transform="translate(-648.433 -225.82)">
    <g id="Group_2549" data-name="Group 2549" transform="translate(650.433 227.82)">
      <path id="Path_1939" data-name="Path 1939" d="M1212.154,426.72c3.958,12.192-71.852,43.669-69.818,56.6,1.984,12.6,83.836,19.206,83.836,32.37s-81.852,19.761-83.836,32.37c-2.033,12.936,73.776,44.413,69.818,56.6-4.028,12.41-83.9-6.666-89.749,4.8-5.912,11.576,56.387,65.036,48.788,75.472-7.629,10.487-77.7-32.339-86.842-23.183s33.679,79.2,23.193,86.832c-10.436,7.6-63.906-54.7-75.483-48.787-11.457,5.853,7.619,85.721-4.791,89.748-12.181,3.959-43.658-71.852-56.594-69.818-12.609,1.984-19.215,83.846-32.37,83.846s-19.771-81.861-32.37-83.846c-12.946-2.033-44.413,73.777-56.605,69.818-12.41-4.027,6.667-83.895-4.791-89.748-11.576-5.913-65.046,56.387-75.482,48.787-10.476-7.629,32.339-77.685,23.194-86.841s-79.213,33.679-86.842,23.193c-7.588-10.436,54.7-63.9,48.8-75.482-5.853-11.457-85.73,7.619-89.758-4.791-3.958-12.182,71.852-43.659,69.818-56.6-1.974-12.608-83.836-19.215-83.836-32.37s81.862-19.771,83.836-32.37c2.033-12.936-73.776-44.413-69.818-56.6,4.028-12.4,83.905,6.666,89.758-4.791,5.9-11.577-56.386-65.046-48.8-75.473,7.629-10.486,77.7,32.33,86.842,23.183s-33.67-79.212-23.194-86.841c10.436-7.589,63.906,54.709,75.482,48.8,11.458-5.853-7.608-85.721,4.791-89.748,12.192-3.958,43.659,71.843,56.605,69.808,12.6-1.973,19.205-83.835,32.37-83.835s19.76,81.861,32.37,83.835c12.936,2.034,44.413-73.766,56.594-69.808,12.41,4.028-6.666,83.9,4.791,89.748,11.578,5.912,65.047-56.387,75.483-48.8,10.486,7.629-32.34,77.694-23.193,86.841s79.213-33.669,86.842-23.183c7.6,10.427-54.7,63.9-48.788,75.473C1128.249,433.386,1208.126,414.32,1212.154,426.72Zm-94.48,93.934A179.436,179.436,0,1,0,933.337,695.06,179.434,179.434,0,0,0,1117.674,520.654Z" transform="translate(-650.433 -227.82)" fill="#fff4b3"/>
      <path id="Path_1940" data-name="Path 1940" d="M952.424,345.483A179.436,179.436,0,1,1,768.1,519.881,179.434,179.434,0,0,1,952.424,345.483Zm34.363,62.25c0-15.644-6.1-28.333-13.64-28.333s-13.64,12.689-13.64,28.333,6.111,28.342,13.64,28.342S986.787,423.387,986.787,407.733Zm-53.718,15.852a52.042,52.042,0,0,0,2.341-15.842c0-15.654-6.111-28.333-13.65-28.333s-13.64,12.678-13.64,28.333a56.285,56.285,0,0,0,.6,8.243A96.292,96.292,0,0,1,933.069,423.585ZM944.983,497.2c-21.278,5.228-49.025,6.776-61.664-3.323C873.538,525.991,928.378,542.042,944.983,497.2Z" transform="translate(-659.59 -236.977)" fill="#fff"/>
      <path id="Path_1941" data-name="Path 1941" d="M989.316,382.27c7.539,0,13.64,12.689,13.64,28.333s-6.1,28.342-13.64,28.342-13.64-12.688-13.64-28.342S981.787,382.27,989.316,382.27Z" transform="translate(-675.758 -239.846)" fill="#005561"/>
      <path id="Path_1942" data-name="Path 1942" d="M947.24,410.614a52.04,52.04,0,0,1-2.341,15.842,96.291,96.291,0,0,0-24.354-7.6,56.293,56.293,0,0,1-.6-8.243c0-15.654,6.111-28.333,13.64-28.333S947.24,394.959,947.24,410.614Z" transform="translate(-671.419 -239.847)" fill="#005561"/>
      <path id="Path_1943" data-name="Path 1943" d="M892.957,506.416c12.639,10.1,40.386,8.551,61.664,3.323C938.015,554.579,883.176,538.527,892.957,506.416Z" transform="translate(-669.227 -249.513)" fill="#e2eced"/>
    </g>
    <g id="Group_2550" data-name="Group 2550" transform="translate(650.433 227.82)">
      <path id="Path_1944" data-name="Path 1944" d="M1126.831,529.81A179.436,179.436,0,1,1,952.424,345.483,179.449,179.449,0,0,1,1126.831,529.81Z" transform="translate(-659.59 -236.977)" fill="none" stroke="#005561" stroke-miterlimit="10" stroke-width="4"/>
      <path id="Path_1945" data-name="Path 1945" d="M1076.148,480.436a136.562,136.562,0,1,1-250.227.228" transform="translate(-663.21 -247.49)" fill="none" stroke="#005561" stroke-miterlimit="10" stroke-width="4"/>
      <path id="Path_1946" data-name="Path 1946" d="M848.513,477.79a27.768,27.768,0,0,1-39.294-15.158" transform="translate(-662.797 -246.104)" fill="none" stroke="#005561" stroke-miterlimit="10" stroke-width="4"/>
      <path id="Path_1947" data-name="Path 1947" d="M1110.306,462.632a27.788,27.788,0,0,1-39.294,15.158" transform="translate(-683.182 -246.104)" fill="none" stroke="#005561" stroke-miterlimit="10" stroke-width="4"/>
      <path id="Path_1948" data-name="Path 1948" d="M1226.172,515.693c0,13.154-81.852,19.761-83.836,32.37-2.033,12.936,73.776,44.413,69.818,56.6-4.028,12.41-83.9-6.666-89.749,4.8-5.912,11.576,56.387,65.036,48.788,75.472-7.629,10.487-77.7-32.339-86.842-23.183s33.679,79.2,23.193,86.832c-10.436,7.6-63.906-54.7-75.483-48.787-11.457,5.853,7.619,85.721-4.791,89.748-12.181,3.959-43.658-71.852-56.594-69.818-12.609,1.984-19.215,83.846-32.37,83.846s-19.771-81.861-32.37-83.846c-12.946-2.033-44.413,73.777-56.605,69.818-12.41-4.027,6.667-83.895-4.791-89.748-11.576-5.913-65.046,56.387-75.482,48.787-10.476-7.629,32.339-77.685,23.194-86.841s-79.213,33.679-86.842,23.193c-7.588-10.436,54.7-63.9,48.8-75.482-5.853-11.457-85.73,7.619-89.758-4.791-3.958-12.182,71.852-43.659,69.818-56.6-1.974-12.608-83.836-19.215-83.836-32.37s81.862-19.771,83.836-32.37c2.033-12.936-73.776-44.413-69.818-56.6,4.028-12.4,83.905,6.666,89.758-4.791,5.9-11.577-56.386-65.046-48.8-75.473,7.629-10.486,77.7,32.33,86.842,23.183s-33.67-79.212-23.194-86.841c10.436-7.589,63.906,54.709,75.482,48.8,11.458-5.853-7.608-85.721,4.791-89.748,12.192-3.958,43.659,71.843,56.605,69.808,12.6-1.973,19.205-83.835,32.37-83.835s19.76,81.861,32.37,83.835c12.936,2.034,44.413-73.766,56.594-69.808,12.41,4.028-6.666,83.9,4.791,89.748,11.578,5.912,65.047-56.387,75.483-48.8,10.486,7.629-32.34,77.694-23.193,86.841s79.213-33.669,86.842-23.183c7.6,10.427-54.7,63.9-48.788,75.473,5.844,11.457,85.721-7.609,89.749,4.791,3.958,12.192-71.852,43.669-69.818,56.6C1144.319,495.923,1226.172,502.53,1226.172,515.693Z" transform="translate(-650.433 -227.82)" fill="none" stroke="#005561" stroke-miterlimit="10" stroke-width="4"/>
      <path id="Path_1949" data-name="Path 1949" d="M947.24,410.614a52.04,52.04,0,0,1-2.341,15.842,96.291,96.291,0,0,0-24.354-7.6,56.293,56.293,0,0,1-.6-8.243c0-15.654,6.111-28.333,13.64-28.333S947.24,394.959,947.24,410.614Z" transform="translate(-671.419 -239.847)" fill="none" stroke="#005561" stroke-miterlimit="10" stroke-width="1"/>
      <path id="Path_1950" data-name="Path 1950" d="M1002.956,410.6c0,15.654-6.1,28.342-13.64,28.342s-13.64-12.688-13.64-28.342,6.111-28.333,13.64-28.333S1002.956,394.959,1002.956,410.6Z" transform="translate(-675.758 -239.846)" fill="none" stroke="#005561" stroke-miterlimit="10" stroke-width="1"/>
      <path id="Path_1951" data-name="Path 1951" d="M953.473,501.577c-106.156,29.353-96.146-87.754-31.9-77.427a71.164,71.164,0,0,1,17.9,5.584,108.492,108.492,0,0,1,16.19,9.176" transform="translate(-667.791 -243.057)" fill="none" stroke="#005561" stroke-miterlimit="10" stroke-width="4"/>
    </g>
  </g>
</svg>
