<svg xmlns="http://www.w3.org/2000/svg" width="226.628" height="248.925" viewBox="0 0 226.628 248.925">
  <g id="PLANTS" transform="translate(-538.667 -583.862)">
    <g id="Group_2642" data-name="Group 2642">
      <path id="Path_2232" data-name="Path 2232" d="M762.8,812.672a14.521,14.521,0,1,1-28.139,7.183c-4.84-18.964-25.072-61.73-32.891-71.026-1.446-1.72-2.867-3.316-4.228-4.781a101.289,101.289,0,0,0-11.054-11.9c-6.577-5.977-11.052-8.15-11.052-8.15l34.693-6.314v0C722.3,729.3,754.514,780.2,762.8,812.672Z" fill="#fff"/>
      <path id="Path_2233" data-name="Path 2233" d="M697.547,744.048l-14.124-5.442,3.07-6.455A101.289,101.289,0,0,1,697.547,744.048Z" fill="#005561"/>
      <path id="Path_2234" data-name="Path 2234" d="M686.493,732.151l-3.07,6.455-13.212-5.09c2.052-3.776,3.785-6.92,5.23-9.515C675.441,724,679.916,726.174,686.493,732.151Z" fill="#005561"/>
      <path id="Path_2235" data-name="Path 2235" d="M662.885,603.119c5.752,12.287-4.044,19.869-8.3,19.607V585.863S657.133,590.831,662.885,603.119Z" fill="#005561"/>
      <path id="Path_2236" data-name="Path 2236" d="M659.288,753.682v0c-.085.24-.169.484-.253.728v0c-.131.253-6.726,13.249-10.961,21.6-.749-8-1.8-15.691-3.057-23.005a31.826,31.826,0,0,0,13.584-5.3C658.894,749.928,659.116,751.927,659.288,753.682Z" fill="#005561"/>
      <path id="Path_2237" data-name="Path 2237" d="M645.017,753.007c1.255,7.314,2.308,15.005,3.057,23.005-2.011,3.966-3.491,6.883-3.491,6.886-.4-.84-14.221-28.991-14.583-29.844-.228-1.67-.581-4.1-.993-6.676A17.221,17.221,0,0,0,645.017,753.007Z" fill="#005561"/>
      <path id="Path_2238" data-name="Path 2238" d="M607.995,717.687,595.007,724c-3.809-4.972-6.242-7.72-6.242-7.72l-.652-.418a77.907,77.907,0,0,0,6.6-12.509c3.145,3.032,6.8,6.788,10.623,11.2v0Q606.657,716.067,607.995,717.687Z" fill="#005561"/>
      <path id="Path_2239" data-name="Path 2239" d="M595.007,724l-14.117,6.867c-.718-.837-1.38-1.574-1.977-2.2a129.35,129.35,0,0,0,9.2-12.8l.652.418S591.2,719.029,595.007,724Z" fill="#005561"/>
    </g>
    <g id="Group_2643" data-name="Group 2643">
      <path id="Path_2240" data-name="Path 2240" d="M614.053,661.7q-12.712-24.891-27.133-42.25a14.521,14.521,0,0,0-22.331,18.568c17.05,20.5,30.534,48.9,40.751,76.531" fill="none" stroke="#005561" stroke-linecap="round" stroke-linejoin="round" stroke-width="4"/>
      <line id="Line_115" data-name="Line 115" y1="68.415" transform="translate(625.547 592.736)" fill="none" stroke="#005561" stroke-linecap="round" stroke-linejoin="round" stroke-width="4"/>
      <path id="Path_2241" data-name="Path 2241" d="M654.588,689.252V585.863" fill="none" stroke="#005561" stroke-linecap="round" stroke-linejoin="round" stroke-width="4"/>
      <path id="Path_2242" data-name="Path 2242" d="M645.461,709.149v0h0" fill="none" stroke="#005561" stroke-linecap="round" stroke-linejoin="round" stroke-width="4"/>
      <line id="Line_116" data-name="Line 116" y1="0.003" transform="translate(634.231 708.962)" fill="none" stroke="#005561" stroke-linecap="round" stroke-linejoin="round" stroke-width="4"/>
      <path id="Path_2243" data-name="Path 2243" d="M659.288,753.685l.019.206" fill="none" stroke="#005561" stroke-linecap="round" stroke-linejoin="round" stroke-width="4"/>
      <path id="Path_2244" data-name="Path 2244" d="M639.162,680.358c3.544,7.985,6.48,15.648,8.912,22.864q.624,1.855,1.206,3.67c1.948,6.073,3.534,11.8,4.83,17.109a223.138,223.138,0,0,1,4.491,23.71c.293,2.217.515,4.216.687,5.971" fill="none" stroke="#005561" stroke-linecap="round" stroke-linejoin="round" stroke-width="4"/>
      <path id="Path_2245" data-name="Path 2245" d="M606.514,678.859a14.53,14.53,0,0,1,6.642-16.678c.241-.141.491-.275.744-.4l.153-.075a14.522,14.522,0,0,1,19.351,6.5q3.12,6.177,5.758,12.153" fill="none" stroke="#005561" stroke-linecap="round" stroke-linejoin="round" stroke-width="4"/>
      <path id="Path_2246" data-name="Path 2246" d="M630,753.054c-.228-1.67-.581-4.1-.993-6.676s-.868-5.262-1.321-7.482a231.861,231.861,0,0,0-20.21-57.614,14.66,14.66,0,0,1-.958-2.407" fill="none" stroke="#005561" stroke-linecap="round" stroke-linejoin="round" stroke-width="4"/>
      <path id="Path_2247" data-name="Path 2247" d="M648.074,703.222q3.3-7.372,6.514-13.97c2.62-5.409,5.153-10.4,7.526-14.914,13.877-26.421,25.219-42.578,25.693-43.253a14.522,14.522,0,0,1,23.733,16.741,402.893,402.893,0,0,0-23.964,40.489,476.063,476.063,0,0,0-28.288,65.367v0c-.085.24-.169.484-.253.728v0" fill="none" stroke="#005561" stroke-linecap="round" stroke-linejoin="round" stroke-width="4"/>
      <path id="Path_2248" data-name="Path 2248" d="M645.457,709.149h0l0,0v0" fill="none" stroke="#005561" stroke-linecap="round" stroke-linejoin="round" stroke-width="4"/>
      <path id="Path_2249" data-name="Path 2249" d="M644.583,782.9c-.4-.84-14.221-28.991-14.583-29.844-.209-.484-.418-.968-.631-1.449a147.5,147.5,0,0,0-21.374-33.918q-1.335-1.617-2.655-3.132v0c-3.828-4.41-7.478-8.166-10.623-11.2l0,0" fill="none" stroke="#005561" stroke-linecap="round" stroke-linejoin="round" stroke-width="4"/>
      <path id="Path_2250" data-name="Path 2250" d="M614.053,782.9c-5.893-14.739-23.986-41.335-33.163-52.03-.718-.837-1.38-1.574-1.977-2.2a128.418,128.418,0,0,1-13.843,15.46,14.521,14.521,0,0,1-19.763-21.281c3.444-3.216,13.259-13.574,17.084-22.577" fill="none" stroke="#005561" stroke-linecap="round" stroke-linejoin="round" stroke-width="4"/>
      <path id="Path_2251" data-name="Path 2251" d="M675.441,724c-1.445,2.6-3.178,5.739-5.23,9.515-2.942,5.414-6.545,12.128-10.9,20.375-.06.116-.122.231-.185.35-.031.056-.059.112-.087.172v0c-.131.253-6.726,13.249-10.961,21.6-2.011,3.966-3.491,6.883-3.491,6.886" fill="none" stroke="#005561" stroke-linecap="round" stroke-linejoin="round" stroke-width="4"/>
      <path id="Path_2252" data-name="Path 2252" d="M675.441,791.594c5.356-10.142,18.905-41.7,22.106-47.546,1.361,1.465,2.782,3.061,4.228,4.781,7.819,9.3,28.051,52.062,32.891,71.026a14.521,14.521,0,1,0,28.139-7.183c-8.291-32.475-40.5-83.372-52.671-94.988" fill="none" stroke="#005561" stroke-linecap="round" stroke-linejoin="round" stroke-width="4"/>
      <line id="Line_117" data-name="Line 117" x1="4.038" y2="8.697" transform="translate(640.545 782.898)" fill="none" stroke="#005561" stroke-linecap="round" stroke-linejoin="round" stroke-width="4"/>
      <path id="Path_2253" data-name="Path 2253" d="M578.913,728.666a129.35,129.35,0,0,0,9.2-12.8,77.907,77.907,0,0,0,6.6-12.509L577.361,701.7l-14.97-1.431" fill="none" stroke="#005561" stroke-linecap="round" stroke-linejoin="round" stroke-width="4"/>
      <path id="Path_2254" data-name="Path 2254" d="M625.547,592.736l13.615-3.223,15.426-3.65s2.545,4.968,8.3,17.256-4.044,19.869-8.3,19.607" fill="none" stroke="#005561" stroke-linecap="round" stroke-linejoin="round" stroke-width="4"/>
      <path id="Path_2255" data-name="Path 2255" d="M648.074,776.012c-.749-8-1.8-15.691-3.057-23.005-7.669-44.623-22.917-75.119-22.917-75.119" fill="none" stroke="#005561" stroke-linecap="round" stroke-linejoin="round" stroke-width="4"/>
      <path id="Path_2256" data-name="Path 2256" d="M576.087,629.262c20.138,27.02,29.95,48.542,30.427,49.6l0,.016a.127.127,0,0,1,.012.025" fill="none" stroke="#005561" stroke-linecap="round" stroke-linejoin="round" stroke-width="4"/>
      <path id="Path_2257" data-name="Path 2257" d="M654.11,724c24.723-53.023,43.8-83.5,43.8-83.5" fill="none" stroke="#005561" stroke-linecap="round" stroke-linejoin="round" stroke-width="4"/>
      <path id="Path_2258" data-name="Path 2258" d="M639.162,680.358V589.516" fill="none" stroke="#005561" stroke-linecap="round" stroke-linejoin="round" stroke-width="4"/>
      <path id="Path_2259" data-name="Path 2259" d="M577.361,701.7c-6.5,15.141-20.619,29.169-20.619,29.169" fill="none" stroke="#005561" stroke-linecap="round" stroke-linejoin="round" stroke-width="4"/>
      <path id="Path_2260" data-name="Path 2260" d="M588.765,716.281s2.433,2.748,6.242,7.72a256.889,256.889,0,0,1,30.846,52.011" fill="none" stroke="#005561" stroke-linecap="round" stroke-linejoin="round" stroke-width="4"/>
      <path id="Path_2261" data-name="Path 2261" d="M662.361,782.9l21.063-44.292,3.07-6.455" fill="none" stroke="#005561" stroke-linecap="round" stroke-linejoin="round" stroke-width="4"/>
      <path id="Path_2262" data-name="Path 2262" d="M693.881,720.844c34.362,23.2,54.453,91.148,54.453,91.148" fill="none" stroke="#005561" stroke-linecap="round" stroke-linejoin="round" stroke-width="4"/>
      <path id="Path_2263" data-name="Path 2263" d="M580.89,730.868,595.007,724l12.987-6.314" fill="none" stroke="#005561" stroke-linecap="round" stroke-linejoin="round" stroke-width="4"/>
      <path id="Path_2264" data-name="Path 2264" d="M670.211,733.516l13.212,5.09,14.124,5.442a101.289,101.289,0,0,0-11.054-11.9c-6.577-5.977-11.052-8.15-11.052-8.15l34.693-6.314" fill="none" stroke="#005561" stroke-linecap="round" stroke-linejoin="round" stroke-width="4"/>
      <path id="Path_2265" data-name="Path 2265" d="M629.007,746.378a17.221,17.221,0,0,0,16.01,6.629,31.826,31.826,0,0,0,13.584-5.3" fill="none" stroke="#005561" stroke-linecap="round" stroke-linejoin="round" stroke-width="4"/>
    </g>
  </g>
</svg>
