<?xml version="1.0" encoding="utf-8"?>
<!-- Generator: Adobe Illustrator 26.0.2, SVG Export Plug-In . SVG Version: 6.00 Build 0)  -->
<svg version="1.1" id="Layer_1" xmlns="http://www.w3.org/2000/svg" xmlns:xlink="http://www.w3.org/1999/xlink" x="0px" y="0px"
	 viewBox="0 0 422.4 565.9" style="enable-background:new 0 0 422.4 565.9;" xml:space="preserve">
<style type="text/css">
	.st0{fill:#D6F5FA;}
	.st1{fill:none;stroke:#005561;stroke-width:4;stroke-linecap:round;stroke-linejoin:round;}
	.st2{fill:#D6F5FA;stroke:#005561;stroke-width:4;stroke-linecap:round;stroke-linejoin:round;}
	.st3{fill:#FFFFFF;}
	.st4{fill:none;}
	.st5{fill:none;stroke:#005561;stroke-width:4;stroke-miterlimit:10;}
	.st6{fill:none;stroke:#005561;stroke-width:4;stroke-linecap:round;stroke-miterlimit:10;}
</style>
<polyline class="st0" points="2,515.6 108,517 107.1,442 "/>
<polyline class="st0" points="260.4,525.3 180.2,527.5 180.9,405.8 "/>
<g id="Group_2676" transform="translate(-2033.349 -406.379)">
	<path id="Path_2367" class="st1" d="M2139.3,928.2c-38.1,4.7-25.1,22.1,3,28"/>
	<path id="Path_2368" class="st1" d="M2101.3,945.3c2.4,22.1,51,24.9,51,24.9"/>
	<g id="Water_Splashes" transform="translate(2035.366 722.987)">
		<path id="Path_2369" class="st2" d="M105.5,125c-3.6-134.7-66.7-95.9-20.1,35.5C41.3,68,30.1,139.6,48.8,182.9
			c-54.6-80-48.6,16-48.6,16"/>
		<path id="Path_2370_00000039824190648145321490000003996805733342076849_" class="st2" d="M178.9,93.5
			c50.8-150.1,111.9-117.2,20.1,38.7c53.8-50.1,35.3,5.8-5.1,45.4c77.8-68,113.2-56.8,63.9,31.7"/>
	</g>
	<g id="Group_2682" transform="translate(2140.321 408.381)">
		<g id="Group_2681">
			<g id="Group_2679">
				<path id="Path_2376" class="st3" d="M298.4,0.1c8.5,0.1,15.3,25.8,15.1,57.5s-7.3,57.3-15.8,57.3l-21.2-0.1
					c8.5,0,15.6-25.6,15.8-57.3s-6.5-57.4-15-57.5L298.4,0.1L298.4,0.1z"/>
				<path id="Path_2377" class="st3" d="M277.2,0c8.5,0.1,15.3,25.8,15,57.5s-7.3,57.3-15.8,57.3c-4.8,0-9.1-8.3-11.8-21.1l11.9,0.1
					c3.3,0,6.1-16.3,6.2-36.3S280.3,21,277,21l-11.9-0.1C268,8.1,272.3,0,277.2,0L277.2,0z"/>
				<path id="Path_2378" class="st4" d="M277,21c3.3,0,5.9,16.3,5.7,36.4s-2.9,36.3-6.2,36.3l-11.9-0.1L169.8,93
					c3.3,0,6.1-16.3,6.2-36.3s-2.4-36.3-5.7-36.4l94.8,0.7L277,21z"/>
				<path id="Path_2379" class="st4" d="M170.3,20.3c3.3,0.1,5.9,16.3,5.7,36.4S173.1,93,169.8,93h0L75,92.4l0,0
					c1.7-2.8-8.4-15.5-22.9-28.8c-14.2-13-27.5-21.8-30.5-20.4c13.9-15.1,33.5-23.7,54-23.6h0c0,0,0.1,0,0.1,0L170.3,20.3
					L170.3,20.3z"/>
				<path id="Path_2380" class="st4" d="M75,92.3L75,92.3l-0.4,84.5h-0.1c0,2.8-16.3,5-36.4,4.9c-19.1-0.1-34.7-2.3-36.2-4.9L2.3,92
					c0,0,0-0.1,0-0.1c0.1-18,7-35.4,19.2-48.7h0c3.1-1.4,16.3,7.4,30.5,20.4C66.6,76.8,76.7,89.5,75,92.3z"/>
				<path id="Path_2381" class="st4" d="M74.6,176.8l-0.7,119h-0.3c0,2.8-16.3,5-36.4,4.9c-18.4-0.1-33.6-2.2-36-4.7l0.6-119.3
					c1.5,2.6,17.1,4.8,36.2,4.9c20.1,0.1,36.4-2,36.4-4.9L74.6,176.8z"/>
				<path id="Path_2382" class="st4" d="M73.9,295.9l-0.7,121h-0.4c0,2.8-16.3,5-36.4,4.9c-18-0.1-32.9-2.1-35.8-4.5c0,0,0,0,0,0
					L1.2,296c2.4,2.5,17.6,4.6,36,4.7c20.1,0.1,36.4-2,36.4-4.9L73.9,295.9z"/>
				<path id="Path_2383" class="st4" d="M73.2,416.8l-0.6,110.1c0,0-32.3,13.9-72.6,1.5l0.6-111.2c2.9,2.4,17.8,4.4,35.8,4.5
					c20.1,0.1,36.4-2,36.4-4.9L73.2,416.8z"/>
			</g>
			<g id="Group_2680">
				<path id="Path_2384" class="st5" d="M298.4,0.1c8.5,0.1,15.3,25.8,15.1,57.5s-7.3,57.3-15.8,57.3"/>
				<path id="Path_2385" class="st5" d="M265.1,20.9C268,8.1,272.3,0,277.2,0h0c8.5,0.1,15.3,25.8,15,57.5s-7.3,57.3-15.8,57.3
					c-4.8,0-9.1-8.3-11.8-21.1"/>
				<line id="Line_133" class="st5" x1="277.2" y1="0" x2="298.4" y2="0.1"/>
				<line id="Line_134" class="st5" x1="276.4" y1="114.8" x2="297.6" y2="114.9"/>
				<path id="Path_2386" class="st5" d="M276.5,93.8c3.3,0,6.1-16.3,6.2-36.3S280.3,21,277,21"/>
				<path id="Path_2387" class="st5" d="M169.8,93c3.3,0,6.1-16.3,6.2-36.3s-2.4-36.3-5.7-36.4"/>
				<path id="Path_2388" class="st5" d="M277,21l-11.9-0.1l-94.8-0.7h0l-94.6-0.7"/>
				<path id="Path_2389" class="st6" d="M276.5,93.8l-11.9-0.1L169.8,93h0L75,92.4"/>
				<path id="Path_2390" class="st5" d="M0.6,417.2L0,528.4c40.3,12.4,72.6-1.5,72.6-1.5l0.6-110.1l0.7-121l0.7-119L75,92.4"/>
				<path id="Path_2391" class="st5" d="M2.3,92l-0.5,84.8L1.2,296.1L0.6,417.2"/>
				<path id="Path_2392" class="st5" d="M1.7,176.3c0,0.2,0,0.3,0.1,0.4c1.5,2.6,17.1,4.8,36.2,4.9c20.1,0.1,36.4-2,36.4-4.9"/>
				<path id="Path_2393" class="st5" d="M0.9,295.4c0,0.3,0.1,0.5,0.3,0.7c2.4,2.5,17.6,4.6,36,4.7c20.1,0.1,36.4-2,36.4-4.9"/>
				<path id="Path_2394" class="st5" d="M0.1,416.3c0,0.4,0.2,0.7,0.5,0.9c0,0,0,0,0,0c2.9,2.4,17.8,4.4,35.8,4.5
					c20.1,0.1,36.4-2,36.4-4.9"/>
				<path id="Path_2395" class="st5" d="M21.5,43.2C9.3,56.5,2.4,73.8,2.3,91.9c0,0,0,0.1,0,0.1"/>
				<path id="Path_2396" class="st5" d="M75.7,19.6c0,0-0.1,0-0.1,0h0c-20.5-0.1-40.1,8.4-54,23.6"/>
				<path id="Path_2397" class="st5" d="M74.9,92.5c0-0.1,0.1-0.1,0.1-0.2c1.7-2.8-8.4-15.5-22.9-28.8c-14.2-13-27.5-21.8-30.5-20.4
					h0c-0.1,0.1-0.2,0.1-0.3,0.2"/>
			</g>
		</g>
	</g>
	<g id="Group_2772" transform="translate(2140.321 408.381)">
		<g id="Group_2681-2">
			<g id="Group_2679-2">
				<path id="Path_2376-2" class="st4" d="M298.4,0.1c8.5,0.1,15.3,25.8,15.1,57.5s-7.3,57.3-15.8,57.3l-21.2-0.1
					c8.5,0,15.6-25.6,15.8-57.3s-6.5-57.4-15-57.5L298.4,0.1L298.4,0.1z"/>
				<path id="Path_2377-2" class="st3" d="M277.2,0c8.5,0.1,15.3,25.8,15,57.5s-7.3,57.3-15.8,57.3c-4.8,0-9.1-8.3-11.8-21.1
					l11.9,0.1c3.3,0,6.1-16.3,6.2-36.3S280.3,21,277,21l-11.9-0.1C268,8.1,272.3,0,277.2,0L277.2,0z"/>
				<path id="Path_2378-2" class="st4" d="M277,21c3.3,0,5.9,16.3,5.7,36.4s-2.9,36.3-6.2,36.3l-11.9-0.1L169.8,93
					c3.3,0,6.1-16.3,6.2-36.3s-2.4-36.3-5.7-36.4l94.8,0.7L277,21z"/>
				<path id="Path_2379-2" class="st4" d="M170.3,20.3c3.3,0.1,5.9,16.3,5.7,36.4S173.1,93,169.8,93h0L75,92.4l0,0
					c1.7-2.8-8.4-15.5-22.9-28.8c-14.2-13-27.5-21.8-30.5-20.4c13.9-15.1,33.5-23.7,54-23.6h0c0,0,0.1,0,0.1,0L170.3,20.3
					L170.3,20.3z"/>
				<path id="Path_2380-2" class="st4" d="M75,92.3L75,92.3l-0.4,84.5h-0.1c0,2.8-16.3,5-36.4,4.9c-19.1-0.1-34.7-2.3-36.2-4.9
					L2.3,92c0,0,0-0.1,0-0.1c0.1-18,7-35.4,19.2-48.7h0c3.1-1.4,16.3,7.4,30.5,20.4C66.6,76.8,76.7,89.5,75,92.3z"/>
				<path id="Path_2381-2" class="st4" d="M74.6,176.8l-0.7,119h-0.3c0,2.8-16.3,5-36.4,4.9c-18.4-0.1-33.6-2.2-36-4.7l0.6-119.3
					c1.5,2.6,17.1,4.8,36.2,4.9c20.1,0.1,36.4-2,36.4-4.9L74.6,176.8z"/>
				<path id="Path_2382-2" class="st4" d="M73.9,295.9l-0.7,121h-0.4c0,2.8-16.3,5-36.4,4.9c-18-0.1-32.9-2.1-35.8-4.5c0,0,0,0,0,0
					L1.2,296c2.4,2.5,17.6,4.6,36,4.7c20.1,0.1,36.4-2,36.4-4.9L73.9,295.9z"/>
				<path id="Path_2383-2" class="st4" d="M73.2,416.8l-0.6,110.1c0,0-32.3,13.9-72.6,1.5l0.6-111.2c2.9,2.4,17.8,4.4,35.8,4.5
					c20.1,0.1,36.4-2,36.4-4.9L73.2,416.8z"/>
			</g>
			<g id="Group_2680-2">
				<path id="Path_2384-2" class="st5" d="M298.4,0.1c8.5,0.1,15.3,25.8,15.1,57.5s-7.3,57.3-15.8,57.3"/>
				<path id="Path_2385-2" class="st5" d="M265.1,20.9C268,8.1,272.3,0,277.2,0h0c8.5,0.1,15.3,25.8,15,57.5s-7.3,57.3-15.8,57.3
					c-4.8,0-9.1-8.3-11.8-21.1"/>
				<line id="Line_133-2" class="st5" x1="277.2" y1="0" x2="298.4" y2="0.1"/>
				<line id="Line_134-2" class="st5" x1="276.4" y1="114.8" x2="297.6" y2="114.9"/>
				<path id="Path_2386-2" class="st5" d="M276.5,93.8c3.3,0,6.1-16.3,6.2-36.3S280.3,21,277,21"/>
				<path id="Path_2387-2" class="st5" d="M169.8,93c3.3,0,6.1-16.3,6.2-36.3s-2.4-36.3-5.7-36.4"/>
				<path id="Path_2388-2" class="st5" d="M277,21l-11.9-0.1l-94.8-0.7h0l-94.6-0.7"/>
				<path id="Path_2389-2" class="st6" d="M276.5,93.8l-11.9-0.1L169.8,93h0L75,92.4"/>
				<path id="Path_2390-2" class="st5" d="M0.6,417.2L0,528.4c40.3,12.4,72.6-1.5,72.6-1.5l0.6-110.1l0.7-121l0.7-119L75,92.4"/>
				<path id="Path_2391-2" class="st5" d="M2.3,92l-0.5,84.8L1.2,296.1L0.6,417.2"/>
				<path id="Path_2392-2" class="st5" d="M1.7,176.3c0,0.2,0,0.3,0.1,0.4c1.5,2.6,17.1,4.8,36.2,4.9c20.1,0.1,36.4-2,36.4-4.9"/>
				<path id="Path_2393-2" class="st5" d="M0.9,295.4c0,0.3,0.1,0.5,0.3,0.7c2.4,2.5,17.6,4.6,36,4.7c20.1,0.1,36.4-2,36.4-4.9"/>
				<path id="Path_2394-2" class="st5" d="M0.1,416.3c0,0.4,0.2,0.7,0.5,0.9c0,0,0,0,0,0c2.9,2.4,17.8,4.4,35.8,4.5
					c20.1,0.1,36.4-2,36.4-4.9"/>
				<path id="Path_2395-2" class="st5" d="M21.5,43.2C9.3,56.5,2.4,73.8,2.3,91.9c0,0,0,0.1,0,0.1"/>
				<path id="Path_2396-2" class="st5" d="M75.7,19.6c0,0-0.1,0-0.1,0h0c-20.5-0.1-40.1,8.4-54,23.6"/>
				<path id="Path_2397-2" class="st5" d="M74.9,92.5c0-0.1,0.1-0.1,0.1-0.2c1.7-2.8-8.4-15.5-22.9-28.8
					c-14.2-13-27.5-21.8-30.5-20.4h0c-0.1,0.1-0.2,0.1-0.3,0.2"/>
			</g>
		</g>
	</g>
	<path id="Path_2782" class="st1" d="M2101.3,945.3c2.4,22.1,51,24.9,51,24.9"/>
	<path id="Path_2786" class="st5" d="M2438.7,408.5c8.5,0.1,15.3,25.8,15.1,57.5s-7.3,57.3-15.8,57.3"/>
	<path id="Path_2787" class="st5" d="M2405.4,429.3c2.9-12.8,7.3-21,12.1-20.9h0c8.5,0.1,15.3,25.8,15,57.5s-7.3,57.3-15.8,57.3
		c-4.8,0-9.1-8.3-11.8-21.1"/>
	<path id="Path_2788" class="st5" d="M2417.3,429.4l-11.9-0.1l-94.8-0.7h0L2216,428"/>
	<path id="Path_2789" class="st5" d="M2140.9,825.6l-0.6,111.2c40.3,12.4,72.6-1.5,72.6-1.5l0.6-110.1l0.7-121l0.7-119l0.5-84.5"/>
	<path id="Path_2790" class="st5" d="M2140.4,824.7c0,0.4,0.2,0.7,0.5,0.9c0,0,0,0,0,0c2.9,2.4,17.8,4.4,35.8,4.5
		c20.1,0.1,36.4-2,36.4-4.9"/>
</g>
<g id="WATHER_SPLASH_1" transform="translate(2133.767 850.963)">
	<path id="Path_2398" class="st2" d="M-2032.8-312.6c-5.3-115.4,28.9-130,19.8-11.9c16.2-72.4,35.9-34.1,26.5,17.8"/>
</g>
<path class="st2" d="M180.9,410.1"/>
</svg>
