<svg id="Group_2627" data-name="Group 2627" xmlns="http://www.w3.org/2000/svg" width="502.212" height="647.25" viewBox="0 0 502.212 647.25">
  <path id="Path_2119" data-name="Path 2119" d="M329.668,217.228c-7.548-7.258-8.661,20.092-4.626,22.457S345.034,232,329.668,217.228Z" transform="translate(-322.742 -216.006)" fill="#e7ecec"/>
  <path id="Path_2120" data-name="Path 2120" d="M784.35,234.849c-3.577-15.2-18.912-1.675-11.229,4.481S786.713,244.895,784.35,234.849Z" transform="translate(-296.372 -215.307)" fill="#e7ecec"/>
  <path id="Path_2121" data-name="Path 2121" d="M630.758,827.7c-14.971,0-18.911,7.092-18.911,16.154s-9.85,18.123-18.124-13.4-46.884-17.335-48.459-47.672,31.124-14.578,20.093-44.914,10.637-25.215-.788-50.036,3.94-42.156-22.064-52.4-12.213-18.123-20.092-35.852-25.609-7.88-40.975-22.852-31.912-1.182-40.973-15.365-7.88-27.579,13-46.1,5.121-28.761,17.729-38.216,26.4-6.3,31.912-29.155,21.811-27.578,29.817-3.94-16.815,52.4,10.37,57.916,42.55-5.516,52.793-21.669,33.095-33.883,63.825-3.152c37.429,46.1,63.431,5.515,47.278-4.334s-15.76-24.033-1.575-40.581,5.122-30.73,15.365-31.912-8.668,42.55,6.7,42.55,12.607-20.487,37.822-30.337,29.155,7.88,34.67,26,22.063,43.338,17.335,75.251,8.274,54.369-13.789,59.885-54.37,9.455-39.793,27.184,7.486,31.391-12.214,25.545-30.336,41.826-46.095,17.793-26-33.095-35.459-13.4-28.366,19.7-19.7,47.672,11.82,42.55,0,61.462-33.095,35.064-22.063,51.218S657.549,824.549,630.758,827.7Z" transform="translate(-316.133 -205.169)" fill="#e7ecec"/>
  <path id="Path_2122" data-name="Path 2122" d="M720.757,694.308c-18.123-5.122-14.972-18.123-10.638-37.823s28.761-22.851,39.4-11.425-5.91,27.972-7.486,42.944S720.757,694.308,720.757,694.308Z" transform="translate(-300.15 -191.153)" fill="#e7ecec"/>
  <path id="Path_2123" data-name="Path 2123" d="M666.836,716.552c-5.686-5.117-12.214,15.76-3.94,16.941S674.716,723.644,666.836,716.552Z" transform="translate(-302.962 -186.606)" fill="#e7ecec"/>
  <path id="Path_2124" data-name="Path 2124" d="M653.285,758.952c-6.442,4.049-7.091,9.455,0,7.092S657.047,756.588,653.285,758.952Z" transform="translate(-303.595 -184.092)" fill="#e7ecec"/>
  <path id="Path_2125" data-name="Path 2125" d="M648.51,719.3c-3.046-9.289-7.923,3.152-3.983,11.032S652.483,731.406,648.51,719.3Z" transform="translate(-303.899 -186.591)" fill="#e7ecec"/>
  <path id="Path_2126" data-name="Path 2126" d="M679.713,703.181c-7.984-5.766-5.909,10.243,0,10.638S686.805,708.3,679.713,703.181Z" transform="translate(-302.05 -187.418)" fill="#e7ecec"/>
  <path id="Path_2127" data-name="Path 2127" d="M451.6,579.968c-6.368-2.389-6.7,9.455,0,9.849S464.209,584.7,451.6,579.968Z" transform="translate(-315.45 -194.612)" fill="#e7ecec"/>
  <path id="Path_2128" data-name="Path 2128" d="M456.922,440.651c16.15,9.067,39-13,27.578-27.185S434.464,428.043,456.922,440.651Z" transform="translate(-315.254 -204.615)" fill="#e7ecec"/>
  <path id="Path_2129" data-name="Path 2129" d="M392.937,371.959c-9.268-1.918-9.85,13.4,0,15.366S404.362,374.324,392.937,371.959Z" transform="translate(-319.034 -206.841)" fill="#e7ecec"/>
  <path id="Path_2130" data-name="Path 2130" d="M444.03,472.416c-4.071-.582-3.5,11.031,2.98,9.455S452.3,473.6,444.03,472.416Z" transform="translate(-315.758 -200.922)" fill="#e7ecec"/>
  <path id="Path_2131" data-name="Path 2131" d="M414.881,535.512c-1.091,11.09.788,19.306,6.3,16.941s-2.905-11.031-2.437-16.941S415.3,531.217,414.881,535.512Z" transform="translate(-317.339 -197.436)" fill="#e7ecec"/>
</svg>
