<svg xmlns="http://www.w3.org/2000/svg" width="1764.943" height="407.174" viewBox="0 0 1764.943 407.174">
  <g id="Group_3253" data-name="Group 3253" transform="translate(-918.955 -654.004)">
    <g id="Group_3067" data-name="Group 3067" transform="translate(147.955 914.004)">
      <ellipse id="Ellipse_40" data-name="Ellipse 40" cx="882.471" cy="203.587" rx="882.471" ry="203.587" transform="translate(771 -260)" fill="#d6f5fa"/>
    </g>
    <path id="Path_5467" data-name="Path 5467" d="M-17475.766-11960.086c54.221,7.873,71.943-25.753,71.943-25.753" transform="translate(18640.289 12859.059)" fill="none" stroke="#005661" stroke-linecap="round" stroke-width="4"/>
    <path id="Path_5468" data-name="Path 5468" d="M-17414.7-12039.414c35.957,6.641,12.369,35.285,12.369,35.285" transform="translate(18669.262 12833.641)" fill="none" stroke="#005661" stroke-linecap="round" stroke-width="4"/>
    <path id="Path_5469" data-name="Path 5469" d="M-17398.039-12042.948c19.98,10.16,11.533,31.841,11.533,31.841" transform="translate(18677.172 12831.962)" fill="none" stroke="#005661" stroke-linecap="round" stroke-width="4"/>
    <path id="Path_5470" data-name="Path 5470" d="M-17517.908-12008.328c-7.369,25.37,41.33,38.793,41.33,38.793" transform="translate(18619.928 12848.391)" fill="none" stroke="#005661" stroke-linecap="round" stroke-width="4"/>
    <path id="Path_5471" data-name="Path 5471" d="M-17525.662-11992.859c8.836,18.334,34.971,26.379,34.971,26.379" transform="translate(18616.617 12855.729)" fill="none" stroke="#005661" stroke-linecap="round" stroke-width="4"/>
  </g>
</svg>
