<svg xmlns="http://www.w3.org/2000/svg" xmlns:xlink="http://www.w3.org/1999/xlink" width="2085.72" height="77.41" viewBox="0 0 2085.72 77.41">
  <defs>
    <clipPath id="clip-path">
      <rect id="Rectangle_2991" data-name="Rectangle 2991" width="2081.72" height="73.41" transform="translate(2 2)" fill="none"/>
    </clipPath>
  </defs>
  <path id="Path_4272" data-name="Path 4272" d="M17.65,75.41C9,75.41,2,58.98,2,38.7S9,2,17.65,2" transform="translate(0 0)" fill="none" stroke="#005561" stroke-miterlimit="10" stroke-width="4"/>
  <path id="Path_4273" data-name="Path 4273" d="M51.29,15.45C48.42,7.24,44.06,2,39.18,2,30.54,2,23.53,18.44,23.53,38.71s7.01,36.7,15.65,36.7c4.88,0,9.24-5.23,12.11-13.45" transform="translate(0 0)" fill="none" stroke="#005561" stroke-miterlimit="10" stroke-width="4"/>
  <line id="Line_413" data-name="Line 413" x1="21.53" transform="translate(17.65 2)" fill="none" stroke="#005561" stroke-miterlimit="10" stroke-width="4"/>
  <line id="Line_414" data-name="Line 414" x1="21.53" transform="translate(17.65 75.41)" fill="none" stroke="#005561" stroke-miterlimit="10" stroke-width="4"/>
  <path id="Path_4274" data-name="Path 4274" d="M39.18,15.45c-3.34,0-6.05,10.41-6.05,23.26s2.71,23.25,6.05,23.25" transform="translate(0 0)" fill="none" stroke="#005561" stroke-miterlimit="10" stroke-width="4"/>
  <path id="Path_4275" data-name="Path 4275" d="M39.18,15.45H523.8" transform="translate(0 0)" fill="none" stroke="#005561" stroke-linecap="round" stroke-miterlimit="10" stroke-width="4"/>
  <path id="Path_4276" data-name="Path 4276" d="M39.18,61.96H523.8" transform="translate(0 0)" fill="none" stroke="#005561" stroke-miterlimit="10" stroke-width="4"/>
  <path id="Path_4277" data-name="Path 4277" d="M286.62,61.96c-2.87,0-5.19-10.41-5.19-23.25s2.32-23.26,5.19-23.26" transform="translate(0 0)" fill="none" stroke="#005561" stroke-miterlimit="10" stroke-width="4"/>
  <path id="Path_4278" data-name="Path 4278" d="M414.09,61.96c-2.86,0-5.18-10.41-5.18-23.25s2.32-23.26,5.18-23.26" transform="translate(0 0)" fill="none" stroke="#005561" stroke-miterlimit="10" stroke-width="4"/>
  <path id="Path_4279" data-name="Path 4279" d="M150.32,61.96c-2.87,0-5.19-10.41-5.19-23.25s2.32-23.26,5.19-23.26" transform="translate(0 0)" fill="none" stroke="#005561" stroke-miterlimit="10" stroke-width="4"/>
  <path id="Path_4280" data-name="Path 4280" d="M535.9,75.41c-4.88,0-9.24-5.24-12.1-13.45a72.2,72.2,0,0,1-3.54-23.26,72.137,72.137,0,0,1,3.54-23.25C526.66,7.24,531.01,2.01,535.9,2" transform="translate(0 0)" fill="none" stroke="#005561" stroke-miterlimit="10" stroke-width="4"/>
  <path id="Path_4281" data-name="Path 4281" d="M569.54,15.45C566.67,7.24,562.31,2,557.44,2c-8.64,0-15.65,16.44-15.65,36.71s7.01,36.7,15.65,36.7c4.87,0,9.23-5.23,12.1-13.45" transform="translate(0 0)" fill="none" stroke="#005561" stroke-miterlimit="10" stroke-width="4"/>
  <path id="Path_4282" data-name="Path 4282" d="M557.44,2H535.9" transform="translate(0 0)" fill="none" stroke="#005561" stroke-miterlimit="10" stroke-width="4"/>
  <path id="Path_4283" data-name="Path 4283" d="M557.44,75.41H535.9" transform="translate(0 0)" fill="none" stroke="#005561" stroke-miterlimit="10" stroke-width="4"/>
  <path id="Path_4284" data-name="Path 4284" d="M557.44,15.45c-3.35,0-6.06,10.41-6.06,23.26s2.71,23.25,6.06,23.25" transform="translate(0 0)" fill="none" stroke="#005561" stroke-miterlimit="10" stroke-width="4"/>
  <path id="Path_4285" data-name="Path 4285" d="M557.44,15.45h481.64" transform="translate(0 0)" fill="none" stroke="#005561" stroke-linecap="round" stroke-miterlimit="10" stroke-width="4"/>
  <path id="Path_4286" data-name="Path 4286" d="M557.44,61.96h481.64" transform="translate(0 0)" fill="none" stroke="#005561" stroke-miterlimit="10" stroke-width="4"/>
  <path id="Path_4287" data-name="Path 4287" d="M804.87,61.96c-2.86,0-5.19-10.41-5.19-23.25s2.33-23.26,5.19-23.26" transform="translate(0 0)" fill="none" stroke="#005561" stroke-miterlimit="10" stroke-width="4"/>
  <path id="Path_4288" data-name="Path 4288" d="M932.35,61.96c-2.87,0-5.19-10.41-5.19-23.25s2.32-23.26,5.19-23.26" transform="translate(0 0)" fill="none" stroke="#005561" stroke-miterlimit="10" stroke-width="4"/>
  <path id="Path_4289" data-name="Path 4289" d="M668.57,61.96c-2.86,0-5.18-10.41-5.18-23.25s2.32-23.26,5.18-23.26" transform="translate(0 0)" fill="none" stroke="#005561" stroke-miterlimit="10" stroke-width="4"/>
  <path id="Path_4290" data-name="Path 4290" d="M1051.19,75.41c-4.88,0-9.24-5.24-12.11-13.45a72.2,72.2,0,0,1-3.54-23.26,72.139,72.139,0,0,1,3.54-23.25C1041.95,7.24,1046.31,2,1051.19,2" transform="translate(0 0)" fill="none" stroke="#005561" stroke-miterlimit="10" stroke-width="4"/>
  <path id="Path_4291" data-name="Path 4291" d="M1084.83,15.45C1081.96,7.24,1077.6,2,1072.72,2c-8.64,0-15.65,16.44-15.65,36.71s7.01,36.7,15.65,36.7c4.88,0,9.24-5.23,12.11-13.45" transform="translate(0 0)" fill="none" stroke="#005561" stroke-miterlimit="10" stroke-width="4"/>
  <line id="Line_415" data-name="Line 415" x1="21.53" transform="translate(1051.19 2)" fill="none" stroke="#005561" stroke-miterlimit="10" stroke-width="4"/>
  <line id="Line_416" data-name="Line 416" x1="21.53" transform="translate(1051.19 75.41)" fill="none" stroke="#005561" stroke-miterlimit="10" stroke-width="4"/>
  <path id="Path_4292" data-name="Path 4292" d="M1072.72,15.45c-3.34,0-6.05,10.41-6.05,23.26s2.71,23.25,6.05,23.25" transform="translate(0 0)" fill="none" stroke="#005561" stroke-miterlimit="10" stroke-width="4"/>
  <path id="Path_4293" data-name="Path 4293" d="M1072.72,15.45h111.14" transform="translate(0 0)" fill="none" stroke="#005561" stroke-linecap="round" stroke-miterlimit="10" stroke-width="4"/>
  <path id="Path_4294" data-name="Path 4294" d="M1072.72,61.96h488.46" transform="translate(0 0)" fill="none" stroke="#005561" stroke-miterlimit="10" stroke-width="4"/>
  <path id="Path_4295" data-name="Path 4295" d="M1320.16,61.96c-2.86,0-5.19-10.41-5.19-23.25s2.33-23.26,5.19-23.26" transform="translate(0 0)" fill="none" stroke="#005561" stroke-miterlimit="10" stroke-width="4"/>
  <path id="Path_4296" data-name="Path 4296" d="M1447.64,61.96c-2.87,0-5.19-10.41-5.19-23.25s2.32-23.26,5.19-23.26" transform="translate(0 0)" fill="none" stroke="#005561" stroke-miterlimit="10" stroke-width="4"/>
  <path id="Path_4297" data-name="Path 4297" d="M1183.86,61.96c-2.86,0-5.19-10.41-5.19-23.25s2.33-23.26,5.19-23.26h377.32" transform="translate(0 0)" fill="none" stroke="#005561" stroke-linecap="round" stroke-miterlimit="10" stroke-width="4"/>
  <path id="Path_4298" data-name="Path 4298" d="M1573.29,75.41c-4.88,0-9.24-5.24-12.11-13.45a72.2,72.2,0,0,1-3.54-23.26,72.173,72.173,0,0,1,3.54-23.25C1564.05,7.24,1568.41,2,1573.29,2" transform="translate(0 0)" fill="none" stroke="#005561" stroke-miterlimit="10" stroke-width="4"/>
  <path id="Path_4299" data-name="Path 4299" d="M1606.93,15.45C1604.06,7.24,1599.7,2,1594.82,2c-8.64,0-15.65,16.44-15.65,36.71s7.01,36.7,15.65,36.7c4.88,0,9.24-5.23,12.11-13.45" transform="translate(0 0)" fill="none" stroke="#005561" stroke-miterlimit="10" stroke-width="4"/>
  <line id="Line_417" data-name="Line 417" x1="21.53" transform="translate(1573.29 2)" fill="none" stroke="#005561" stroke-miterlimit="10" stroke-width="4"/>
  <line id="Line_418" data-name="Line 418" x1="21.53" transform="translate(1573.29 75.41)" fill="none" stroke="#005561" stroke-miterlimit="10" stroke-width="4"/>
  <path id="Path_4300" data-name="Path 4300" d="M1594.82,15.45c-3.34,0-6.05,10.41-6.05,23.26s2.71,23.25,6.05,23.25" transform="translate(0 0)" fill="none" stroke="#005561" stroke-miterlimit="10" stroke-width="4"/>
  <path id="Path_4301" data-name="Path 4301" d="M1594.82,15.45h488.9" transform="translate(0 0)" fill="none" stroke="#005561" stroke-linecap="round" stroke-miterlimit="10" stroke-width="4"/>
  <path id="Path_4302" data-name="Path 4302" d="M1594.82,61.96h488.9" transform="translate(0 0)" fill="none" stroke="#005561" stroke-miterlimit="10" stroke-width="4"/>
  <path id="Path_4303" data-name="Path 4303" d="M1842.26,61.96c-2.87,0-5.19-10.41-5.19-23.25s2.32-23.26,5.19-23.26" transform="translate(0 0)" fill="none" stroke="#005561" stroke-miterlimit="10" stroke-width="4"/>
  <path id="Path_4304" data-name="Path 4304" d="M1969.73,61.96c-2.86,0-5.18-10.41-5.18-23.25s2.32-23.26,5.18-23.26" transform="translate(0 0)" fill="none" stroke="#005561" stroke-miterlimit="10" stroke-width="4"/>
  <path id="Path_4305" data-name="Path 4305" d="M1705.96,61.96c-2.87,0-5.19-10.41-5.19-23.25s2.32-23.26,5.19-23.26" transform="translate(0 0)" fill="none" stroke="#005561" stroke-miterlimit="10" stroke-width="4"/>
  <rect id="Rectangle_2992" data-name="Rectangle 2992" width="2085.72" height="77.41" transform="translate(0 0)" fill="none"/>
</svg>
