<svg xmlns="http://www.w3.org/2000/svg" width="1571.3" height="794.06" viewBox="0 0 1571.3 794.06">
  <path id="Path_2711" data-name="Path 2711" d="M1575.6,411.393v12.35l-282.75,98.02-4.92,1.9v-13.25Z" transform="translate(-189.607 -132.223)" fill="#fff"/>
  <path id="Path_2712" data-name="Path 2712" d="M1292.847,758.3V521.763l282.75-98.02v426.43h-282.75Zm264.5-57.44V539.3h-114.44v161.56h114.44Zm-133.18,0V539.3h-114.44v161.56h114.44Z" transform="translate(-189.607 -132.223)" fill="#fff"/>
  <path id="Path_2713" data-name="Path 2713" d="M1033.447,505.083v16.68H743.627v-16.68Z" transform="translate(-189.607 -132.223)" fill="#fff"/>
  <path id="Path_2714" data-name="Path 2714" d="M1046.737,521.763v328.41h-38.36v-221.6H951.7v221.6H763.987V521.763h282.75Zm-130.55,178.61V538.8H780.377v161.57h135.81Z" transform="translate(-189.607 -132.223)" fill="#fff"/>
  <path id="Path_2715" data-name="Path 2715" d="M1008.377,628.573v221.6H951.7v-221.6Zm-34.85,113.51a8.3,8.3,0,1,0-8.3,8.3A8.305,8.305,0,0,0,973.527,742.083Z" transform="translate(-189.607 -132.223)" fill="#fff"/>
  <circle id="Ellipse_54" data-name="Ellipse 54" cx="8.3" cy="8.3" r="8.3" transform="translate(767.32 601.56)" fill="#fff"/>
  <path id="Path_2716" data-name="Path 2716" d="M506.517,134.223V150.9H214.167v-16.68Z" transform="translate(-189.607 -132.223)" fill="#fff"/>
  <path id="Path_2717" data-name="Path 2717" d="M478.917,628.573v221.6h-56.69v-221.6Zm-34.86,113.51a8.3,8.3,0,1,0-8.3,8.3A8.3,8.3,0,0,0,444.057,742.083Z" transform="translate(-189.607 -132.223)" fill="#fff"/>
  <circle id="Ellipse_55" data-name="Ellipse 55" cx="8.3" cy="8.3" r="8.3" transform="translate(237.85 601.56)" fill="#fff"/>
  <path id="Path_2718" data-name="Path 2718" d="M1720.127,411.393v12.35H1575.6v-12.35Z" transform="translate(-189.607 -132.223)" fill="#e7ecec"/>
  <path id="Path_2719" data-name="Path 2719" d="M1716.967,758.3v91.87H1674.2v-221.6h-56.69v221.6H1575.6V423.743h141.37Z" transform="translate(-189.607 -132.223)" fill="#e7ecec"/>
  <path id="Path_2720" data-name="Path 2720" d="M1674.2,628.573v221.6h-56.69v-221.6Zm-5.23,108.22a8.3,8.3,0,1,0-8.3,8.3A8.305,8.305,0,0,0,1668.967,736.793Z" transform="translate(-189.607 -132.223)" fill="#e7ecec"/>
  <circle id="Ellipse_56" data-name="Ellipse 56" cx="8.3" cy="8.3" r="8.3" transform="translate(1462.76 596.27)" fill="#e7ecec"/>
  <rect id="Rectangle_2856" data-name="Rectangle 2856" width="57.22" height="80.78" transform="translate(1310.52 487.86)" fill="#005561"/>
  <rect id="Rectangle_2857" data-name="Rectangle 2857" width="57.22" height="80.78" transform="translate(1310.52 407.08)" fill="#005561"/>
  <rect id="Rectangle_2858" data-name="Rectangle 2858" width="57.22" height="80.78" transform="translate(1253.3 487.86)" fill="#005561"/>
  <rect id="Rectangle_2859" data-name="Rectangle 2859" width="57.22" height="80.78" transform="translate(1253.3 407.08)" fill="#005561"/>
  <rect id="Rectangle_2860" data-name="Rectangle 2860" width="57.22" height="80.78" transform="translate(1177.34 487.86)" fill="#005561"/>
  <rect id="Rectangle_2861" data-name="Rectangle 2861" width="57.22" height="80.78" transform="translate(1177.34 407.08)" fill="#005561"/>
  <rect id="Rectangle_2862" data-name="Rectangle 2862" width="57.22" height="80.78" transform="translate(1120.12 487.86)" fill="#005561"/>
  <rect id="Rectangle_2863" data-name="Rectangle 2863" width="57.22" height="80.78" transform="translate(1120.12 407.08)" fill="#005561"/>
  <path id="Path_2721" data-name="Path 2721" d="M1197.907,505.083v16.68h-164.46v-16.68h164.46Z" transform="translate(-189.607 -132.223)" fill="#e7ecec"/>
  <path id="Path_2722" data-name="Path 2722" d="M1188.117,758.3v91.87h-141.38V521.763h141.38Z" transform="translate(-189.607 -132.223)" fill="#e7ecec"/>
  <rect id="Rectangle_2864" data-name="Rectangle 2864" width="53.34" height="38.52" transform="translate(900.72 334.34)" fill="#e7ecec"/>
  <rect id="Rectangle_2865" data-name="Rectangle 2865" width="67.9" height="80.79" transform="translate(658.68 487.36)" fill="#005561"/>
  <rect id="Rectangle_2866" data-name="Rectangle 2866" width="67.9" height="80.78" transform="translate(658.68 406.58)" fill="#005561"/>
  <rect id="Rectangle_2867" data-name="Rectangle 2867" width="67.91" height="80.79" transform="translate(590.77 487.36)" fill="#005561"/>
  <rect id="Rectangle_2868" data-name="Rectangle 2868" width="67.91" height="80.78" transform="translate(590.77 406.58)" fill="#005561"/>
  <path id="Path_2723" data-name="Path 2723" d="M671.237,134.223V150.9H506.517v-16.68Z" transform="translate(-189.607 -132.223)" fill="#e7ecec"/>
  <path id="Path_2724" data-name="Path 2724" d="M658.647,758.3v91.87H517.277V150.9h141.37Z" transform="translate(-189.607 -132.223)" fill="#e7ecec"/>
  <path id="Path_2725" data-name="Path 2725" d="M517.277,150.9v699.27h-38.36v-221.6h-56.69v221.6h-187.7V150.9h282.75Zm-130.56,549.47V538.8h-135.8v161.57h135.8Zm0-182.03V356.783h-135.8v161.56h135.8Zm0-182.51V174.273h-135.8v161.56h135.8Z" transform="translate(-189.607 -132.223)" fill="#fff"/>
  <rect id="Rectangle_2869" data-name="Rectangle 2869" width="67.9" height="80.79" transform="translate(129.21 487.36)" fill="#005561"/>
  <rect id="Rectangle_2870" data-name="Rectangle 2870" width="67.9" height="80.78" transform="translate(129.21 406.58)" fill="#005561"/>
  <rect id="Rectangle_2871" data-name="Rectangle 2871" width="67.9" height="80.78" transform="translate(129.21 305.34)" fill="#005561"/>
  <rect id="Rectangle_2872" data-name="Rectangle 2872" width="67.9" height="80.78" transform="translate(129.21 224.56)" fill="#005561"/>
  <rect id="Rectangle_2873" data-name="Rectangle 2873" width="67.9" height="80.78" transform="translate(129.21 122.83)" fill="#005561"/>
  <rect id="Rectangle_2874" data-name="Rectangle 2874" width="67.9" height="80.78" transform="translate(129.21 42.05)" fill="#005561"/>
  <rect id="Rectangle_2875" data-name="Rectangle 2875" width="67.9" height="80.79" transform="translate(61.31 487.36)" fill="#005561"/>
  <rect id="Rectangle_2876" data-name="Rectangle 2876" width="67.9" height="80.78" transform="translate(61.31 406.58)" fill="#005561"/>
  <rect id="Rectangle_2877" data-name="Rectangle 2877" width="67.9" height="80.78" transform="translate(61.31 305.34)" fill="#005561"/>
  <rect id="Rectangle_2878" data-name="Rectangle 2878" width="67.9" height="80.78" transform="translate(61.31 224.56)" fill="#005561"/>
  <rect id="Rectangle_2879" data-name="Rectangle 2879" width="67.9" height="80.78" transform="translate(61.31 122.83)" fill="#005561"/>
  <rect id="Rectangle_2880" data-name="Rectangle 2880" width="67.9" height="80.78" transform="translate(61.31 42.05)" fill="#005561"/>
  <path id="Path_2726" data-name="Path 2726" d="M1046.737,850.173H763.987V521.763" transform="translate(-189.607 -132.223)" fill="none" stroke="#005561" stroke-miterlimit="10" stroke-width="4"/>
  <path id="Path_2727" data-name="Path 2727" d="M1046.737,521.763v328.41h141.38V521.763" transform="translate(-189.607 -132.223)" fill="none" stroke="#005561" stroke-miterlimit="10" stroke-width="4"/>
  <path id="Path_2728" data-name="Path 2728" d="M1008.377,850.173v.13H951.7V628.573h56.68Z" transform="translate(-189.607 -132.223)" fill="none" stroke="#005561" stroke-miterlimit="10" stroke-width="4"/>
  <circle id="Ellipse_57" data-name="Ellipse 57" cx="8.3" cy="8.3" r="8.3" transform="translate(767.32 601.56)" fill="none" stroke="#005561" stroke-miterlimit="10" stroke-width="4"/>
  <path id="Path_2729" data-name="Path 2729" d="M780.377,619.583h135.81" transform="translate(-189.607 -132.223)" fill="none" stroke="#fff" stroke-miterlimit="10" stroke-width="4"/>
  <path id="Path_2730" data-name="Path 2730" d="M848.287,538.8v161.57" transform="translate(-189.607 -132.223)" fill="none" stroke="#fff" stroke-miterlimit="10" stroke-width="4"/>
  <path id="Path_2731" data-name="Path 2731" d="M1033.447,521.763H743.627v-16.68h289.82" transform="translate(-189.607 -132.223)" fill="none" stroke="#005561" stroke-miterlimit="10" stroke-width="4"/>
  <path id="Path_2732" data-name="Path 2732" d="M1143.667,505.083v-38.52h-53.34v38.52" transform="translate(-189.607 -132.223)" fill="none" stroke="#005561" stroke-miterlimit="10" stroke-width="4"/>
  <path id="Path_2733" data-name="Path 2733" d="M1188.117,521.763h9.79v-16.68h-164.46v16.68h154.67Z" transform="translate(-189.607 -132.223)" fill="none" stroke="#005561" stroke-miterlimit="10" stroke-width="4"/>
  <path id="Path_2734" data-name="Path 2734" d="M517.277,850.173H234.527V150.9" transform="translate(-189.607 -132.223)" fill="none" stroke="#005561" stroke-miterlimit="10" stroke-width="4"/>
  <path id="Path_2735" data-name="Path 2735" d="M517.277,150.9v699.27h141.37V150.9" transform="translate(-189.607 -132.223)" fill="none" stroke="#005561" stroke-miterlimit="10" stroke-width="4"/>
  <path id="Path_2736" data-name="Path 2736" d="M478.917,850.173v.13h-56.69V628.573h56.69Z" transform="translate(-189.607 -132.223)" fill="none" stroke="#005561" stroke-miterlimit="10" stroke-width="4"/>
  <circle id="Ellipse_58" data-name="Ellipse 58" cx="8.3" cy="8.3" r="8.3" transform="translate(237.85 601.56)" fill="none" stroke="#005561" stroke-miterlimit="10" stroke-width="4"/>
  <path id="Path_2737" data-name="Path 2737" d="M250.917,619.583h135.8" transform="translate(-189.607 -132.223)" fill="none" stroke="#fff" stroke-miterlimit="10" stroke-width="4"/>
  <path id="Path_2738" data-name="Path 2738" d="M318.817,538.8v161.57" transform="translate(-189.607 -132.223)" fill="none" stroke="#fff" stroke-miterlimit="10" stroke-width="4"/>
  <path id="Path_2739" data-name="Path 2739" d="M250.917,437.563h135.8" transform="translate(-189.607 -132.223)" fill="none" stroke="#fff" stroke-miterlimit="10" stroke-width="4"/>
  <path id="Path_2740" data-name="Path 2740" d="M318.817,356.783v161.56" transform="translate(-189.607 -132.223)" fill="none" stroke="#fff" stroke-miterlimit="10" stroke-width="4"/>
  <path id="Path_2741" data-name="Path 2741" d="M250.917,255.053h135.8" transform="translate(-189.607 -132.223)" fill="none" stroke="#fff" stroke-miterlimit="10" stroke-width="4"/>
  <path id="Path_2742" data-name="Path 2742" d="M318.817,174.273v161.56" transform="translate(-189.607 -132.223)" fill="none" stroke="#fff" stroke-miterlimit="10" stroke-width="4"/>
  <path id="Path_2743" data-name="Path 2743" d="M506.517,150.9H214.167v-16.68h292.35" transform="translate(-189.607 -132.223)" fill="none" stroke="#005561" stroke-miterlimit="10" stroke-width="4"/>
  <path id="Path_2744" data-name="Path 2744" d="M658.647,150.9h12.59v-16.68H506.517V150.9h152.13Z" transform="translate(-189.607 -132.223)" fill="none" stroke="#005561" stroke-miterlimit="10" stroke-width="4"/>
  <path id="Path_2745" data-name="Path 2745" d="M1575.6,850.173h-282.75V521.763l282.75-98.02" transform="translate(-189.607 -132.223)" fill="none" stroke="#005561" stroke-miterlimit="10" stroke-width="4"/>
  <path id="Path_2746" data-name="Path 2746" d="M1575.6,423.743v426.43h141.37V423.743" transform="translate(-189.607 -132.223)" fill="none" stroke="#005561" stroke-miterlimit="10" stroke-width="4"/>
  <path id="Path_2747" data-name="Path 2747" d="M1617.507,850.173v-221.6h56.69V850.3h-56.69Z" transform="translate(-189.607 -132.223)" fill="none" stroke="#005561" stroke-miterlimit="10" stroke-width="4"/>
  <circle id="Ellipse_59" data-name="Ellipse 59" cx="8.3" cy="8.3" r="8.3" transform="translate(1462.76 596.27)" fill="none" stroke="#005561" stroke-miterlimit="10" stroke-width="4"/>
  <path id="Path_2748" data-name="Path 2748" d="M1309.727,620.083h114.44" transform="translate(-189.607 -132.223)" fill="none" stroke="#fff" stroke-miterlimit="10" stroke-width="4"/>
  <path id="Path_2749" data-name="Path 2749" d="M1366.947,539.3v161.56" transform="translate(-189.607 -132.223)" fill="none" stroke="#fff" stroke-miterlimit="10" stroke-width="4"/>
  <path id="Path_2750" data-name="Path 2750" d="M1442.907,620.083h114.44" transform="translate(-189.607 -132.223)" fill="none" stroke="#fff" stroke-miterlimit="10" stroke-width="4"/>
  <path id="Path_2751" data-name="Path 2751" d="M1500.127,539.3v161.56" transform="translate(-189.607 -132.223)" fill="none" stroke="#fff" stroke-miterlimit="10" stroke-width="4"/>
  <path id="Path_2752" data-name="Path 2752" d="M1575.6,411.393h144.53v12.35H1575.6Z" transform="translate(-189.607 -132.223)" fill="none" stroke="#005561" stroke-miterlimit="10" stroke-width="4"/>
  <path id="Path_2753" data-name="Path 2753" d="M1575.6,411.393l-287.67,99.02v13.25l4.92-1.9" transform="translate(-189.607 -132.223)" fill="none" stroke="#005561" stroke-miterlimit="10" stroke-width="4"/>
  <line id="Line_198" data-name="Line 198" x1="43.94" transform="translate(0 626.08)" fill="none" stroke="#005561" stroke-miterlimit="10" stroke-width="4"/>
  <line id="Line_199" data-name="Line 199" x1="106.03" transform="translate(501.01 752.75)" fill="none" stroke="#005561" stroke-miterlimit="10" stroke-width="4"/>
  <line id="Line_200" data-name="Line 200" x1="43.94" transform="translate(1527.36 626.08)" fill="none" stroke="#005561" stroke-miterlimit="10" stroke-width="4"/>
  <line id="Line_201" data-name="Line 201" x1="95.6" transform="translate(1034.08 752.75)" fill="none" stroke="#005561" stroke-miterlimit="10" stroke-width="4"/>
  <line id="Line_202" data-name="Line 202" x1="105.34" transform="translate(469.04 626.08)" fill="none" stroke="#005561" stroke-miterlimit="10" stroke-width="4"/>
  <line id="Line_203" data-name="Line 203" x1="277.67" transform="translate(260.43 778.18)" fill="none" stroke="#005561" stroke-miterlimit="10" stroke-width="4"/>
  <path id="Path_2754" data-name="Path 2754" d="M1293.457,758.3h-105.34" transform="translate(-189.607 -132.223)" fill="none" stroke="#005561" stroke-miterlimit="10" stroke-width="4"/>
  <line id="Line_204" data-name="Line 204" x1="105.35" transform="translate(1098.32 792.06)" fill="none" stroke="#005561" stroke-miterlimit="10" stroke-width="4"/>
</svg>
