<svg xmlns="http://www.w3.org/2000/svg" width="960.502" height="722.262" viewBox="0 0 960.502 722.262">
  <g id="Group_2553" data-name="Group 2553" transform="translate(2 2)">
    <g id="Group_2557" data-name="Group 2557" transform="translate(0 0)">
      <path id="Path_1966" data-name="Path 1966" d="M728.191,1843.445q-.187-4.153-.187-8.369c0-103.81,84.153-187.963,187.963-187.963s187.963,84.153,187.963,187.963v1.048a188.081,188.081,0,0,1,158.914,128.792c-46.872,4.341-93.744,53.433-95.191,54.979,1.334-.9,44.49-29.772,101.49-29.772,96.326,8.107,171.985,88.855,171.985,187.289,0,103.81-84.153,187.963-187.963,187.963a187.65,187.65,0,0,1-148.088-72.2v-.012c10.552-41.471-4-82.918-4-82.918a187.914,187.914,0,0,1-185.106,155.135c-95.416,0-174.218-71.094-186.341-163.192a190.208,190.208,0,0,1,0-49.566s-23.486,25.133-21.353,54.992a188,188,0,0,1-35.7,3.392c-103.8,0-187.95-84.152-187.95-187.963s84.153-187.962,187.95-187.962A187.88,187.88,0,0,1,728.191,1843.445ZM898.953,1990.21a187.831,187.831,0,0,1,66.6-113.077c-25.769-6.3-98.833,38.1-96.152,118.128A186.069,186.069,0,0,1,898.953,1990.21Z" transform="translate(-484.625 -1647.113)" fill="#fff"/>
      <path id="Path_1967" data-name="Path 1967" d="M1127.436,1901.913a184.352,184.352,0,0,1,6.3,25.207c-57,0-100.155,28.874-101.49,29.772C1033.692,1955.346,1080.564,1906.253,1127.436,1901.913Z" transform="translate(-349.219 -1584.11)" fill="#e2eced"/>
      <path id="Path_1968" data-name="Path 1968" d="M982.136,2098.6s14.556,41.446,4,82.918a188.01,188.01,0,0,1-20.505-32.579A186.613,186.613,0,0,0,982.136,2098.6Z" transform="translate(-365.689 -1535.476)" fill="#e2eced"/>
      <path id="Path_1969" data-name="Path 1969" d="M793.139,1949.778c-2.682-80.024,70.383-124.427,96.152-118.128a187.83,187.83,0,0,0-66.6,113.077A185.991,185.991,0,0,0,793.139,1949.778Z" transform="translate(-408.358 -1601.63)" fill="#e2eced"/>
      <path id="Path_1970" data-name="Path 1970" d="M685.315,2052.4a190.217,190.217,0,0,0,0,49.566,186.353,186.353,0,0,1-21.353,5.426C661.829,2077.535,685.315,2052.4,685.315,2052.4Z" transform="translate(-440.315 -1546.9)" fill="#e2eced"/>
    </g>
    <g id="Group_2558" data-name="Group 2558" transform="translate(0 0)">
      <path id="Path_1971" data-name="Path 1971" d="M679.942,1843.445q-.187-4.153-.187-8.369c0-103.81,84.153-187.963,187.963-187.963s187.963,84.153,187.963,187.963v1.048" transform="translate(-436.376 -1647.113)" fill="none" stroke="#005561" stroke-miterlimit="10" stroke-width="4"/>
      <path id="Path_1972" data-name="Path 1972" d="M986.14,2171.542a188.029,188.029,0,0,1-20.505-32.579" transform="translate(-365.689 -1525.496)" fill="none" stroke="#005561" stroke-miterlimit="10" stroke-width="4"/>
      <path id="Path_1973" data-name="Path 1973" d="M1146.14,1922.123c96.326,8.107,171.985,88.855,171.985,187.289,0,103.81-84.153,187.962-187.963,187.962a187.651,187.651,0,0,1-148.088-72.2" transform="translate(-361.624 -1579.113)" fill="none" stroke="#005561" stroke-miterlimit="10" stroke-width="4"/>
      <path id="Path_1974" data-name="Path 1974" d="M772.244,1826.388a187.15,187.15,0,0,0-99.669-28.575c-103.8,0-187.95,84.153-187.95,187.962s84.153,187.963,187.95,187.963a188.082,188.082,0,0,0,57.05-8.818" transform="translate(-484.625 -1609.851)" fill="none" stroke="#005561" stroke-miterlimit="10" stroke-width="4"/>
      <path id="Path_1975" data-name="Path 1975" d="M816.815,1950.73a188.256,188.256,0,0,1,121.109-143.947" transform="translate(-402.487 -1607.633)" fill="none" stroke="#005561" stroke-miterlimit="10" stroke-width="4"/>
      <line id="Line_92" data-name="Line 92" y1="0.012" transform="translate(411.472 374.877)" fill="none" stroke="#005561" stroke-miterlimit="10" stroke-width="4"/>
      <path id="Path_1976" data-name="Path 1976" d="M981.155,1798.653a188.081,188.081,0,0,1,158.914,128.792,184.364,184.364,0,0,1,6.3,25.208c-57,0-100.155,28.874-101.49,29.772" transform="translate(-361.851 -1609.643)" fill="none" stroke="#005561" stroke-miterlimit="10" stroke-width="4"/>
      <path id="Path_1977" data-name="Path 1977" d="M768.1,1938.384a185.989,185.989,0,0,1,20.717-7.982c3.455-1.1,6.947-2.108,10.489-3.006a186.019,186.019,0,0,1,29.548-5.052q8.4-.749,17.013-.761a188.127,188.127,0,0,1,176.949,124.427" transform="translate(-414.531 -1579.247)" fill="none" stroke="#005561" stroke-miterlimit="10" stroke-width="4"/>
      <path id="Path_1978" data-name="Path 1978" d="M681.376,2052.4a190.21,190.21,0,0,0,0,49.566c12.123,92.1,90.925,163.192,186.341,163.192a187.914,187.914,0,0,0,185.106-155.134" transform="translate(-436.376 -1546.9)" fill="none" stroke="#005561" stroke-miterlimit="10" stroke-width="4"/>
      <line id="Line_93" data-name="Line 93" x1="0.012" transform="translate(467.586 509.881)" fill="none" stroke="#005561" stroke-miterlimit="10" stroke-width="4"/>
      <line id="Line_94" data-name="Line 94" x1="0.012" transform="translate(587.847 478.388)" fill="none" stroke="#005561" stroke-miterlimit="10" stroke-width="4"/>
      <line id="Line_95" data-name="Line 95" y1="0.012" transform="translate(620.451 646.045)" fill="none" stroke="#005561" stroke-miterlimit="10" stroke-width="4"/>
      <path id="Path_1979" data-name="Path 1979" d="M1032.253,1945.993a.165.165,0,0,0-.038.025" transform="translate(-349.226 -1573.211)" fill="none" stroke="#005561" stroke-miterlimit="10" stroke-width="4"/>
    </g>
  </g>
</svg>
